<?xml version="1.0" encoding="UTF-8"?> <!-- Generator: Adobe Illustrator 16.0.4, SVG Export Plug-In . SVG Version: 6.00 Build 0) --> <svg xmlns="http://www.w3.org/2000/svg" xmlns:xlink="http://www.w3.org/1999/xlink" id="Layer_1" x="0px" y="0px" width="437px" height="223px" viewBox="0 0 437 223" xml:space="preserve"> <path fill="#3F3F3F" d="M231.392,145.496l0.166-67.967h-27.593l-18.432,43.578l-20.188-43.604H138.06v59.196l-25.451-59.196H87.94 l-29.041,67.994h19.129l6.015-14.703h31.796l5.988,14.703h33.578V96.937l21.607,48.559h15.009l21.41-48.421v48.421H231.392z M90.445,115.174l9.495-23.107l9.521,23.107H90.445z M355.103,77.504l-19.656,21.215l-19.104-21.215h-72.561v67.994h71.611 l19.801-21.44l19.127,21.44h23.027l-30.629-33.886l31.381-34.081L355.103,77.504z M298.218,139.063v-9.104h-36.977v-11.416h35.973 v-15.285h-35.973V93.069h36.641l0.311-10.498l25.863,28.65L298.218,139.063z M407,0H218.5h0H30C13.458,0,0,13.458,0,30v163 c0,16.542,13.458,30,30,30h188.5h0H407c16.542,0,30-13.458,30-30V30C437,13.458,423.542,0,407,0z M427,193c0,11.027-8.972,20-20,20 H218.5h0H30c-11.028,0-20-8.973-20-20V30c0-11.028,8.972-20,20-20h188.5h0H407c11.028,0,20,8.972,20,20V193z"></path> </svg> 