<?xml version="1.0" encoding="UTF-8"?> <svg xmlns="http://www.w3.org/2000/svg" width="500" height="500" viewBox="0 0 500 500"><path fill="#3F3F3F" d="M214.852 53.128s.714 4.486-.074 11.669c-1.098 10.007-5.11 25.245-18.025 40.88-22.188 26.859 20.436 49.046 18.684 65.396 0 0 5.255-15.181 0-25.107s-13.429-19.852-7.006-26.859c6.421-7.007 15.18-31.531 6.421-65.979"></path><path fill="none" stroke="#FFF" stroke-width="1.492" stroke-miterlimit="10" d="M214.852 53.128s.714 4.486-.074 11.669c-1.098 10.007-5.11 25.245-18.025 40.88-22.188 26.859 20.436 49.046 18.684 65.396 0 0 5.255-15.181 0-25.107s-13.429-19.852-7.006-26.859c6.421-7.007 15.18-31.531 6.421-65.979z"></path><path fill="#3F3F3F" d="M295.789 65.807s.638 4.012-.066 10.436c-.982 8.947-4.57 22.574-16.12 36.556-19.841 24.018 18.275 43.858 16.708 58.478 0 0 4.699-13.574 0-22.451-4.698-8.876-12.008-17.752-6.266-24.019 5.744-6.266 13.576-28.195 5.744-59"></path><path fill="none" stroke="#FFF" stroke-width="1.492" stroke-miterlimit="10" d="M295.789 65.807s.638 4.012-.066 10.436c-.982 8.947-4.57 22.574-16.12 36.556-19.841 24.018 18.275 43.858 16.708 58.478 0 0 4.699-13.574 0-22.451-4.698-8.876-12.008-17.752-6.266-24.019 5.744-6.266 13.576-28.195 5.744-59z"></path><path fill="#3F3F3F" d="M239.406 160.521c-.951-6.214-2.08-17.906 1.044-26.395.854-2.323 1.808-4.674 2.73-6.948 4.177-10.298 8.108-19.993 3.473-27.271-5.564-8.735-12.111-35.431-7.34-73.178l1.494.062c.052 1.22.127 2.527.233 3.914.974 12.774 4.533 32.179 15.962 52.086 12.429 21.651 2.034 40.657-7.136 57.426-3.958 7.239-7.696 14.074-8.985 20.341l-.843 4.099-.632-4.136z"></path><path fill="#FFF" d="M240.058 26.823c.052 1.228.128 2.543.235 3.939.979 12.851 4.561 32.373 16.06 52.402 12.219 21.285 1.933 40.096-7.144 56.692-3.958 7.239-7.75 14.172-9.062 20.55-1.013-6.619-2.009-17.827 1.007-26.022.854-2.323 1.811-4.68 2.735-6.959 4.238-10.448 8.241-20.317 3.397-27.922-5.621-8.823-11.913-35.621-7.228-72.68m-1.489-.188c-4.796 37.943 1.829 64.848 7.452 73.675 4.428 6.952.566 16.472-3.522 26.552-.938 2.314-1.894 4.671-2.752 7.005-3.023 8.213-2.257 19.089-1.083 26.767l1.266 8.272 1.687-8.197c1.267-6.157 4.978-12.944 8.907-20.13 9.267-16.943 19.768-36.146 7.13-58.161-11.359-19.786-14.897-39.073-15.865-51.77-.1-1.308-.178-2.616-.232-3.89l-2.988-.123z"></path><path fill="#3F3F3F" d="M426.664 308.771c-9.634-18.335-23.432-34.807-41.011-48.96-14.882-11.979-31.844-21.775-50.527-29.219-.839-.463-2.896-2.685-2.941-2.741-2.643-3.321-1.117-6.039-.21-7.166.291-.363.52-.565.52-.565s2.241-1.682 3.108-2.175c.381-.218-.539.319.073-.012.198-.107.39-.236.589-.345.062-.033.126-.061.188-.092.345-.129.702-.25 1.045-.381 23.736-9.058 39.314-21.423 43.856-34.817a4.285 4.285 0 0 0-.582-3.921 4.312 4.312 0 0 0-3.54-1.819H122.743a4.315 4.315 0 0 0-3.542 1.819 4.295 4.295 0 0 0-.584 3.921c4.545 13.395 20.121 25.76 43.857 34.817 1.106.422 5.307 2.382 6.199 3.074.355.274 2.826 3.284 1.108 6.923-.251.53-1.155 1.762-1.197 1.817-.365.217-.733.425-1.1.636-19.719 7.56-37.565 17.71-53.138 30.245-17.58 14.153-31.379 30.625-41.011 48.96-9.96 18.956-15.01 39.087-15.01 59.833 0 32.175 12.219 62.968 35.345 89.106.252-.035.512-.053.774-.053h311.932c23.093-26.126 35.295-56.908 35.295-89.054.002-20.744-5.048-40.874-15.007-59.831z"></path><path fill="#FFF" d="M292.756 359.067c-25.895 28.636-47.471 12.161-47.471 12.161 18.438-11.772 26.285-78.465 26.285-78.465-6.472 52.854-31.227 69.622-35.318 72.056-32.682 32.619-45.986 45.177-54.415 45.177-9.919 0-6.786-6.782-6.786-6.782 22.948-3.104 42.963-20.889 55.43-34.816-9.39 4.812-29.193 9.892-39.726-24.634-14.123-46.291 54.138-65.91 71.399-71.008 17.261-5.099 15.3-22.361 15.3-22.361s41.192 80.032 15.302 108.672z"></path><path fill="#3F3F3F" d="M106.651 473.177c-7.216 0-13.089-2.157-13.089-4.81v-3.207c0-2.652 5.873-4.81 13.089-4.81h286.696c7.221 0 13.09 2.157 13.09 4.81v3.207c0 2.652-5.869 4.81-13.09 4.81H106.651z"></path></svg> 