<?xml version="1.0" encoding="UTF-8"?> <svg xmlns="http://www.w3.org/2000/svg" width="500" height="500" viewBox="0 0 500 500"><path fill="#FFF" d="M225.597 473.795c-7.765 0-14.198-6.023-14.964-14.012l-27.859-290.632c-.328-3.417.789-6.812 3.063-9.315 2.194-2.415 5.167-3.744 8.372-3.744h212.457c3.192 0 6.159 1.322 8.352 3.723 2.272 2.489 3.398 5.869 3.088 9.276l-26.428 290.614c-.731 8.032-7.168 14.09-14.972 14.09H225.597z"></path><path fill="#3F3F3F" d="M406.665 157.236c2.867 0 5.534 1.189 7.507 3.35 2.057 2.252 3.073 5.314 2.793 8.402l-26.429 290.615c-.677 7.438-6.622 13.048-13.831 13.048H225.598c-7.173 0-13.116-5.578-13.825-12.977l-27.859-290.632c-.297-3.097.713-6.172 2.771-8.437 1.975-2.173 4.647-3.369 7.524-3.369h212.456m0-2.289H194.208c-7.47 0-13.309 6.646-12.573 14.313l27.858 290.632c.819 8.539 7.783 15.047 16.104 15.047h151.107c8.352 0 15.33-6.556 16.11-15.13l26.43-290.615c.695-7.643-5.135-14.247-12.579-14.247"></path><path fill="#3F3F3F" d="M237.56 462.314c-6.891 0-12.598-4.963-13.275-11.545L200.52 219.724h201.706l-22.54 230.982c-.646 6.617-6.357 11.608-13.283 11.608H237.56z"></path><path fill="#3F3F3F" d="M401.721 220.182l-22.492 230.479c-.623 6.382-6.137 11.195-12.826 11.195H237.56c-6.655 0-12.166-4.786-12.819-11.134l-23.714-230.541h200.694m.993-.915H200.032c.008.204.023.409.044.615l23.754 230.936c.698 6.785 6.636 11.956 13.73 11.956h128.842c7.122 0 13.073-5.209 13.737-12.022l22.536-230.921c.018-.189.031-.377.039-.564"></path><path fill="#FFF" d="M345.011 355.398a12.455 12.455 0 0 1-5.72-1.401l-25.374-13.193c-2.944-1.532-5.121-4.131-6.128-7.319-1.007-3.189-.718-6.567.813-9.513l13.193-25.374c2.155-4.142 6.412-6.713 11.112-6.713 1.981 0 3.96.484 5.721 1.398l25.374 13.195c2.944 1.531 5.12 4.131 6.128 7.319 1.006 3.188.718 6.566-.813 9.512l-13.195 25.374c-2.154 4.141-6.41 6.715-11.109 6.715h-.002z"></path><path fill="#3F3F3F" d="M332.908 292.342c1.908 0 3.813.466 5.509 1.348l25.374 13.194c5.881 3.059 8.178 10.333 5.119 16.215l-13.194 25.374c-2.074 3.988-6.177 6.468-10.705 6.468-1.909 0-3.812-.466-5.509-1.349l-25.374-13.193a11.937 11.937 0 0 1-5.902-7.052c-.971-3.073-.692-6.326.783-9.164l13.194-25.373c2.074-3.991 6.177-6.468 10.705-6.468m0-.915c-4.682 0-9.219 2.54-11.518 6.96l-13.195 25.373c-3.283 6.314-.803 14.168 5.511 17.45l25.374 13.194a12.817 12.817 0 0 0 5.931 1.45c4.681 0 9.219-2.539 11.518-6.959l13.194-25.375c3.284-6.313.805-14.165-5.51-17.448l-25.373-13.194a12.823 12.823 0 0 0-5.932-1.451"></path><path fill="#3F3F3F" stroke="#FFF" stroke-width="2" stroke-miterlimit="10" d="M301.254 383.901L229.029 79.243a19.12 19.12 0 0 0-12.628-13.749L89.187 25.242a3.867 3.867 0 0 0-4.904 2.691L80.83 40.877a3.868 3.868 0 0 0 2.512 4.666l117.875 39.394a16.478 16.478 0 0 1 11.058 12.201l63.176 292.194 25.803-5.431z"></path><path fill="#FFF" d="M303.275 444.633c-1.537 0-3.045-.284-4.484-.842l-25.112-9.753c-3.093-1.201-5.54-3.548-6.889-6.607-1.349-3.062-1.429-6.449-.227-9.544l9.752-25.111c1.849-4.761 6.538-7.959 11.668-7.959 1.536 0 3.045.284 4.483.842l25.111 9.753c6.415 2.49 9.608 9.736 7.116 16.151l-9.752 25.111c-1.846 4.761-6.537 7.959-11.666 7.959z"></path><path fill="#3F3F3F" d="M287.983 385.275c1.479 0 2.933.272 4.319.811l25.11 9.751c6.18 2.4 9.255 9.381 6.855 15.56l-9.752 25.112c-1.781 4.585-6.298 7.666-11.241 7.666a11.86 11.86 0 0 1-4.318-.812l-25.112-9.751c-6.179-2.4-9.255-9.38-6.855-15.56l9.752-25.112c1.781-4.586 6.3-7.665 11.242-7.665m0-.917c-5.188 0-10.112 3.143-12.096 8.25l-9.751 25.113c-2.577 6.633.743 14.168 7.377 16.743l25.111 9.753c1.527.592 3.101.873 4.65.873 5.188 0 10.111-3.143 12.094-8.25l9.752-25.113c2.577-6.633-.744-14.168-7.377-16.743l-25.111-9.752a12.831 12.831 0 0 0-4.649-.874"></path><path fill="#FFF" d="M246.185 373.898a12.484 12.484 0 0 1-11.866-8.521l-9.066-27.124c-2.182-6.527 1.354-13.612 7.881-15.794l27.124-9.065a12.486 12.486 0 0 1 15.794 7.88l9.065 27.124c2.182 6.527-1.354 13.611-7.882 15.793l-27.123 9.067a12.34 12.34 0 0 1-3.927.64z"></path><path fill="#3F3F3F" d="M264.186 313.21a12.03 12.03 0 0 1 11.432 8.21l9.064 27.123c2.104 6.288-1.303 13.113-7.591 15.216l-27.123 9.064c-1.226.41-2.499.617-3.783.617a12.028 12.028 0 0 1-11.432-8.207l-9.066-27.126c-2.101-6.287 1.305-13.113 7.592-15.215l27.125-9.064a11.884 11.884 0 0 1 3.782-.618m0-.915c-1.352 0-2.725.214-4.074.665l-27.123 9.064c-6.75 2.257-10.426 9.625-8.171 16.374l9.067 27.124c1.806 5.4 6.884 8.835 12.3 8.835a12.84 12.84 0 0 0 4.072-.665l27.125-9.066c6.749-2.256 10.425-9.623 8.169-16.373l-9.065-27.124c-1.805-5.4-6.885-8.834-12.3-8.834"></path></svg> 