<?xml version="1.0" encoding="UTF-8"?> <svg xmlns="http://www.w3.org/2000/svg" width="500" height="500" viewBox="0 0 500 500"><path fill="#FFF" d="M431.518 153.237c-.432-.023-.887.097-1.324.417l-.021.015a1.918 1.918 0 0 0-1.288.373c-.089.066-.177.134-.266.202-2.719.976-5.413 2.05-7.922 3.478-.234.133-.459.278-.686.419-.526-.491-1.279-.719-2.188-.411a674.653 674.653 0 0 1-28.084 8.83c-1.709.497-3.818.789-4.915 2.353-1.025 1.462-.574 3.296.479 4.604 1.109 1.384 2.757 1.916 4.013 3.092 1.497 1.404 2.299 3.81 3.223 5.601.888 1.72 3.275 1.45 4.227 0 1.559-2.375 4.196-3.597 6.6-4.946 2.484-1.395 4.636-3.07 6.767-4.954 2.306-2.039 4.312-3.34 7.208-4.374 1.672-.597 3.249-1.455 4.284-2.78.646.4 1.492.474 2.381-.049a24.676 24.676 0 0 0 4.579-3.472 2.46 2.46 0 0 0 .602-.875 2.63 2.63 0 0 0 .995-.512c.227-.183.429-.375.618-.57l1.684-1.557c.255-.129.513-.253.784-.374 2.474-1.097.788-5.221-1.75-4.51"></path><path fill="#FFF" d="M383.414 170.229c3.604-22.675 10.435-44.88 27.798-61.729 5.694-5.241 13.64-7.003 21.471-5.823 9.465 2.146 15.151 9.373 19.647 17.306 0 0 10.646 16.193 11.118 30.597l-.387-4.107"></path><path fill="none" stroke="#3F3F3F" stroke-width="2.936" stroke-miterlimit="10" d="M383.414 170.229c3.604-22.675 10.435-44.88 27.798-61.729 5.694-5.241 13.64-7.003 21.471-5.823 9.465 2.146 15.151 9.373 19.647 17.306 0 0 10.646 16.193 11.118 30.597l-.387-4.107"></path><path fill="#FFF" d="M392.014 183.516c8.28 4.674 16.742 9.125 25.49 12.966 13.673 6.004 31.6 12.933 46.847 8.819 8.102-2.185 13.688-8.179 15.837-15.814 2.166-7.695-.005-14.812-2.926-22.032 0 0-8.824-20.449-28.318-22.492"></path><path fill="none" stroke="#3F3F3F" stroke-width="2.936" stroke-miterlimit="10" d="M392.014 183.516c8.28 4.674 16.742 9.125 25.49 12.966 13.673 6.004 31.6 12.933 46.847 8.819 8.102-2.185 13.688-8.179 15.837-15.814 2.166-7.695-.005-14.812-2.926-22.032 0 0-8.824-20.449-28.318-22.492"></path><path fill="#3F3F3F" d="M385.23 172.089s20.119-7.91 32.812-33.537c12.69-25.628-5.877 28.359-30.11 37.713M391.442 181.964s10.996-6.354 28.265-3.303c17.269 3.053-16.252-7.058-29.411.657M445.673 175.104s-15.271-6.064-44.28-2.396c0 0 33.02-6.862 44.28 2.396"></path><path fill="#FFF" d="M116.217 330.026c-3.59 22.59-10.394 44.711-27.692 61.497-5.672 5.222-13.588 6.977-21.39 5.8-9.429-2.137-15.094-9.337-19.574-17.241 0 0-10.605-16.132-11.075-30.48l.386 4.092"></path><path fill="none" stroke="#3F3F3F" stroke-width="2.936" stroke-miterlimit="10" d="M116.217 330.026c-3.59 22.59-10.394 44.711-27.692 61.497-5.672 5.222-13.588 6.977-21.39 5.8-9.429-2.137-15.094-9.337-19.574-17.241 0 0-10.605-16.132-11.075-30.48l.386 4.092"></path><path fill="#FFF" d="M107.65 316.789c-8.25-4.655-16.679-9.09-25.394-12.916-13.621-5.982-31.481-12.885-46.67-8.786-8.07 2.177-13.637 8.148-15.777 15.755-2.157 7.666.005 14.757 2.913 21.949 0 0 8.793 20.371 28.213 22.406"></path><path fill="none" stroke="#3F3F3F" stroke-width="2.936" stroke-miterlimit="10" d="M107.65 316.789c-8.25-4.655-16.679-9.09-25.394-12.916-13.621-5.982-31.481-12.885-46.67-8.786-8.07 2.177-13.637 8.148-15.777 15.755-2.157 7.666.005 14.757 2.913 21.949 0 0 8.793 20.371 28.213 22.406"></path><path fill="#FFF" d="M116.608 327.979c-4.432-1.953-7.635-5.491-8.925-10.182-.597-2.17-4.33-2.488-4.719 0-.062.393-.11.783-.153 1.173-.601-.308-1.284-.504-2.035-.594-.495-.059-1.035.154-1.467.483-.982.28-1.86 1.109-1.961 2.281-2.06 1.581-5.049 1.23-7.275 3.036-1.755 1.427-2.788 3.438-3.521 5.547-.484-.075-1.021.047-1.562.455-3.427 2.586-7.85 3.201-11.529 5.364-3.507 2.062-6.378 4.917-8.661 8.265-1.274 1.869.823 4.037 2.763 3.596 3.885-.887 7.173-3.273 11.027-4.265 3.96-1.018 7.734-2.034 11.553-3.52 8.346-3.247 17.205-5.028 25.879-7.169 1.901-.466 2.557-3.601.586-4.47"></path><path fill="#3F3F3F" d="M114.409 328.173s-20.043 7.881-32.688 33.412c-12.644 25.53 5.853-28.254 29.996-37.571M108.22 318.335s-10.955 6.332-28.159 3.291c-17.203-3.041 16.191 7.031 29.299-.653M54.193 325.171s15.212 6.041 44.114 2.387c0 0-32.896 6.836-44.114-2.387"></path><path fill="#FFF" d="M302.927 152.399l-167.91 86.333c-31.407 16.147-43.193 53.766-26.19 83.596 17.002 29.83 56.61 41.023 88.019 24.876l167.91-86.333c31.406-16.148 43.193-53.767 26.19-83.597-17.003-29.83-56.611-41.024-88.019-24.875"></path><path fill="none" stroke="#3F3F3F" stroke-width="2.936" stroke-miterlimit="10" d="M302.927 152.399l-167.91 86.333c-31.407 16.147-43.193 53.766-26.19 83.596 17.002 29.83 56.61 41.023 88.019 24.876l167.91-86.333c31.406-16.148 43.193-53.767 26.19-83.597-17.003-29.83-56.611-41.024-88.019-24.875z"></path><path fill="#3F3F3F" d="M130.967 241.001s49.396 49.902 56.854 110.029l26.883-13.009s-8.815-67.696-58.844-110.005l-24.893 12.985zM115.436 253.339l-.122.062c-.51.926-1.146 1.682-1.865 2.391-.354.476-.721.937-1.098 1.389a4.179 4.179 0 0 1-.441 1.586c-1.558 3.128-3.931 5.714-5.898 8.581-1.333 4.002-2.666 8.001-4.132 11.958 11.82 14.646 29.955 40.451 39.7 71.036.185.091.37.191.556.316 2.748 1.827 6.271 2.209 9.474 2.875l.712.147c4.07.213 8.152.664 11.919 1.614.379-.083.76-.159 1.144-.227 2.362-.415 4.82-.162 7.141-.688.033-.007.065-.011.098-.017-4.283-19.801-18.255-68.097-57.188-101.023M173.11 219.763s49.396 49.9 56.854 110.03l26.884-13.01s-8.817-67.697-58.845-110.006l-24.893 12.986zM216.114 196.89s49.395 49.902 56.854 110.031l26.883-13.011s-8.816-67.696-58.845-110.005l-24.892 12.985zM260.837 174.018s49.396 49.901 56.854 110.03l26.883-13.01s-8.816-67.696-58.845-110.005l-24.892 12.985zM302.788 153.849s52.813 47.47 59.52 108.28c0 0 15.916-8.278 22.923-17.844 0 0-16.799-52.121-44.254-80.774-6.548-6.835-8.994-13.197-17.804-17.602 0 0-14.923 2.646-21.095 6.927l.71 1.013zM384.307 166.939l1.629 2.501c1.288 1.468 2 2.379 2 2.379s-1.245-1.857-2.752-4.094a4.187 4.187 0 0 1-.877-.786M388.05 172.682l-2.114-3.241c-5.42-6.174-21.145-22.301-38.091-22.953 0 0 44.554 31.955 47.053 80.922-.001 0 11.329-26.91-6.848-54.728"></path><path fill="#FFF" d="M354.609 197.329c-12.098-21.226-60.511-18.583-108.13 5.901-47.62 24.484-76.417 61.539-64.318 82.764 12.098 21.225 60.509 18.584 108.13-5.901 47.62-24.484 76.416-61.539 64.318-82.764"></path><path fill="none" stroke="#3F3F3F" stroke-width="2.936" stroke-miterlimit="10" d="M354.609 197.329c-12.098-21.226-60.511-18.583-108.13 5.901-47.62 24.484-76.417 61.539-64.318 82.764 12.098 21.225 60.509 18.584 108.13-5.901 47.62-24.484 76.416-61.539 64.318-82.764z"></path></svg> 