<?xml version="1.0" encoding="UTF-8"?> <svg xmlns="http://www.w3.org/2000/svg" width="500" height="500" viewBox="0 0 500 500"><path fill="#3F3F3F" d="M287.283 258.396L448.012 69.743s32.009-7.492 31.328 23.837L302.267 258.396h-14.984z"></path><path fill="none" stroke="#FFF" stroke-width="2.043" stroke-miterlimit="10" d="M287.283 258.396L448.012 69.743s32.009-7.492 31.328 23.837L302.267 258.396h-14.984z"></path><path fill="#FFF" d="M313.162 233.877c-12.393 0-22.474-10.083-22.474-22.475 0-12.392 10.081-22.475 22.474-22.475 12.394 0 22.475 10.083 22.475 22.475 0 12.392-10.081 22.475-22.475 22.475"></path><path fill="#3F3F3F" d="M313.162 189.949c11.831 0 21.453 9.624 21.453 21.453 0 11.83-9.622 21.453-21.453 21.453-11.829 0-21.453-9.623-21.453-21.453 0-11.829 9.624-21.453 21.453-21.453m0-2.043c-12.976 0-23.496 10.52-23.496 23.496 0 12.977 10.521 23.497 23.496 23.497 12.977 0 23.497-10.52 23.497-23.497 0-12.976-10.52-23.496-23.497-23.496"></path><path fill="#FFF" d="M249.144 235.92c-12.393 0-22.474-10.082-22.474-22.475s10.081-22.475 22.474-22.475c12.392 0 22.476 10.082 22.476 22.475s-10.085 22.475-22.476 22.475"></path><path fill="#3F3F3F" d="M249.144 191.992c11.829 0 21.453 9.624 21.453 21.453s-9.624 21.453-21.453 21.453-21.454-9.624-21.454-21.453 9.624-21.453 21.454-21.453m0-2.043c-12.977 0-23.497 10.52-23.497 23.496 0 12.977 10.521 23.497 23.497 23.497s23.496-10.52 23.496-23.497c0-12.976-10.52-23.496-23.496-23.496"></path><path fill="#FFF" d="M282.515 235.92c-12.392 0-22.475-10.082-22.475-22.475s10.083-22.475 22.475-22.475c12.394 0 22.476 10.082 22.476 22.475s-10.083 22.475-22.476 22.475"></path><path fill="#3F3F3F" d="M282.515 191.992c11.829 0 21.453 9.624 21.453 21.453s-9.624 21.453-21.453 21.453c-11.828 0-21.453-9.624-21.453-21.453s9.625-21.453 21.453-21.453m0-2.043c-12.977 0-23.496 10.52-23.496 23.496 0 12.977 10.52 23.497 23.496 23.497 12.978 0 23.497-10.52 23.497-23.497 0-12.976-10.52-23.496-23.497-23.496"></path><path fill="#FFF" d="M131.321 230.472c-12.393 0-22.474-10.083-22.474-22.476 0-12.392 10.081-22.474 22.474-22.474s22.475 10.082 22.475 22.474c0 12.393-10.083 22.476-22.475 22.476"></path><path fill="#3F3F3F" d="M131.321 186.544c11.829 0 21.454 9.624 21.454 21.453 0 11.83-9.625 21.454-21.454 21.454s-21.454-9.624-21.454-21.454 9.625-21.453 21.454-21.453m0-2.043c-12.977 0-23.496 10.52-23.496 23.496 0 12.978 10.519 23.497 23.496 23.497 12.977 0 23.497-10.519 23.497-23.497-.001-12.976-10.521-23.496-23.497-23.496"></path><path fill="#FFF" d="M163.331 226.385c-12.393 0-22.475-10.082-22.475-22.475 0-12.392 10.082-22.475 22.475-22.475 12.392 0 22.475 10.083 22.475 22.475-.001 12.393-10.083 22.475-22.475 22.475"></path><path fill="#3F3F3F" d="M163.331 182.458c11.83 0 21.453 9.624 21.453 21.453s-9.624 21.454-21.453 21.454c-11.829 0-21.453-9.624-21.453-21.454s9.623-21.453 21.453-21.453m0-2.044c-12.977 0-23.497 10.52-23.497 23.497s10.52 23.497 23.497 23.497 23.497-10.52 23.497-23.497-10.521-23.497-23.497-23.497"></path><path fill="#FFF" d="M192.616 226.385c-12.393 0-22.475-10.082-22.475-22.475 0-12.392 10.082-22.475 22.475-22.475 12.392 0 22.475 10.083 22.475 22.475 0 12.393-10.083 22.475-22.475 22.475"></path><path fill="#3F3F3F" d="M192.616 182.458c11.829 0 21.453 9.624 21.453 21.453s-9.624 21.454-21.453 21.454-21.453-9.624-21.453-21.454 9.624-21.453 21.453-21.453m0-2.044c-12.977 0-23.496 10.52-23.496 23.497s10.52 23.497 23.496 23.497 23.497-10.52 23.497-23.497-10.521-23.497-23.497-23.497"></path><path fill="#FFF" d="M223.263 230.472c-12.393 0-22.475-10.083-22.475-22.476 0-12.392 10.082-22.474 22.475-22.474s22.475 10.082 22.475 22.474c0 12.393-10.082 22.476-22.475 22.476"></path><path fill="#3F3F3F" d="M223.263 186.544c11.83 0 21.453 9.624 21.453 21.453 0 11.83-9.624 21.454-21.453 21.454-11.829 0-21.453-9.624-21.453-21.454s9.624-21.453 21.453-21.453m0-2.043c-12.977 0-23.496 10.52-23.496 23.496 0 12.978 10.52 23.497 23.496 23.497s23.497-10.519 23.497-23.497c0-12.976-10.52-23.496-23.497-23.496"></path><path fill="#FFF" d="M328.146 246.136c-12.394 0-22.475-10.082-22.475-22.475s10.081-22.475 22.475-22.475c12.391 0 22.474 10.082 22.474 22.475s-10.083 22.475-22.474 22.475"></path><path fill="#3F3F3F" d="M328.146 202.208c11.829 0 21.453 9.625 21.453 21.454s-9.624 21.453-21.453 21.453c-11.831 0-21.453-9.624-21.453-21.453s9.622-21.454 21.453-21.454m0-2.043c-12.977 0-23.496 10.52-23.496 23.496s10.52 23.497 23.496 23.497c12.976 0 23.496-10.52 23.496-23.497s-10.52-23.496-23.496-23.496"></path><path fill="#FFF" d="M375.139 246.136c-12.394 0-22.474-10.082-22.474-22.475s10.08-22.475 22.474-22.475c12.392 0 22.475 10.082 22.475 22.475s-10.084 22.475-22.475 22.475"></path><path fill="#3F3F3F" d="M375.139 202.208c11.829 0 21.453 9.625 21.453 21.454s-9.624 21.453-21.453 21.453c-11.83 0-21.454-9.624-21.454-21.453s9.624-21.454 21.454-21.454m0-2.043c-12.977 0-23.496 10.52-23.496 23.496s10.52 23.497 23.496 23.497 23.497-10.52 23.497-23.497-10.521-23.496-23.497-23.496"></path><path fill="#FFF" d="M212.366 239.326c-12.393 0-22.474-10.083-22.474-22.476 0-12.392 10.082-22.474 22.474-22.474 12.393 0 22.475 10.082 22.475 22.474 0 12.393-10.082 22.476-22.475 22.476"></path><path fill="#3F3F3F" d="M212.366 195.397c11.83 0 21.454 9.624 21.454 21.453 0 11.83-9.625 21.454-21.454 21.454s-21.453-9.624-21.453-21.454c0-11.829 9.625-21.453 21.453-21.453m0-2.043c-12.977 0-23.497 10.521-23.497 23.497 0 12.978 10.52 23.497 23.497 23.497s23.496-10.519 23.496-23.497c0-12.977-10.519-23.497-23.496-23.497"></path><path fill="#FFF" d="M178.313 239.326c-12.392 0-22.475-10.083-22.475-22.476 0-12.392 10.083-22.474 22.475-22.474 12.393 0 22.475 10.082 22.475 22.474.001 12.393-10.082 22.476-22.475 22.476"></path><path fill="#3F3F3F" d="M178.313 195.397c11.83 0 21.454 9.624 21.454 21.453 0 11.83-9.624 21.454-21.454 21.454-11.829 0-21.453-9.624-21.453-21.454.001-11.829 9.624-21.453 21.453-21.453m0-2.043c-12.977 0-23.496 10.521-23.496 23.497 0 12.978 10.52 23.497 23.496 23.497s23.497-10.519 23.497-23.497c0-12.977-10.52-23.497-23.497-23.497"></path><path fill="#FFF" d="M149.709 238.644c-12.393 0-22.475-10.082-22.475-22.474 0-12.393 10.082-22.475 22.475-22.475 12.392 0 22.475 10.082 22.475 22.475.001 12.392-10.082 22.474-22.475 22.474"></path><path fill="#3F3F3F" d="M149.709 194.716c11.829 0 21.453 9.624 21.453 21.454 0 11.829-9.625 21.453-21.453 21.453-11.83 0-21.454-9.624-21.454-21.453.001-11.83 9.625-21.454 21.454-21.454m0-2.043c-12.977 0-23.496 10.52-23.496 23.497s10.519 23.497 23.496 23.497c12.977 0 23.497-10.52 23.497-23.497s-10.52-23.497-23.497-23.497"></path><path fill="#FFF" d="M116.338 239.326c-12.393 0-22.475-10.083-22.475-22.476 0-12.392 10.082-22.474 22.475-22.474s22.475 10.082 22.475 22.474c-.001 12.393-10.083 22.476-22.475 22.476"></path><path fill="#3F3F3F" d="M116.338 195.397c11.829 0 21.453 9.624 21.453 21.453 0 11.83-9.625 21.454-21.453 21.454-11.83 0-21.453-9.624-21.453-21.454 0-11.829 9.623-21.453 21.453-21.453m0-2.043c-12.977 0-23.497 10.521-23.497 23.497 0 12.978 10.52 23.497 23.497 23.497 12.976 0 23.496-10.519 23.496-23.497 0-12.977-10.52-23.497-23.496-23.497"></path><path fill="#FFF" d="M88.414 246.136c-12.393 0-22.475-10.082-22.475-22.475s10.082-22.475 22.475-22.475 22.476 10.082 22.476 22.475-10.083 22.475-22.476 22.475"></path><path fill="#3F3F3F" d="M88.414 202.208c11.83 0 21.453 9.625 21.453 21.454s-9.624 21.453-21.453 21.453c-11.829 0-21.453-9.624-21.453-21.453s9.624-21.454 21.453-21.454m0-2.043c-12.977 0-23.496 10.52-23.496 23.496s10.52 23.497 23.496 23.497c12.977 0 23.496-10.52 23.496-23.497s-10.519-23.496-23.496-23.496"></path><path fill="#FFF" d="M64.578 254.309c-12.393 0-22.476-10.083-22.476-22.475 0-12.392 10.083-22.475 22.476-22.475 12.392 0 22.474 10.083 22.474 22.475 0 12.392-10.082 22.475-22.474 22.475"></path><path fill="#3F3F3F" d="M64.578 210.381c11.828 0 21.453 9.624 21.453 21.453 0 11.83-9.625 21.454-21.453 21.454-11.83 0-21.454-9.624-21.454-21.454.001-11.83 9.624-21.453 21.454-21.453m0-2.044c-12.978 0-23.497 10.52-23.497 23.496 0 12.978 10.519 23.498 23.497 23.498 12.976 0 23.496-10.52 23.496-23.498 0-12.976-10.52-23.496-23.496-23.496"></path><path fill="#FFF" d="M135.408 254.309c-12.393 0-22.475-10.083-22.475-22.475 0-12.392 10.082-22.475 22.475-22.475 12.392 0 22.474 10.083 22.474 22.475 0 12.392-10.082 22.475-22.474 22.475"></path><path fill="#3F3F3F" d="M135.408 210.381c11.829 0 21.453 9.624 21.453 21.453 0 11.83-9.625 21.454-21.453 21.454-11.83 0-21.454-9.624-21.454-21.454s9.624-21.453 21.454-21.453m0-2.044c-12.978 0-23.498 10.52-23.498 23.496 0 12.978 10.52 23.498 23.498 23.498 12.976 0 23.496-10.52 23.496-23.498 0-12.976-10.52-23.496-23.496-23.496"></path><path fill="#FFF" d="M163.331 254.309c-12.393 0-22.475-10.083-22.475-22.475 0-12.392 10.082-22.475 22.475-22.475 12.392 0 22.475 10.083 22.475 22.475-.001 12.392-10.083 22.475-22.475 22.475"></path><path fill="#3F3F3F" d="M163.331 210.381c11.83 0 21.453 9.624 21.453 21.453 0 11.83-9.624 21.454-21.453 21.454-11.829 0-21.453-9.624-21.453-21.454-.001-11.83 9.623-21.453 21.453-21.453m0-2.044c-12.977 0-23.497 10.52-23.497 23.496 0 12.978 10.52 23.498 23.497 23.498s23.497-10.52 23.497-23.498c-.001-12.976-10.521-23.496-23.497-23.496"></path><path fill="#FFF" d="M198.064 257.714c-12.393 0-22.475-10.082-22.475-22.475s10.082-22.475 22.475-22.475c12.392 0 22.475 10.082 22.475 22.475s-10.083 22.475-22.475 22.475"></path><path fill="#3F3F3F" d="M198.064 213.786c11.83 0 21.453 9.624 21.453 21.454 0 11.829-9.623 21.452-21.453 21.452-11.829 0-21.453-9.623-21.453-21.452 0-11.83 9.624-21.454 21.453-21.454m0-2.044c-12.977 0-23.496 10.52-23.496 23.497s10.52 23.495 23.496 23.495c12.977 0 23.497-10.519 23.497-23.495 0-12.977-10.52-23.497-23.497-23.497"></path><path fill="#FFF" d="M251.187 254.309c-12.393 0-22.475-10.083-22.475-22.475 0-12.392 10.082-22.475 22.475-22.475 12.392 0 22.475 10.083 22.475 22.475-.001 12.392-10.084 22.475-22.475 22.475"></path><path fill="#3F3F3F" d="M251.187 210.381c11.83 0 21.453 9.624 21.453 21.453 0 11.83-9.623 21.454-21.453 21.454-11.829 0-21.453-9.624-21.453-21.454s9.623-21.453 21.453-21.453m0-2.044c-12.977 0-23.497 10.52-23.497 23.496 0 12.978 10.52 23.498 23.497 23.498s23.497-10.52 23.497-23.498c0-12.976-10.521-23.496-23.497-23.496"></path><path fill="#FFF" d="M275.023 254.309c-12.393 0-22.476-10.083-22.476-22.475 0-12.392 10.083-22.475 22.476-22.475s22.476 10.083 22.476 22.475c0 12.392-10.083 22.475-22.476 22.475"></path><path fill="#3F3F3F" d="M275.023 210.381c11.83 0 21.454 9.624 21.454 21.453 0 11.83-9.624 21.454-21.454 21.454-11.829 0-21.454-9.624-21.454-21.454s9.625-21.453 21.454-21.453m0-2.044c-12.977 0-23.496 10.52-23.496 23.496 0 12.978 10.52 23.498 23.496 23.498 12.976 0 23.497-10.52 23.497-23.498.001-12.976-10.521-23.496-23.497-23.496"></path><path fill="#FFF" d="M313.162 257.714c-12.393 0-22.474-10.082-22.474-22.475s10.081-22.475 22.474-22.475c12.394 0 22.475 10.082 22.475 22.475s-10.081 22.475-22.475 22.475"></path><path fill="#3F3F3F" d="M313.162 213.786c11.831 0 21.453 9.624 21.453 21.454 0 11.829-9.622 21.452-21.453 21.452-11.829 0-21.453-9.623-21.453-21.452 0-11.83 9.624-21.454 21.453-21.454m0-2.044c-12.976 0-23.496 10.52-23.496 23.497s10.521 23.495 23.496 23.495c12.977 0 23.497-10.519 23.497-23.495 0-12.977-10.52-23.497-23.497-23.497"></path><path fill="#FFF" d="M343.81 254.309c-12.392 0-22.475-10.083-22.475-22.475 0-12.392 10.083-22.475 22.475-22.475 12.394 0 22.475 10.083 22.475 22.475-.001 12.392-10.082 22.475-22.475 22.475"></path><path fill="#3F3F3F" d="M343.81 210.381c11.83 0 21.453 9.624 21.453 21.453 0 11.83-9.623 21.454-21.453 21.454-11.828 0-21.453-9.624-21.453-21.454-.001-11.83 9.624-21.453 21.453-21.453m0-2.044c-12.977 0-23.496 10.52-23.496 23.496 0 12.978 10.52 23.498 23.496 23.498 12.978 0 23.497-10.52 23.497-23.498 0-12.976-10.52-23.496-23.497-23.496"></path><path fill="#FFF" d="M360.155 254.309c-12.394 0-22.475-10.083-22.475-22.475 0-12.392 10.081-22.475 22.475-22.475s22.475 10.083 22.475 22.475c0 12.392-10.081 22.475-22.475 22.475"></path><path fill="#3F3F3F" d="M360.155 210.381c11.829 0 21.453 9.624 21.453 21.453 0 11.83-9.624 21.454-21.453 21.454s-21.454-9.624-21.454-21.454 9.625-21.453 21.454-21.453m0-2.044c-12.977 0-23.496 10.52-23.496 23.496 0 12.978 10.52 23.498 23.496 23.498 12.976 0 23.496-10.52 23.496-23.498 0-12.976-10.52-23.496-23.496-23.496"></path><path fill="#FFF" d="M390.804 262.481c-12.393 0-22.477-10.083-22.477-22.475 0-12.393 10.084-22.475 22.477-22.475 12.392 0 22.475 10.083 22.475 22.475-.001 12.392-10.084 22.475-22.475 22.475"></path><path fill="#3F3F3F" d="M390.804 218.553c11.828 0 21.451 9.624 21.451 21.454 0 11.829-9.623 21.453-21.451 21.453-11.83 0-21.454-9.624-21.454-21.453 0-11.83 9.624-21.454 21.454-21.454m0-2.043c-12.978 0-23.497 10.52-23.497 23.497 0 12.978 10.52 23.496 23.497 23.496 12.976 0 23.496-10.519 23.496-23.496 0-12.977-10.521-23.497-23.496-23.497"></path><path fill="#FFF" d="M410.553 257.714c-12.393 0-22.474-10.082-22.474-22.475s10.081-22.475 22.474-22.475c12.394 0 22.476 10.082 22.476 22.475-.001 12.393-10.083 22.475-22.476 22.475"></path><path fill="#3F3F3F" d="M410.553 213.786c11.831 0 21.454 9.624 21.454 21.454 0 11.829-9.623 21.452-21.454 21.452-11.828 0-21.453-9.623-21.453-21.452 0-11.83 9.625-21.454 21.453-21.454m0-2.044c-12.976 0-23.495 10.52-23.495 23.497s10.52 23.495 23.495 23.495c12.978 0 23.497-10.519 23.497-23.495 0-12.977-10.52-23.497-23.497-23.497"></path><path fill="#FFF" d="M221.22 257.714c-12.393 0-22.475-10.082-22.475-22.475s10.082-22.475 22.475-22.475 22.475 10.082 22.475 22.475-10.082 22.475-22.475 22.475"></path><path fill="#3F3F3F" d="M221.22 213.786c11.83 0 21.453 9.624 21.453 21.454 0 11.829-9.624 21.452-21.453 21.452-11.829 0-21.453-9.623-21.453-21.452 0-11.83 9.624-21.454 21.453-21.454m0-2.044c-12.977 0-23.497 10.52-23.497 23.497s10.52 23.495 23.497 23.495c12.976 0 23.496-10.519 23.496-23.495 0-12.977-10.52-23.497-23.496-23.497"></path><path fill="#FFF" d="M101.355 254.309c-12.393 0-22.476-10.083-22.476-22.475 0-12.392 10.083-22.475 22.476-22.475 12.392 0 22.474 10.083 22.474 22.475 0 12.392-10.082 22.475-22.474 22.475"></path><path fill="#3F3F3F" d="M101.355 210.381c11.829 0 21.453 9.624 21.453 21.453 0 11.83-9.624 21.454-21.453 21.454-11.83 0-21.454-9.624-21.454-21.454s9.624-21.453 21.454-21.453m0-2.044c-12.978 0-23.497 10.52-23.497 23.496 0 12.978 10.519 23.498 23.497 23.498 12.976 0 23.496-10.52 23.496-23.498 0-12.976-10.52-23.496-23.496-23.496"></path><path fill="#3F3F3F" d="M148.676 408.211C71.515 379.234 21.671 313.497 21.671 240.687c0-1.355.021-2.792.066-4.365h421.439c.045 1.564.067 3.001.067 4.365 0 72.81-49.844 138.547-127.006 167.524H148.676z"></path><path fill="#FFF" d="M442.183 237.343c.026 1.18.04 2.286.04 3.344 0 36.07-12.203 70.917-35.292 100.775-22.491 29.088-53.91 51.81-90.878 65.726H148.862c-36.967-13.916-68.386-36.638-90.878-65.726-23.088-29.858-35.29-64.705-35.29-100.775 0-1.058.012-2.163.04-3.344h419.449m1.985-2.043H20.748a163.552 163.552 0 0 0-.098 5.388c0 75.517 52.634 140.369 127.841 168.544h167.933c75.208-28.175 127.842-93.027 127.842-168.544 0-1.802-.038-3.598-.098-5.388"></path><path fill="#3F3F3F" d="M155.498 430.021c-3.943 0-7.151-3.207-7.151-7.15v-4.769c0-3.942 3.208-7.149 7.151-7.149h156.643c3.944 0 7.151 3.207 7.151 7.149v4.769c0 3.943-3.207 7.15-7.151 7.15H155.498z"></path><path fill="#FFF" d="M312.141 411.973c3.379 0 6.13 2.75 6.13 6.129v4.769a6.137 6.137 0 0 1-6.13 6.129H155.498a6.136 6.136 0 0 1-6.129-6.129v-4.769a6.137 6.137 0 0 1 6.129-6.129h156.643m0-2.043H155.498c-4.495 0-8.172 3.679-8.172 8.172v4.769c0 4.495 3.678 8.172 8.172 8.172h156.643c4.495 0 8.173-3.677 8.173-8.172v-4.769c-.001-4.494-3.678-8.172-8.173-8.172"></path></svg> 