<?xml version="1.0" encoding="UTF-8"?> <svg xmlns="http://www.w3.org/2000/svg" width="131.185" height="131.184" viewBox="0 0 131.185 131.184"><path fill="#3F3F3F" d="M104.917 60.178c0-2.707-1.149-5.003-2.953-6.397-1.846-1.477-4.594-2.215-8.448-2.215-3.814 0-6.521.246-8.449.575v27.273h6.193v-9.925c.574.123 1.312.163 2.133.163 3.69 0 6.849-.942 8.981-2.911 1.681-1.518 2.543-3.856 2.543-6.563zm-11.566 4.676c-.942 0-1.558-.041-2.091-.164v-8.162c.451-.123 1.312-.205 2.542-.205 3.158 0 4.922 1.518 4.922 4.061 0 2.788-2.05 4.47-5.373 4.47zM28.884 82.24h1.197c6.274 13.33 19.83 22.582 35.512 22.582 15.682 0 29.237-9.252 35.512-22.582h1.196c-6.349 13.943-20.414 23.661-36.708 23.661s-30.36-9.718-36.709-23.661zm36.709 17.948c13.044 0 24.423-7.26 30.315-17.948h3.042c-6.127 12.228-18.774 20.646-33.357 20.646-14.583 0-27.23-8.419-33.358-20.646h3.042c5.892 10.688 17.271 17.948 30.316 17.948zm-3.696-48.417l2.707 9.227a119.244 119.244 0 0 1 2.338 9.884h.164c.738-3.199 1.682-6.849 2.625-9.924l2.912-9.187h8.202l1.477 27.642h-6.07l-.452-10.58c-.123-3.322-.246-7.342-.246-11.361h-.081a175.247 175.247 0 0 1-3.117 10.705l-3.363 10.786h-4.88L61.16 68.3c-.902-3.281-1.805-7.218-2.501-10.828h-.082a836.039 836.039 0 0 1-.451 11.443l-.533 10.499H51.81l1.764-27.642h8.323zm39.045-3.183c-6.347-13.14-19.807-22.226-35.35-22.226s-29.003 9.086-35.35 22.226H29.05c6.425-13.752 20.388-23.305 36.542-23.305 16.153 0 30.116 9.553 36.541 23.305h-1.191zM65.593 30.996c-12.898 0-24.162 7.1-30.111 17.592h-3.064c6.194-12.034 18.734-20.29 33.175-20.29 14.44 0 26.98 8.255 33.175 20.29h-3.064C89.755 38.096 78.49 30.996 65.593 30.996zm-24.57 20.488c3.568 0 6.315.697 7.669 1.312l-1.313 5.044c-1.517-.697-3.363-1.189-6.397-1.189-5.208 0-9.187 2.912-9.187 8.941 0 5.741 3.609 9.063 8.735 9.063 1.395 0 2.543-.164 3.035-.369v-5.823H39.3v-4.881h10.294v14.56c-1.927.656-5.578 1.559-9.228 1.559-5.044 0-8.695-1.271-11.237-3.691-2.502-2.419-3.896-6.028-3.896-10.089.042-9.187 6.727-14.437 15.79-14.437zM65.593 0C29.425 0 0 29.425 0 65.592c0 36.168 29.425 65.592 65.593 65.592s65.592-29.424 65.592-65.592C131.185 29.425 101.761 0 65.593 0zm0 128.487c-34.68 0-62.895-28.215-62.895-62.895 0-34.68 28.215-62.895 62.895-62.895 34.68 0 62.895 28.214 62.895 62.895-.001 34.68-28.216 62.895-62.895 62.895zm0-123.853C31.98 4.634 4.634 31.98 4.634 65.592S31.98 126.55 65.593 126.55c33.612 0 60.959-27.346 60.959-60.958S99.205 4.634 65.593 4.634zm0 120.837c-33.018 0-59.879-26.861-59.879-59.879 0-33.017 26.861-59.879 59.879-59.879s59.88 26.862 59.88 59.879c0 33.018-26.863 59.879-59.88 59.879zm-41.948-30.45l-.025.033c-.903.544-1.78.62-2.633.229s-1.629-1.193-2.328-2.408c-.713-1.237-.983-2.405-.81-3.503.173-1.099.75-1.93 1.729-2.493l1.672-.963c.975-.562 1.975-.657 2.997-.285 1.023.373 1.876 1.152 2.56 2.34.731 1.27 1.061 2.388.987 3.354s-.566 1.701-1.479 2.202l-.045-.001-1.303-2.263c.491-.282.768-.616.83-1s-.078-.873-.421-1.47c-.301-.522-.7-.826-1.196-.913-.497-.086-1.024.031-1.581.353l-1.683.97c-.561.322-.922.735-1.083 1.236-.16.502-.076 1.039.254 1.611.307.532.634.854.982.968.349.114.772.027 1.271-.26l1.305 2.263zm10.218 9.982c-.797.813-1.775 1.168-2.937 1.064s-2.261-.664-3.3-1.682c-1.047-1.025-1.637-2.12-1.771-3.284s.198-2.153.995-2.966l1.164-1.188c.793-.811 1.773-1.162 2.94-1.057 1.166.105 2.271.669 3.314 1.69 1.035 1.015 1.619 2.104 1.751 3.27.131 1.166-.199 2.154-.993 2.964l-1.163 1.189zm-.738-3.068c.462-.472.702-.994.72-1.568.018-.574-.226-1.11-.732-1.605-.518-.508-1.061-.745-1.63-.712-.568.032-1.085.286-1.55.761l-1.172 1.197c-.468.478-.711 1.003-.729 1.577-.019.575.231 1.115.749 1.623.502.492 1.04.722 1.612.689.572-.032 1.092-.287 1.56-.765l1.172-1.197zm9.9 9.819l.043.021 5.185-4.667 3.187 1.557-4.056 8.305-2.41-1.177 2.613-5.35-.04-.027-4.904 4.238-1.619-.79.331-6.373-.045-.016-2.574 5.271-2.41-1.177 4.056-8.305 3.158 1.542-.515 6.948zm13.762 4.083l-.446 3.136-2.655-.378 1.302-9.15 4.368.622c1.356.192 2.393.622 3.111 1.289.717.666 1.012 1.45.883 2.351-.128.9-.629 1.57-1.504 2.008s-1.99.56-3.346.366l-1.713-.244zm.233-1.633l1.712.243c.576.082 1.034.018 1.374-.192s.538-.514.595-.912c.058-.406-.045-.761-.31-1.063s-.687-.495-1.268-.578l-1.712-.244-.391 2.746zm13.125 3.698l4.932-.513.172 1.642-7.602.79-.955-9.193 2.668-.277.785 7.551zm11.91-.696l-2.566.748-2.588-8.872 2.568-.749 2.586 8.873zm9.478-6.099l-3.039 1.602.246 1.899-2.498 1.316-.973-9.934 1.271-.669.002.005.004-.009 1.271-.669 7.648 6.417-2.5 1.316-1.432-1.274zm-3.262-.148l1.945-1.024-2.291-2.035-.043.021.389 3.038zm18.167-9.496l-1.936 1.846-7.074-1.29-.025.042 4.004 4.199-1.941 1.851-6.377-6.689 1.941-1.851 7.068 1.285.025-.042-3.998-4.194 1.934-1.846 6.379 6.689zm1.08-15.138l-1.607 2.597 6.455 3.996-1.412 2.28-6.455-3.995-1.578 2.55-1.402-.868 4.598-7.429 1.401.869zm-88.68-31.286l.01-.046-5.734-3.972.782-3.459 9.015 2.037-.591 2.616-5.808-1.312-.017.045 5.252 3.798-.397 1.757-6.278 1.144-.004.048 5.721 1.292-.591 2.616-9.015-2.037.774-3.428 6.881-1.099zm6.309-13.358l-1.638 3.02 1.261 1.442-1.346 2.483-6.328-7.719.685-1.263.005.003-.001-.01.685-1.263 9.925 1.085-1.347 2.483-1.901-.261zm-2.793 1.69l1.047-1.932-3.036-.419-.023.042 2.012 2.309zm13.11-11.744l-1.801 1.976-7.146-.792-.023.044 4.288 3.909-1.807 1.982-6.83-6.227 1.807-1.982 7.141.788.023-.043-4.283-3.905 1.802-1.976 6.829 6.226zm4.31-14.151l3.287 5.01c.581.885.667 1.818.262 2.8-.405.982-1.199 1.861-2.38 2.636-1.189.781-2.318 1.163-3.385 1.147-1.067-.016-1.891-.466-2.471-1.351l-3.287-5.01 2.249-1.476 3.287 5.01c.313.478.705.737 1.174.778s.979-.119 1.527-.479c.544-.357.888-.756 1.032-1.197.144-.441.058-.902-.258-1.384l-3.287-5.01 2.25-1.474zm12.005 1.114l-3.968 1.463 1.287 3.49-2.516.928-3.198-8.671 7.243-2.671.571 1.549-4.728 1.743.769 2.084 3.968-1.463.572 1.548zm8.793.291l-3.4.492-.402 1.874-2.796.404 2.406-9.687 1.421-.206.001.006.007-.007 1.421-.206 5.062 8.605-2.796.405-.924-1.68zm-3.024-1.23l2.175-.315-1.479-2.685-.047.007-.649 2.993zm16.688.228l.014.04c-.066 1.052-.504 1.817-1.311 2.295s-1.908.66-3.305.543c-1.424-.119-2.537-.562-3.341-1.329s-1.159-1.714-1.065-2.84l.16-1.923c.093-1.122.584-1.997 1.473-2.625s2.016-.887 3.381-.773c1.459.122 2.566.487 3.32 1.098.752.61 1.076 1.434.969 2.469l-.027.036-2.602-.216c.047-.565-.07-.982-.35-1.252-.281-.27-.764-.433-1.449-.49-.6-.05-1.078.104-1.432.464-.354.359-.557.859-.609 1.5L67.9 16.81c-.053.646.08 1.177.4 1.594.322.417.812.653 1.471.708.611.051 1.062-.035 1.355-.256.291-.222.461-.62.51-1.193l2.6.216zm11.045-1.423l-2.92-.896-2.227 7.258-2.564-.787 2.227-7.258-2.867-.88.484-1.578 8.352 2.562-.485 1.579zm11.723 4.476l-3.012 5.181c-.531.915-1.326 1.41-2.387 1.487s-2.201-.24-3.422-.949c-1.23-.715-2.078-1.553-2.541-2.515-.463-.962-.428-1.9.104-2.814l3.012-5.181 2.324 1.352-3.01 5.181c-.287.494-.344.96-.17 1.399.172.438.543.822 1.109 1.152.562.327 1.074.456 1.533.388.459-.069.832-.352 1.121-.85l3.012-5.181 2.327 1.35zm1.201 8.473l-2.457 2.553-1.932-1.859 6.406-6.661 2.9 2.789c.965.928 1.557 1.841 1.777 2.741.221.9.033 1.659-.561 2.278-.332.345-.73.531-1.195.56s-.992-.092-1.584-.361c.398.607.58 1.153.545 1.637-.037.484-.25.928-.637 1.331l-.404.421a2.96 2.96 0 0 0-.475.688c-.15.285-.189.552-.121.8l-.088.091-1.996-1.92c-.061-.241 0-.503.182-.785.184-.282.377-.528.58-.738l.387-.403c.305-.317.434-.66.385-1.03-.049-.369-.275-.749-.678-1.137l-1.034-.995zm1.145-1.189l.977.941c.389.374.754.589 1.098.645.342.056.641-.048.896-.313a1.1 1.1 0 0 0 .312-.962c-.051-.37-.27-.74-.654-1.11l-.967-.93-1.662 1.729zm3.492 11.826l-1.578-2.158 7.459-5.458 1.578 2.158-7.459 5.458zm5.582 10.447l-1.152-2.413 3.422-6.323-.033-.038-5.234 2.502-1.156-2.419 8.338-3.987 1.156 2.42-3.414 6.32.031.038 5.229-2.5 1.152 2.412-8.339 3.988zM112.027 61c-.461-.317-.898-.807-1.312-1.469-.412-.662-.732-1.555-.957-2.681-.283-1.406-.168-2.616.346-3.63s1.32-1.632 2.418-1.853l1.893-.379c1.092-.219 2.068.029 2.934.743.863.714 1.43 1.743 1.699 3.086.291 1.447.252 2.592-.117 3.435-.367.843-1.002 1.341-1.904 1.495l-.041-.008-.494-2.466c.443-.089.744-.303.9-.642s.176-.807.057-1.403c-.123-.612-.416-1.066-.877-1.362-.459-.296-1-.382-1.617-.258l-1.904.382c-.631.126-1.102.414-1.41.861-.311.448-.398 1.006-.264 1.675.098.482.205.856.322 1.121s.244.467.381.607l1.617-.325-.402-2.007 1.395-.28.93 4.637-3.593.721zm-93.7 12.039a2.544 2.544 0 1 1-5.088 0 2.544 2.544 0 0 1 5.088 0zm97.073-2.544a2.545 2.545 0 1 1-.001 5.09 2.545 2.545 0 0 1 .001-5.09z"></path></svg> 