<?xml version="1.0" encoding="UTF-8"?> <svg xmlns="http://www.w3.org/2000/svg" width="500" height="500" viewBox="0 0 500 500"><path fill="#3F3F3F" d="M473.914 152.252L26.535 228.231v194.003L474 347.48l1.084-193.325a23.055 23.055 0 0 1-.771-1.695 10.808 10.808 0 0 1-.399-.208"></path><path fill="none" stroke="#3F3F3F" stroke-width="4.205" stroke-miterlimit="10" d="M473.914 152.252L26.535 228.231v194.003L474 347.48l1.084-193.325a23.055 23.055 0 0 1-.771-1.695 10.808 10.808 0 0 1-.399-.208z"></path><path fill="#FFF" d="M27.937 420.133v-25.232l447.147-74.991v25.932z"></path><path fill="none" stroke="#000" stroke-width=".701" stroke-miterlimit="10" d="M27.937 420.133v-25.232l447.147-74.991v25.932z"></path><path fill="#FFF" d="M27.937 373.176v-25.231l447.147-74.992v25.932z"></path><path fill="none" stroke="#000" stroke-width=".701" stroke-miterlimit="10" d="M27.937 373.176v-25.231l447.147-74.992v25.932z"></path><path fill="#FFF" d="M27.937 327.62v-25.231l447.147-74.992v25.932z"></path><path fill="none" stroke="#000" stroke-width=".701" stroke-miterlimit="10" d="M27.937 327.62v-25.231l447.147-74.992v25.932z"></path><path fill="#FFF" d="M27.937 282.766v-25.232l447.848-74.992v25.933z"></path><path fill="none" stroke="#000" stroke-width=".701" stroke-miterlimit="10" d="M27.937 282.766v-25.232l447.848-74.992v25.933z"></path><path fill="#FFF" d="M475.354 152.917c-.918-.356-1.818-.818-2.573-1.407-3.669-1.448-8.484-1.489-14.271-2.125l-45.988-5.059-108.486-11.935c-8.356-.919-16.774-1.613-25.104-2.762-6.033-.833-16.044-.239-21.67 2.103l-60.49 24.647-110.897 45.188a632706.34 632706.34 0 0 0-38.827 15.82c-11.71 4.771-28.153 8.444-27.788 24.413.157 6.841 8.472 13.265 13.89 9.083 1.569-1.21 2.546-3.017 3.878-4.482 5.077-5.579 13.987-5.106 21.229-2.995 7.243 2.113 14.583 5.458 22.011 4.134 10.974-1.958 18.147-13.385 28.949-16.138 14.659-3.733 29.217 9.769 44.145 7.322 12.007-1.97 20.273-13.598 31.918-17.125 14.664-4.441 30.7 4.95 45.54 1.14 11.855-3.044 20.917-14.077 33.102-15.239 10.933-1.042 21.272 6.25 32.242 5.719 13.862-.671 24.367-13.367 37.942-16.243 14.206-3.009 29.914 5.118 43.072-1.025 3.896-1.82 7.153-4.752 10.826-6.99 7.317-4.459 16.348-6.023 24.738-4.284 7.251 1.503 14.393 5.374 21.646 3.892 8.939-1.828 29.126-18.657 38.243-18.992 5.277-.192-2.829 179.899 2.103 178.018 4.526-1.728 6.4-176.942 5.948-181.767-.658-7.016-2.483-10.788-5.328-12.911"></path><path fill="none" stroke="#3F3F3F" stroke-width="4.205" stroke-miterlimit="10" d="M475.354 152.917c-.918-.356-1.818-.818-2.573-1.407-3.669-1.448-8.484-1.489-14.271-2.125l-45.988-5.059-108.486-11.935c-8.356-.919-16.774-1.613-25.104-2.762-6.033-.833-16.044-.239-21.67 2.103l-60.49 24.647-110.897 45.188a632706.34 632706.34 0 0 0-38.827 15.82c-11.71 4.771-28.153 8.444-27.788 24.413.157 6.841 8.472 13.265 13.89 9.083 1.569-1.21 2.546-3.017 3.878-4.482 5.077-5.579 13.987-5.106 21.229-2.995 7.243 2.113 14.583 5.458 22.011 4.134 10.974-1.958 18.147-13.385 28.949-16.138 14.659-3.733 29.217 9.769 44.145 7.322 12.007-1.97 20.273-13.598 31.918-17.125 14.664-4.441 30.7 4.95 45.54 1.14 11.855-3.044 20.917-14.077 33.102-15.239 10.933-1.042 21.272 6.25 32.242 5.719 13.862-.671 24.367-13.367 37.942-16.243 14.206-3.009 29.914 5.118 43.072-1.025 3.896-1.82 7.153-4.752 10.826-6.99 7.317-4.459 16.348-6.023 24.738-4.284 7.251 1.503 14.393 5.374 21.646 3.892 8.939-1.828 29.126-18.657 38.243-18.992 5.277-.192-2.829 179.899 2.103 178.018 4.526-1.728 6.4-176.942 5.948-181.767-.658-7.016-2.483-10.788-5.328-12.911z"></path><path fill="#3F3F3F" d="M322.896 121.919s9.812-14.719 22.428-11.915c12.615 2.803 21.727 15.418 17.521 31.538-4.205 16.121-16.12 23.83-33.641 23.83-17.522 0-31.54-.701-39.248-26.633-7.709-25.931 21.726-33.641 21.726-33.641s14.719-2.803 24.53 4.205c.001 0-15.417 4.906-13.316 12.616"></path><path fill="none" stroke="#FFF" stroke-width="2.103" stroke-miterlimit="10" d="M322.896 121.919s9.812-14.719 22.428-11.915c12.615 2.803 21.727 15.418 17.521 31.538-4.205 16.121-16.12 23.83-33.641 23.83-17.522 0-31.54-.701-39.248-26.633-7.709-25.931 21.726-33.641 21.726-33.641s14.719-2.803 24.53 4.205c.001 0-15.417 4.906-13.316 12.616z"></path><path fill="#3F3F3F" d="M331.854 111.932s2.27-1.389 7.162-2.009c0 0-3.519-26.551-28.749-32.158l-7.711 3.503c.001.001 37.568 8.061 29.298 30.664"></path><path fill="none" stroke="#FFF" stroke-width="2.103" stroke-miterlimit="10" d="M331.854 111.932s2.27-1.389 7.162-2.009c0 0-3.519-26.551-28.749-32.158l-7.711 3.503c.001.001 37.568 8.061 29.298 30.664z"></path><path fill="#FFF" d="M166.774 294.743c1.353 0 1.355-2.103 0-2.103-1.353.001-1.356 2.103 0 2.103"></path><path fill="#3F3F3F" d="M52.189 312.614c1.353 0 1.356-2.104 0-2.104-1.353 0-1.355 2.104 0 2.104M94.239 301.05c1.353 0 1.355-2.103 0-2.103-1.353 0-1.356 2.103 0 2.103M144.698 298.947c1.353 0 1.355-2.103 0-2.103-1.353.001-1.356 2.103 0 2.103M195.157 282.129c1.353 0 1.355-2.104 0-2.104-1.353 0-1.355 2.104 0 2.104M234.053 284.231c1.354 0 1.355-2.103 0-2.103-1.353.001-1.356 2.103 0 2.103M276.102 271.615c1.354 0 1.356-2.103 0-2.103-1.354.001-1.354 2.103 0 2.103M304.486 274.77c1.354 0 1.354-2.103 0-2.103-1.353 0-1.356 2.103 0 2.103M331.818 257.95c1.352 0 1.354-2.103 0-2.103-1.353.001-1.355 2.103 0 2.103M368.61 264.258c1.354 0 1.355-2.104 0-2.104-1.351 0-1.355 2.104 0 2.104M412.763 245.336c1.353 0 1.355-2.104 0-2.104-1.353 0-1.356 2.104 0 2.104M441.146 249.541c1.354 0 1.356-2.102 0-2.102-1.353-.001-1.356 2.102 0 2.102M46.934 262.154c1.353 0 1.355-2.103 0-2.103-1.354.001-1.356 2.103 0 2.103M70.06 267.411c1.354 0 1.355-2.104 0-2.104-1.352.001-1.354 2.104 0 2.104M104.751 252.694c1.353 0 1.355-2.104 0-2.104-1.353.001-1.355 2.104 0 2.104M157.313 256.899c1.353 0 1.355-2.103 0-2.103-1.354.001-1.356 2.103 0 2.103M201.464 241.13c1.354 0 1.355-2.102 0-2.102-1.352 0-1.355 2.102 0 2.102M236.155 240.08c1.354 0 1.355-2.104 0-2.104-1.353 0-1.356 2.104 0 2.104M270.848 224.311c1.352 0 1.354-2.103 0-2.103s-1.357 2.103 0 2.103M304.486 232.721c1.354 0 1.354-2.103 0-2.103-1.353 0-1.356 2.103 0 2.103M342.329 213.798c1.354 0 1.356-2.103 0-2.103-1.351 0-1.354 2.103 0 2.103M374.918 218.004c1.354 0 1.356-2.103 0-2.103-1.353 0-1.356 2.103 0 2.103M419.069 199.081c1.354 0 1.356-2.103 0-2.103-1.352.001-1.354 2.103 0 2.103M453.761 202.235c1.354 0 1.354-2.103 0-2.103s-1.356 2.103 0 2.103M49.664 360.209c1.353 0 1.355-2.102 0-2.102-1.353 0-1.356 2.102 0 2.102M78.399 348.996c1.353 0 1.355-2.104 0-2.104-1.353.001-1.356 2.104 0 2.104M118.348 349.696c1.353 0 1.355-2.102 0-2.102-1.353.001-1.356 2.102 0 2.102M166.707 331.476c1.353 0 1.355-2.104 0-2.104-1.353-.001-1.356 2.104 0 2.104M217.168 330.072c1.353 0 1.355-2.102 0-2.102-1.353.001-1.355 2.102 0 2.102M257.818 313.953c1.353 0 1.355-2.103 0-2.103-1.352.001-1.355 2.103 0 2.103M294.263 318.858c1.354 0 1.355-2.102 0-2.102-1.353.001-1.354 2.102 0 2.102M322.297 305.542c1.354 0 1.355-2.102 0-2.102-1.353 0-1.355 2.102 0 2.102M358.041 309.047c1.354 0 1.355-2.102 0-2.102-1.353 0-1.355 2.102 0 2.102M392.383 294.329c1.354 0 1.356-2.103 0-2.103-1.354.001-1.355 2.103 0 2.103M425.323 297.834c1.353 0 1.355-2.103 0-2.103-1.353 0-1.354 2.103 0 2.103M461.067 282.415c1.353 0 1.355-2.104 0-2.104-1.353.001-1.355 2.104 0 2.104M35.646 401.56c1.353 0 1.355-2.102 0-2.102-1.353 0-1.355 2.102 0 2.102M65.783 405.064c1.353 0 1.355-2.102 0-2.102-1.353.001-1.355 2.102 0 2.102M98.724 391.047c1.353 0 1.355-2.102 0-2.102-1.353 0-1.356 2.102 0 2.102M150.587 388.244c1.353 0 1.355-2.103 0-2.103-1.353.001-1.356 2.103 0 2.103M188.434 372.826c1.353 0 1.355-2.104 0-2.104-1.354 0-1.356 2.104 0 2.104M246.604 373.526c1.353 0 1.354-2.104 0-2.104-1.353.001-1.355 2.104 0 2.104M285.151 356.705c1.354 0 1.355-2.103 0-2.103-1.352.001-1.354 2.103 0 2.103M327.904 360.209c1.354 0 1.354-2.102 0-2.102-1.352 0-1.355 2.102 0 2.102M359.442 344.09c1.353 0 1.355-2.102 0-2.102-1.352 0-1.354 2.102 0 2.102M390.28 351.099c1.354 0 1.355-2.103 0-2.103-1.352 0-1.355 2.103 0 2.103M423.221 336.38c1.354 0 1.356-2.102 0-2.102-1.354 0-1.356 2.102 0 2.102M454.059 341.988c1.354 0 1.355-2.104 0-2.104-1.353.001-1.356 2.104 0 2.104"></path></svg> 