<?xml version="1.0" encoding="UTF-8"?> <!-- Generator: Adobe Illustrator 16.0.4, SVG Export Plug-In . SVG Version: 6.00 Build 0) --> <svg xmlns="http://www.w3.org/2000/svg" xmlns:xlink="http://www.w3.org/1999/xlink" id="Layer_1" x="0px" y="0px" width="437px" height="223px" viewBox="0 0 437 223" xml:space="preserve"> <path fill="#3F3F3F" d="M283.117,143.211l-25.204-61.069h12.641l15.853,40l16.035-40h12.541l-25.641,61.069H283.117z M353.086,92.224V82.141h-32.84v59.544h32.84v-10.08h-21.273v-16.08h20.457v-10.086h-20.457V92.224H353.086z M385.383,116.602 l18.704,25.084h-14.243l-16.011-23.933h-1.517v23.933h-11.581V82.137h17.181c13.359,0,21.002,6.417,21.002,17.576 C398.918,108.826,394.122,114.812,385.383,116.602z M387.005,100.342c0-5.798-3.916-8.84-11.139-8.84h-3.555v18.046h3.365 l0.006-0.004C383.097,109.544,387.005,106.317,387.005,100.342z M178.088,91.408c5.506,0,9.701,1.966,14.511,6.697V84.437 c-5.074-2.583-9.266-3.647-14.25-3.647c-17.54,0-31.603,13.844-31.603,31.148l0.003-0.001c0,17.526,13.713,31.09,31.342,31.09 c4.981,0,9.257-0.991,14.51-3.478v-13.67c-4.633,4.646-8.729,6.517-13.984,6.517c-11.659,0-19.941-8.48-19.941-20.545 C158.676,100.431,167.215,91.408,178.088,91.408z M31.913,82.131h17.012c18.768,0,31.863,12.223,31.863,29.804 c0,8.769-4.01,17.25-10.77,22.877c-5.699,4.731-12.194,6.864-21.18,6.864H31.913V82.131z M43.497,131.598h3.108 c7.486,0,12.199-1.429,15.857-4.74c4.006-3.559,6.395-9.279,6.395-15.008c0-5.711-2.389-11.242-6.395-14.815 c-3.838-3.48-8.371-4.817-15.857-4.817h-3.108V131.598z M97.7,141.686V82.137H86.133v59.548H97.7z M228.643,81.017l-0.008,0.004 c-17.474,0-31.655,13.695-31.655,30.604c0,17.968,13.563,31.404,31.655,31.404c17.643,0,31.573-13.614,31.573-31.054 C260.208,94.631,246.372,81.017,228.643,81.017z M122.171,132.482c-5.52,0-9.968-2.758-12.64-7.941l-7.467,7.243 c5.333,7.844,11.744,11.34,20.562,11.34c12.02,0,20.469-8.047,20.469-19.563c0-9.463-3.904-13.754-17.082-18.583v-0.001h0.003 c-6.952-2.587-9-4.291-9-7.494c0-3.754,3.641-6.609,8.632-6.609c3.472,0,6.32,1.428,9.356,4.809l6.043-7.929 c-4.981-4.388-10.947-6.617-17.45-6.617c-10.493,0-18.511,7.325-18.511,17.051c0,8.219,3.738,12.413,14.598,16.351 c4.546,1.599,6.855,2.667,8.015,3.397c2.312,1.515,3.474,3.651,3.474,6.154C131.173,128.915,127.338,132.482,122.171,132.482z M407,0H218.5h0H30C13.458,0,0,13.458,0,30v163c0,16.542,13.458,30,30,30h188.5h0H407c16.542,0,30-13.458,30-30V30 C437,13.458,423.542,0,407,0z M427,193c0,11.027-8.972,20-20,20H218.5h0H30c-11.028,0-20-8.973-20-20V30c0-11.028,8.972-20,20-20 h188.5h0H407c11.028,0,20,8.972,20,20V193z"></path> </svg> 