<?xml version="1.0" encoding="UTF-8"?> <svg xmlns="http://www.w3.org/2000/svg" width="1958.816" height="401.654" viewBox="0 0 1958.816 401.654"><path fill="#3B5998" d="M1045.404 195.198c-16.768 0-28.854 5.498-41.109 11.099v126.748c11.738 1.119 18.469 1.119 29.605 1.119 40.244 0 45.762-18.432 45.762-44.164v-60.535c0-19.004-6.307-34.267-34.258-34.267zM778.13 188.28c-27.924 0-34.296 15.33-34.296 34.314v10.668h68.553v-10.668c0-18.985-6.372-34.314-34.257-34.314zM260.367 320.207c0 15.018 7.087 22.818 22.726 22.818 16.776 0 26.71-5.469 38.957-11.09v-30.064h-36.683c-17.368 0-25 3.233-25 18.336zm1045.028-125.009c-27.969 0-37.66 15.263-37.66 34.267v69.352c0 19.051 9.691 34.359 37.66 34.359 27.895 0 37.66-15.309 37.66-34.359v-69.352c-.01-19.004-9.774-34.267-37.66-34.267zM123.299 397.971H41.081V198.966H0v-68.571h41.09V89.21C41.09 33.261 64.276 0 130.179 0h54.868v68.59h-34.295c-25.658 0-27.35 9.586-27.35 27.472l-.103 34.323h62.124l-7.266 68.571h-54.858v199.015zm280.987.515h-68.524l-2.96-17.33c-31.288 17.33-59.211 20.141-77.632 20.141-50.254 0-77.002-33.572-77.002-80 0-54.775 31.213-74.324 87.049-74.324h56.833v-11.842c0-27.959-3.205-36.165-46.203-36.165h-70.301l6.87-68.571h76.842c94.343 0 115.028 29.802 115.028 105.291v162.8zm233.017-194.492c-42.642-7.312-54.888-8.919-75.404-8.919-36.852 0-47.989 8.13-47.989 39.427v59.201c0 31.297 11.138 39.465 47.989 39.465 20.517 0 32.763-1.637 75.404-8.977v66.889c-37.35 8.375-61.683 10.574-82.247 10.574-88.271 0-123.354-46.42-123.354-113.479V240.14c0-67.115 35.084-113.619 123.354-113.619 20.564 0 44.897 2.209 82.247 10.621v66.852zm257.293 84.182h-150.77v5.527c0 31.297 11.146 39.465 47.988 39.465 33.12 0 53.337-1.637 95.902-8.977v66.889c-41.053 8.375-62.443 10.574-102.716 10.574-88.28 0-123.384-46.42-123.384-113.479v-54.924c0-58.675 26.043-106.73 116.504-106.73s116.476 47.5 116.476 106.73v54.925zm267.265 1.269c0 64.812-18.525 112.086-130.742 112.086-40.527 0-64.295-3.561-109.023-10.441V20.602l82.189-13.712v129.596c17.764-6.598 40.752-9.953 61.674-9.953 82.199 0 95.893 36.852 95.893 96.072v66.842h.009zm263.469 1.41c0 55.912-23.084 110.141-119.662 110.141-96.627 0-120.141-54.229-120.141-110.141v-53.984c0-55.941 23.514-110.179 120.141-110.179 96.578 0 119.662 54.238 119.662 110.179v53.984zm263.289 0c0 55.912-23.111 110.141-119.672 110.141-96.625 0-120.141-54.229-120.141-110.141v-53.984c0-55.941 23.516-110.179 120.141-110.179 96.561 0 119.672 54.238 119.672 110.179v53.984zm270.197 107.116h-89.088L1794.38 272.19v125.781h-82.219V20.592L1794.38 6.88v242.943l75.348-119.427h89.088l-82.256 130.328 82.256 137.247zm-390.15-202.773c-27.924 0-37.613 15.263-37.613 34.267v69.352c0 19.051 9.689 34.359 37.613 34.359 27.885 0 37.754-15.309 37.754-34.359v-69.352c0-19.004-9.869-34.267-37.754-34.267z"></path></svg> 