<?xml version="1.0" encoding="UTF-8"?> <svg xmlns="http://www.w3.org/2000/svg" width="836.366" height="364" viewBox="0 0 836.366 364"><path fill="#0084FF" d="M287.621 287.279h.322l17.671-54.732h24.009v78.203h-18.154v-50.381l-.322-.053-17.241 50.434h-12.192l-16.919-49.682-.322.053v49.629h-18.154v-78.203h23.794l17.508 54.732zm79.17 24.6c-8.809 0-15.71-2.668-20.705-8.004-4.995-5.334-7.493-12.084-7.493-20.248v-2.041c0-8.881 2.354-16.113 7.063-21.699 4.708-5.586 11.521-8.361 20.437-8.326 7.842 0 13.92 2.346 18.235 7.037 4.314 4.691 6.472 11.117 6.472 19.281v9.508h-33.301l-.107.322c.286 3.043 1.414 5.504 3.384 7.385 1.969 1.879 4.798 2.82 8.486 2.82 3.473 0 6.365-.287 8.674-.859 2.311-.572 4.95-1.486 7.923-2.74l4.351 11.064c-2.507 1.826-5.873 3.367-10.098 4.619-4.226 1.254-8.667 1.881-13.321 1.881zm-.698-46.354c-2.9 0-5.04.922-6.418 2.766-1.379 1.846-2.176 4.344-2.391 7.494l.107.268h15.684v-1.396c0-3.008-.528-5.281-1.585-6.82-1.055-1.54-2.855-2.312-5.397-2.312zm62.681 28.897c0-1.432-.814-2.713-2.443-3.84-1.631-1.129-4.594-2.139-8.891-3.035-6.767-1.324-11.869-3.375-15.306-6.15-3.438-2.773-5.156-6.596-5.156-11.467 0-5.119 2.148-9.461 6.445-13.025 4.297-3.562 10.115-5.344 17.455-5.344 7.734 0 13.893 1.729 18.477 5.184s6.768 7.922 6.553 13.4l-.107.322h-17.617c0-2.291-.572-4.027-1.719-5.209s-3.025-1.773-5.639-1.773c-1.898 0-3.492.52-4.781 1.559s-1.934 2.363-1.934 3.975c0 1.539.744 2.846 2.23 3.92 1.484 1.074 4.484 2.041 8.996 2.9 7.125 1.396 12.389 3.482 15.791 6.258 3.4 2.775 5.102 6.705 5.102 11.789 0 5.229-2.318 9.533-6.955 12.918-4.637 3.383-10.77 5.076-18.396 5.076-7.914 0-14.169-2.006-18.771-6.016s-6.795-8.486-6.58-13.428l.107-.322h16.436c.072 2.758.904 4.744 2.498 5.961 1.594 1.219 3.857 1.826 6.795 1.826 2.434 0 4.277-.475 5.531-1.424 1.252-.948 1.879-2.299 1.879-4.055zm56.289 0c0-1.432-.814-2.713-2.443-3.84-1.631-1.129-4.594-2.139-8.891-3.035-6.768-1.324-11.869-3.375-15.307-6.15-3.438-2.773-5.156-6.596-5.156-11.467 0-5.119 2.148-9.461 6.445-13.025 4.297-3.562 10.115-5.344 17.455-5.344 7.734 0 13.893 1.729 18.477 5.184s6.768 7.922 6.553 13.4l-.107.322h-17.617c0-2.291-.572-4.027-1.719-5.209s-3.025-1.773-5.639-1.773c-1.898 0-3.492.52-4.781 1.559s-1.934 2.363-1.934 3.975c0 1.539.744 2.846 2.23 3.92 1.484 1.074 4.484 2.041 8.996 2.9 7.125 1.396 12.389 3.482 15.791 6.258 3.4 2.775 5.102 6.705 5.102 11.789 0 5.229-2.318 9.533-6.955 12.918-4.637 3.383-10.77 5.076-18.396 5.076-7.914 0-14.17-2.006-18.771-6.016s-6.795-8.486-6.58-13.428l.107-.322h16.436c.072 2.758.904 4.744 2.498 5.961 1.594 1.219 3.857 1.826 6.795 1.826 2.434 0 4.277-.475 5.531-1.424 1.253-.948 1.88-2.299 1.88-4.055zm51.777 17.457c-8.809 0-15.711-2.668-20.705-8.004-4.996-5.334-7.494-12.084-7.494-20.248v-2.041c0-8.881 2.355-16.113 7.064-21.699 4.707-5.586 11.52-8.361 20.436-8.326 7.842 0 13.92 2.346 18.236 7.037 4.314 4.691 6.471 11.117 6.471 19.281v9.508h-33.301l-.107.322c.287 3.043 1.414 5.504 3.385 7.385 1.969 1.879 4.797 2.82 8.486 2.82 3.473 0 6.365-.287 8.674-.859 2.311-.572 4.949-1.486 7.922-2.74l4.352 11.064c-2.508 1.826-5.873 3.367-10.098 4.619-4.227 1.254-8.666 1.881-13.321 1.881zm-.699-46.354c-2.9 0-5.039.922-6.418 2.766-1.379 1.846-2.176 4.344-2.391 7.494l.107.268h15.684v-1.396c0-3.008-.527-5.281-1.584-6.82s-2.855-2.312-5.398-2.312zm49.092-12.89l.699 8.164c1.896-2.9 4.242-5.164 7.035-6.795 2.793-1.629 5.908-2.443 9.346-2.443 5.693 0 10.143 1.934 13.348 5.801s4.807 10.01 4.807 18.424v34.965h-18.154v-35.02c0-3.688-.59-6.311-1.771-7.869-1.182-1.557-2.9-2.336-5.156-2.336-1.934 0-3.672.342-5.211 1.021s-2.828 1.646-3.867 2.9v41.303h-18.1v-58.115h17.024zm42.646 29.166c0-9.059 1.979-16.363 5.936-21.914s9.533-8.326 16.73-8.326c3.043 0 5.729.725 8.057 2.176 2.328 1.449 4.332 3.5 6.016 6.15l1.182-7.252h16.006v57.471c0 7.662-2.623 13.598-7.869 17.805-5.244 4.209-12.469 6.312-21.672 6.312-3.008 0-6.158-.412-9.453-1.236s-6.445-1.934-9.453-3.33l3.115-13.428c2.613 1.146 5.111 1.996 7.492 2.551 2.383.557 5.111.834 8.191.834 3.867 0 6.74-.771 8.621-2.311 1.879-1.539 2.82-3.975 2.82-7.305v-4.512c-1.648 2.113-3.555 3.707-5.721 4.781s-4.646 1.611-7.439 1.611c-7.162 0-12.711-2.65-16.65-7.949s-5.908-12.301-5.908-21.002v-1.126zm18.102 1.127c0 4.727.689 8.406 2.066 11.037 1.379 2.633 3.715 3.949 7.01 3.949 1.969 0 3.662-.305 5.076-.914a8.285 8.285 0 0 0 3.465-2.738v-24.439c-.896-1.396-2.041-2.461-3.438-3.195s-3.062-1.102-4.996-1.102c-3.223 0-5.559 1.496-7.01 4.484-1.449 2.99-2.174 6.922-2.174 11.791v1.127zm71.973 28.951c-8.809 0-15.711-2.668-20.705-8.004-4.996-5.334-7.494-12.084-7.494-20.248v-2.041c0-8.881 2.355-16.113 7.064-21.699 4.707-5.586 11.52-8.361 20.436-8.326 7.842 0 13.92 2.346 18.236 7.037 4.314 4.691 6.471 11.117 6.471 19.281v9.508h-33.301l-.107.322c.287 3.043 1.414 5.504 3.385 7.385 1.969 1.879 4.797 2.82 8.486 2.82 3.473 0 6.365-.287 8.674-.859 2.311-.572 4.949-1.486 7.922-2.74l4.352 11.064c-2.508 1.826-5.873 3.367-10.098 4.619-4.228 1.254-8.667 1.881-13.321 1.881zm-.7-46.354c-2.9 0-5.039.922-6.418 2.766-1.379 1.846-2.176 4.344-2.391 7.494l.107.268h15.684v-1.396c0-3.008-.527-5.281-1.584-6.82s-2.855-2.312-5.398-2.312zm64.508 2.579l-5.908-.053c-2.078 0-3.779.385-5.104 1.154s-2.309 1.854-2.953 3.25v38.295h-18.154v-58.115h17.08l.645 8.541c1.217-3.043 2.828-5.406 4.834-7.09 2.004-1.684 4.35-2.525 7.035-2.525.824 0 1.559.055 2.203.162s1.324.268 2.041.482l-1.719 15.899zm-654.66-69.032c-40.988 0-74.217 30.957-74.217 69.146 0 21.76 10.793 41.17 27.658 53.844v26.365l25.271-13.955a79.318 79.318 0 0 0 21.288 2.891c40.988 0 74.216-30.955 74.216-69.145s-33.228-69.146-74.216-69.146zm7.375 93.117l-18.899-20.283L78.7 292.189l40.565-43.332 19.361 20.283 36.416-20.283-40.565 43.332zm239.516-190.198h-20.058v-3.122c0-5.554 1.865-10.04 10.036-10.04 8.159 0 10.022 4.485 10.022 10.04v3.122zm78.209 16.602v-17.714c0-5.562-1.846-10.027-10.025-10.027-4.906 0-8.442 1.609-12.028 3.249v37.087c3.435.328 5.403.328 8.662.328 11.775-.001 13.391-5.394 13.391-12.923zm66.05 12.634c8.161 0 11.02-4.479 11.02-10.054V100.88c-.002-5.562-2.86-10.027-11.02-10.027-8.184 0-11.019 4.466-11.019 10.027v20.293c.001 5.574 2.836 10.054 11.019 10.054zM836.366 27.5v309c0 15.163-10.996 27.5-24.511 27.5H24.511C10.996 364 0 351.663 0 336.5v-309C0 12.336 10.996 0 24.511 0h787.344c13.515 0 24.511 12.336 24.511 27.5zm-199.09 122.686h24.057v-36.805l22.048 36.805h26.069l-24.069-40.159 24.069-38.135h-26.07l-22.048 34.944V35.75l-24.057 4.012v110.424zm-77.061-31.344c0 16.361 6.881 32.229 35.155 32.229 28.254 0 35.017-15.868 35.017-32.229v-15.795c0-16.369-6.763-32.24-35.017-32.24-28.274 0-35.155 15.871-35.155 32.24v15.795zm-77.037 0c0 16.361 6.879 32.229 35.154 32.229 28.259 0 35.014-15.868 35.014-32.229v-15.795c0-16.369-6.755-32.24-35.014-32.24-28.275 0-35.154 15.871-35.154 32.24v15.795zm-77.082 29.33c13.086 2.013 20.042 3.055 31.902 3.055 32.834 0 38.255-13.833 38.255-32.797h-.002V98.872c0-17.327-4.008-28.111-28.06-28.111-6.122 0-12.849.982-18.047 2.912v-37.92l-24.048 4.012v108.407zm-76.22-30.114c0 19.622 10.271 33.206 36.104 33.206 11.785 0 18.043-.645 30.056-3.095v-19.571c-12.456 2.147-18.372 2.626-28.062 2.626-10.78 0-14.041-2.39-14.041-11.548v-1.618h44.116v-16.071c0-17.332-7.612-31.23-34.083-31.23-26.469 0-34.09 14.062-34.09 31.23v16.071zm-67.274 0c0 19.622 10.266 33.206 36.095 33.206 6.017 0 13.136-.645 24.066-3.095v-19.571c-12.478 2.147-16.061 2.626-22.065 2.626-10.782 0-14.042-2.39-14.042-11.548v-17.323c0-9.157 3.26-11.537 14.042-11.537 6.004 0 9.587.47 22.065 2.61V73.865c-10.93-2.462-18.05-3.108-24.066-3.108-25.83 0-36.095 13.608-36.095 33.247v14.054zm-32.085-15.521v3.465h-16.631c-16.338 0-25.47 5.72-25.47 21.748 0 13.584 7.826 23.408 22.531 23.408 5.391 0 13.561-.822 22.716-5.893l.867 5.071h20.05V102.7c0-22.089-6.053-30.81-33.659-30.81h-22.484l-2.01 20.065h20.571c12.581.001 13.519 2.401 13.519 10.582zm-94.235-10.581h12.021v58.23h24.057V91.953h16.052l2.126-20.064H172.36l.03-10.043c0-5.234.496-8.039 8.003-8.039h10.035v-20.07h-16.055c-19.285 0-26.068 9.732-26.068 26.104v12.051h-12.024v20.064zM831.91 188.5H4.457v148c0 12.406 8.996 22.5 20.054 22.5h787.344c11.058 0 20.055-10.094 20.055-22.5v-148zm-619.442-61.068c0 4.394 2.073 6.677 6.649 6.677 4.909 0 7.815-1.601 11.399-3.245v-8.796h-10.734c-5.081-.001-7.314.945-7.314 5.364zm382.82 3.795c8.159 0 11.048-4.479 11.048-10.054V100.88c0-5.562-2.889-10.027-11.048-10.027-8.171 0-11.007 4.466-11.007 10.027v20.293c0 5.574 2.836 10.054 11.007 10.054z"></path></svg> 