<?xml version="1.0" encoding="UTF-8"?> <svg xmlns="http://www.w3.org/2000/svg" width="609.999" height="652.504" viewBox="0 0 609.999 652.504"><path fill="#3F3F3F" d="M468.526 227.717c-18.449-18.449-39.475-33.382-62.255-44.495 7.569-2.163 15.826-7.203 22.959-17.769 2.447.47 5.269.817 8.261.817.168 0 .329-.017.496-.019 18.64 11.061 36.024 24.525 51.752 40.252 35.2 35.201 59.106 78.683 69.927 126.048h-30.891c-10.238-39.308-30.767-75.352-60.249-104.834zM81.224 332.552c10.238-39.309 30.768-75.353 60.25-104.835 18.451-18.451 39.477-33.384 62.258-44.498-7.57-2.16-15.83-7.199-22.965-17.77-2.448.469-5.268.816-8.261.816-.165 0-.322-.017-.486-.019-18.643 11.062-36.03 24.527-51.76 40.257-35.201 35.201-59.106 78.683-69.926 126.048h30.89zm391.883 217.49a231.623 231.623 0 0 1-4.581 4.728c-43.68 43.679-101.755 67.734-163.526 67.734s-119.847-24.056-163.526-67.734a228.986 228.986 0 0 1-4.581-4.728H97.518a264.273 264.273 0 0 0 22.743 25.94c49.346 49.346 114.954 76.521 184.739 76.521s135.394-27.176 184.739-76.521a264.51 264.51 0 0 0 22.742-25.94h-39.374zM316.589 315.28l-.524 17.271h-22.112l-.545-17.266 11.594-5.633 11.587 5.628zm39.2-164.199c-17.498-1.626-30.971-11.73-30.971-23.961.002-13.366 16.09-24.197 35.933-24.197 15.929 0 29.42 6.976 34.137 16.639.082.146 6.111 9.873.869 26.353-5.436 19.502-31.885 36.693-54.85 48.304-11.398-5.885-23.375-10.943-29.771-13.533 11.538-4.643 36.052-15.787 44.653-29.605zm8.046-31.456c0-4.758-3.851-8.623-8.619-8.623-4.754 0-8.616 3.86-8.616 8.623 0 4.764 3.858 8.624 8.616 8.624 4.77 0 8.619-3.865 8.619-8.624zM330.32 289.587c-13.375-6.898-25.318-11.066-25.318-11.066s-44.396-15.526-44.396-34.459c0-14.52 26.127-26.982 38.295-31.998-6.322-2.529-18.135-7.408-29.619-12.873-19.579 10.767-39.903 25.964-39.903 42.684 0 19.732 28.326 37.164 50.306 47.708 13.935 6.693 25.317 10.621 25.317 10.621s36.209 12.467 36.209 27.903c0 1.51-.348 2.994-.974 4.444h25.299c.729-2.04 1.142-4.117 1.142-6.225-.001-14.729-19.338-27.948-36.358-36.739zm-76.125-138.503c11.408 18.312 50.807 31.934 50.807 31.934s14.602 5.14 30.967 13.635c20.889 10.84 44.656 27.145 44.656 45.226 0 18.213-24.135 34.463-45.131 45.153l-24.65-10.776c12.051-4.972 38.555-17.563 38.555-32.19 0-18.929-44.396-34.356-44.396-34.356s-13.95-4.836-30.971-13.053c-23.927-11.55-53.896-29.79-59.759-50.683-5.27-16.515.77-26.263.859-26.409 4.715-9.662 18.207-16.638 34.133-16.638 19.845 0 35.93 10.832 35.93 24.196 0 12.235-13.488 22.344-31 23.961zm9.214-31.459a8.619 8.619 0 1 0-17.238 0c0 4.764 3.86 8.624 8.619 8.624 4.758 0 8.619-3.86 8.619-8.624zm-112.484 13.333c1.878 19.124 12.581 23.308 21.582 23.308 6.998 0 12.968-2.527 12.968-2.527 8.387 16.429 19.205 20.896 28.496 20.896 2.801 0 5.465-.407 7.879-1.014-8.508-8.242-13.998-16.609-16.395-25.035-5.771-18.213-.3-30.097 1.587-33.401 6.484-12.839 23.443-21.458 42.228-21.458 11.733 0 22.283 3.158 30.229 8.409l-.963-43.981s-3.726-2.093-9.817-2.093c-4.902 0-11.339 1.355-18.602 6.25-30.213 20.359-88.842 23.89-125.869 23.89-19.659 0-33.223-.995-33.223-.995 0 46.407 59.9 47.751 59.9 47.751zm134.266-81.214l1.777 56.793c4.703 5.281 7.42 11.653 7.42 18.582 0 6.342-2.238 12.274-6.305 17.336l.678 21.937 16.24 7.237 16.133-7.237.674-22.083c-3.99-5.036-6.186-10.912-6.186-17.19 0-6.855 2.662-13.159 7.271-18.406l1.731-56.811c6.149-5.44 10.033-13.378 10.033-22.232C334.659 13.284 321.38 0 305.001 0c-16.377 0-29.655 13.284-29.655 29.67 0 8.768 3.804 16.643 9.845 22.074zm-16.397 276.363c0-11.465 19.972-21.291 30.251-25.588l-24.394-10.228c-15.581 8.684-31.326 20.743-31.325 34.03 0 2.109.414 4.188 1.145 6.229h25.299c-.627-1.448-.976-2.933-.976-4.443zM305 269.046l13.182-5.91 1.135-37.51-14.315-6.501-14.38 6.506 1.16 37.509L305 269.046zm25.508-166.907c7.941-5.255 18.502-8.413 30.234-8.413 18.788 0 35.743 8.624 42.227 21.458 1.879 3.299 7.345 15.158 1.588 33.401-2.375 8.405-7.873 16.772-16.416 25.04 2.415.607 5.08 1.014 7.884 1.014 9.291 0 20.11-4.464 28.502-20.896 0 0 5.97 2.527 12.966 2.527 9.002 0 19.702-4.182 21.577-23.309 0 0 59.905-1.343 59.905-47.75-.017 0-13.572.992-33.199.992-37.025 0-95.665-3.527-125.885-23.892-7.262-4.893-13.699-6.249-18.603-6.249-6.094-.001-9.817 2.092-9.817 2.092l-.963 43.985zm72.735 376.46c0 3.062-.752 5.425-2.256 7.091-1.505 1.668-3.835 2.502-6.993 2.502h-8.123V468.71h8.497c2.985 0 5.209.865 6.677 2.595 1.466 1.729 2.198 4.163 2.198 7.294zM138.9 471.305c-1.467-1.729-3.692-2.595-6.674-2.595h-8.499v19.481h8.122c3.159 0 5.49-.834 6.995-2.502 1.504-1.666 2.256-4.029 2.256-7.091 0-3.13-.734-5.564-2.2-7.293zm471.099-126.753l-48.78 193.49H48.86L0 344.552h609.999zM151.102 516.731c-.826-.802-1.403-1.932-1.729-3.387-.327-1.452-.49-3.018-.49-4.697v-4.777c0-3.258-.621-5.99-1.861-8.197s-3.265-3.785-6.072-4.739c2.506-1.175 4.43-2.838 5.771-4.979 1.342-2.145 2.012-4.647 2.012-7.505 0-5.014-1.435-8.86-4.307-11.544-2.87-2.683-6.937-4.022-12.202-4.022h-16.133v54.714h7.635v-23.58h9.438c2.506 0 4.468.89 5.885 2.67 1.417 1.779 2.125 4.2 2.125 7.259v4.625c0 1.805.131 3.555.394 5.245.264 1.692.822 2.953 1.674 3.778h7.859v-.864zm37.341-4.923h-21.887v-19.632h18.578v-5.828h-18.578v-17.637h21.699v-5.866h-29.332v54.752h29.52v-5.789zm42.61-21.662h-17.75v5.565h10.077v12.748c-.702 1.155-1.823 2.13-3.364 2.932-1.543.805-3.605 1.203-6.188 1.203-3.51 0-6.286-1.22-8.329-3.665-2.045-2.443-3.065-5.997-3.065-10.66v-16.321c0-4.562.984-8.04 2.953-10.435 1.967-2.396 4.668-3.594 8.104-3.594 3.183 0 5.609.912 7.277 2.727 1.666 1.819 2.5 4.371 2.5 7.652h7.183l.075-.224c.1-4.963-1.354-8.875-4.362-11.733-3.009-2.856-7.283-4.288-12.824-4.288-5.616 0-10.116 1.745-13.5 5.229-3.385 3.483-5.077 8.397-5.077 14.741v16.244c0 6.444 1.748 11.408 5.246 14.893 3.496 3.484 8.104 5.227 13.819 5.227 4.487 0 8.153-.802 11-2.406 2.844-1.605 4.918-3.445 6.223-5.527h.003v-20.308zm18.424-27.301h-7.635v54.752h7.635v-54.752zm26.078-28.662v-35.09h-17.762v50.229h28.85c6.914 0 13.11-.91 18.598-2.739 5.484-1.829 10.131-4.569 13.945-8.229 3.815-3.652 6.739-8.143 8.764-13.472 2.029-5.322 3.039-11.522 3.039-18.595 0-13.908-3.637-24.401-10.906-31.473-6.664-6.479-15.779-10.064-27.277-10.608h-91.494v85.114h17.763v-35.105h23.962v-15.259h-23.962v-19.494h72.001c3.543.144 6.678.679 9.219 1.79 2.898 1.275 5.262 3.062 7.092 5.365 1.828 2.303 3.16 5.146 3.994 8.521.834 3.377 1.254 7.135 1.254 11.267 0 4.214-.477 8.007-1.434 11.387-.951 3.378-2.443 6.296-4.469 8.759-2.029 2.466-4.67 4.354-7.928 5.663-3.261 1.312-7.193 1.969-11.802 1.969h-11.447zm17.695 69.577c0-4.188-1.304-7.595-3.911-10.229-2.608-2.631-6.405-4.763-11.394-6.393-3.736-1.379-6.395-2.847-7.973-4.399-1.58-1.554-2.369-3.522-2.369-5.905 0-2.557.744-4.688 2.236-6.392 1.492-1.706 3.594-2.558 6.301-2.558 2.78 0 5.024.991 6.729 2.971 1.704 1.979 2.558 4.575 2.558 7.783h7.334l.073-.225c.101-4.688-1.378-8.588-4.437-11.697-3.06-3.105-7.12-4.663-12.186-4.663-4.763 0-8.667 1.4-11.714 4.195-3.045 2.795-4.567 6.348-4.567 10.661 0 4.212 1.377 7.584 4.135 10.113 2.758 2.531 6.707 4.602 11.846 6.205 3.609 1.329 6.13 2.804 7.561 4.42 1.429 1.616 2.144 3.679 2.144 6.187 0 2.683-.804 4.819-2.406 6.412-1.604 1.592-3.823 2.387-6.657 2.387-2.908 0-5.346-.913-7.313-2.745-1.968-1.83-2.952-4.601-2.952-8.309h-7.371l-.075.224c-.126 5.342 1.591 9.439 5.152 12.297 3.56 2.857 7.747 4.288 12.56 4.288 4.988 0 9.021-1.322 12.09-3.969 3.07-2.643 4.606-6.196 4.606-10.659zm41.289-40.915H297.95v5.866h14.401v48.886h7.672v-48.886h14.516v-5.866zm36.063 48.963h-21.887v-19.632h18.577v-5.828h-18.577v-17.637h21.697v-5.866h-29.331v54.752h29.521v-5.789zm3.658-82.155l-4.213-14.663h-11.662l10.371-30.521 21.574 64.852h18.359l-31.949-85.114h-16.928l-31.945 85.114h19.072l6.798-19.667h20.523zm38.987 87.078c-.829-.802-1.404-1.932-1.731-3.387-.324-1.452-.487-3.018-.487-4.697v-4.777c0-3.258-.621-5.99-1.861-8.197-1.241-2.207-3.265-3.785-6.074-4.739 2.507-1.175 4.432-2.838 5.773-4.979 1.34-2.145 2.012-4.647 2.012-7.505 0-5.014-1.436-8.86-4.307-11.544-2.87-2.683-6.938-4.022-12.203-4.022h-16.132v54.714h7.635v-23.58h9.437c2.508 0 4.47.89 5.887 2.67 1.415 1.779 2.125 4.2 2.125 7.259v4.625c0 1.805.131 3.555.394 5.245.264 1.692.821 2.953 1.674 3.778h7.86v-.864zm37.342-4.923h-21.887v-19.632h18.577v-5.828h-18.577v-17.637H450.4v-5.866h-29.332v54.752h29.521v-5.789zm43.318-25.46c0-6.895-1.873-12.532-5.621-16.923-3.749-4.387-8.58-6.58-14.497-6.58h-15.531v54.752h15.531c5.917 0 10.748-2.18 14.497-6.541 3.748-4.361 5.621-10.005 5.621-16.924v-7.784zm-20.118-17.635h-7.896v43.095h7.896c3.761 0 6.77-1.648 9.025-4.944 2.257-3.298 3.385-7.54 3.385-12.73v-7.859c0-5.114-1.128-9.317-3.385-12.616-2.257-3.298-5.265-4.946-9.025-4.946z"></path></svg> 