<?xml version="1.0" encoding="UTF-8"?> <svg xmlns="http://www.w3.org/2000/svg" width="500" height="500" viewBox="0 0 500 500"><path fill="#FFF" d="M241.959 156.025s-4.393 9.109-14.491 8.558c0 0 6.3-29.778-10.376-52.502 0 0 8.563-9.4 20.086-6.434 0-.001-12.956 18.508 4.781 50.378"></path><path fill="none" stroke="#3F3F3F" stroke-width="1.924" stroke-miterlimit="10" d="M241.959 156.025s-4.393 9.109-14.491 8.558c0 0 6.3-29.778-10.376-52.502 0 0 8.563-9.4 20.086-6.434 0-.001-12.956 18.508 4.781 50.378z"></path><path fill="#FFF" d="M279.828 99.399s-38.429-3.016-48.425 36.82c0 0 34.634 9.042 48.425-36.82"></path><path fill="none" stroke="#3F3F3F" stroke-width="1.924" stroke-miterlimit="10" d="M279.828 99.399s-38.429-3.016-48.425 36.82c0 0 34.634 9.042 48.425-36.82z"></path><path fill="#FFF" d="M479.554 98.177s-29.072-12.332-47.192 16.019c-.001 0 24.558 16.027 47.192-16.019"></path><path fill="none" stroke="#3F3F3F" stroke-width="1.924" stroke-miterlimit="10" d="M479.554 98.177s-29.072-12.332-47.192 16.019c-.001 0 24.558 16.027 47.192-16.019z"></path><path fill="#FFF" d="M148.258 120.401a26.704 26.704 0 0 0-16.427 4.798c-2.849 1.996-5.894 3.659-9.195 4.749-4.289 1.415-4.76.669-9.264.368a17.93 17.93 0 0 1-2.923-.437c-6.08-1.455-16.51.249-22.104 3.04-31.302 15.615-50.217 44.661-43.589 82.499 6.783 38.722 36.664 65.793 73.03 71.853 8.976 1.495 18.101.062 26.569-3.271 1.726-.679 3.608-1.103 5.497-1.41a16.409 16.409 0 0 1 3.822-.188c9.987.734 19.981-1.892 28.631-6.938 31.34-18.287 49.632-53.468 42.943-91.659-7.127-40.686-38.569-61.776-76.99-63.404"></path><path fill="none" stroke="#3F3F3F" stroke-width="1.924" stroke-miterlimit="10" d="M148.258 120.401a26.704 26.704 0 0 0-16.427 4.798c-2.849 1.996-5.894 3.659-9.195 4.749-4.289 1.415-4.76.669-9.264.368a17.93 17.93 0 0 1-2.923-.437c-6.08-1.455-16.51.249-22.104 3.04-31.302 15.615-50.217 44.661-43.589 82.499 6.783 38.722 36.664 65.793 73.03 71.853 8.976 1.495 18.101.062 26.569-3.271 1.726-.679 3.608-1.103 5.497-1.41a16.409 16.409 0 0 1 3.822-.188c9.987.734 19.981-1.892 28.631-6.938 31.34-18.287 49.632-53.468 42.943-91.659-7.127-40.686-38.569-61.776-76.99-63.404z"></path><path fill="#FFF" d="M264.656 245.777c-2.795-10.62-13.671-16.963-24.291-14.167-10.618 2.795-16.961 13.671-14.167 24.291 2.796 10.62 13.672 16.963 24.292 14.167 10.62-2.795 16.962-13.672 14.166-24.291"></path><circle fill="none" stroke="#3F3F3F" stroke-width="1.924" stroke-miterlimit="10" cx="245.427" cy="250.839" r="19.884"></circle><path fill="#FFF" d="M252.236 227.572c-2.796-10.619-13.671-16.962-24.291-14.167-10.619 2.795-16.962 13.672-14.167 24.291 2.796 10.62 13.672 16.963 24.292 14.167s16.961-13.671 14.166-24.291"></path><circle fill="none" stroke="#3F3F3F" stroke-width="1.924" stroke-miterlimit="10" cx="233.008" cy="232.634" r="19.884"></circle><path fill="#FFF" d="M299.608 233.673c-2.796-10.62-13.67-16.963-24.291-14.167-10.619 2.795-16.962 13.672-14.166 24.291 2.795 10.62 13.67 16.961 24.291 14.167 10.62-2.796 16.962-13.672 14.166-24.291"></path><circle fill="none" stroke="#3F3F3F" stroke-width="1.924" stroke-miterlimit="10" cx="280.38" cy="238.735" r="19.884"></circle><path fill="#FFF" d="M225.918 175.47c-2.795-10.62-13.671-16.962-24.291-14.167-10.62 2.796-16.962 13.672-14.167 24.291 2.796 10.62 13.671 16.963 24.292 14.167 10.619-2.797 16.962-13.672 14.166-24.291"></path><circle fill="none" stroke="#3F3F3F" stroke-width="1.924" stroke-miterlimit="10" cx="206.689" cy="180.532" r="19.884"></circle><path fill="#FFF" d="M284.461 241.641c-2.796-10.62-13.672-16.963-24.292-14.167-10.618 2.796-16.961 13.672-14.166 24.292 2.796 10.619 13.671 16.962 24.29 14.166 10.621-2.796 16.964-13.671 14.168-24.291"></path><circle fill="none" stroke="#3F3F3F" stroke-width="1.924" stroke-miterlimit="10" cx="265.232" cy="246.703" r="19.884"></circle><path fill="#FFF" d="M296.635 207.261c-2.795-10.62-13.67-16.962-24.291-14.166-10.62 2.795-16.962 13.67-14.166 24.291 2.795 10.62 13.671 16.962 24.291 14.167 10.62-2.796 16.962-13.673 14.166-24.292"></path><circle fill="none" stroke="#3F3F3F" stroke-width="1.924" stroke-miterlimit="10" cx="277.406" cy="212.323" r="19.884"></circle><path fill="#FFF" d="M275.22 224.175c-2.797-10.62-13.671-16.962-24.29-14.167-10.62 2.796-16.962 13.672-14.167 24.292 2.795 10.62 13.671 16.962 24.291 14.166 10.618-2.796 16.963-13.672 14.166-24.291"></path><circle fill="none" stroke="#3F3F3F" stroke-width="1.924" stroke-miterlimit="10" cx="255.991" cy="229.237" r="19.883"></circle><path fill="#FFF" d="M239.209 205.798c-2.796-10.62-13.672-16.962-24.292-14.167-10.619 2.795-16.961 13.672-14.165 24.292 2.795 10.62 13.67 16.962 24.291 14.166 10.619-2.796 16.961-13.672 14.166-24.291"></path><circle fill="none" stroke="#3F3F3F" stroke-width="1.924" stroke-miterlimit="10" cx="219.98" cy="210.86" r="19.884"></circle><path fill="#FFF" d="M253.867 208.571c-2.796-10.619-13.67-16.962-24.291-14.167-10.619 2.795-16.962 13.672-14.166 24.292 2.794 10.62 13.671 16.963 24.291 14.166 10.62-2.796 16.962-13.671 14.166-24.291"></path><circle fill="none" stroke="#3F3F3F" stroke-width="1.924" stroke-miterlimit="10" cx="234.639" cy="213.634" r="19.884"></circle><path fill="#FFF" d="M244.266 174.619c-2.795-10.62-13.67-16.963-24.291-14.167s-16.963 13.671-14.167 24.291 13.671 16.962 24.292 14.167c10.619-2.796 16.962-13.671 14.166-24.291"></path><circle fill="none" stroke="#3F3F3F" stroke-width="1.924" stroke-miterlimit="10" cx="225.037" cy="179.681" r="19.884"></circle><path fill="#FFF" d="M299.311 184.669c-2.797-10.62-13.672-16.962-24.291-14.167-10.621 2.796-16.963 13.672-14.168 24.292 2.796 10.62 13.672 16.962 24.293 14.166 10.618-2.795 16.961-13.671 14.166-24.291"></path><circle fill="none" stroke="#3F3F3F" stroke-width="1.924" stroke-miterlimit="10" cx="280.081" cy="189.732" r="19.885"></circle><path fill="#FFF" d="M275.151 193.683c-2.796-10.62-13.671-16.963-24.291-14.167-10.619 2.795-16.962 13.671-14.166 24.291s13.671 16.963 24.291 14.167c10.619-2.796 16.962-13.672 14.166-24.291"></path><circle fill="none" stroke="#3F3F3F" stroke-width="1.924" stroke-miterlimit="10" cx="255.923" cy="198.745" r="19.883"></circle><path fill="#FFF" d="M287.62 157.899c-2.796-10.62-13.672-16.962-24.292-14.167-10.619 2.795-16.961 13.67-14.166 24.291 2.796 10.62 13.671 16.963 24.291 14.167 10.62-2.795 16.962-13.671 14.167-24.291"></path><circle fill="none" stroke="#3F3F3F" stroke-width="1.924" stroke-miterlimit="10" cx="268.391" cy="162.961" r="19.884"></circle><path fill="#FFF" d="M270.317 167.76c-2.795-10.62-13.672-16.962-24.291-14.167-10.619 2.796-16.962 13.672-14.167 24.291 2.795 10.62 13.67 16.962 24.291 14.166 10.621-2.795 16.964-13.67 14.167-24.29"></path><circle fill="none" stroke="#3F3F3F" stroke-width="1.924" stroke-miterlimit="10" cx="251.089" cy="172.823" r="19.884"></circle><path fill="#FFF" d="M114.436 133.591s9.256 4.074 16.576-2.903c0 0-24.131-18.553-26.207-46.663 0 0-12.617-1.587-19.453 8.153.001 0 21.873 5.66 29.084 41.413"></path><path fill="none" stroke="#3F3F3F" stroke-width="1.924" stroke-miterlimit="10" d="M114.436 133.591s9.256 4.074 16.576-2.903c0 0-24.131-18.553-26.207-46.663 0 0-12.617-1.587-19.453 8.153.001 0 21.873 5.66 29.084 41.413z"></path><path fill="#FFF" d="M51.947 106.779s32.336-20.981 60.123 9.264c0-.001-26.127 24.467-60.123-9.264"></path><path fill="none" stroke="#3F3F3F" stroke-width="1.924" stroke-miterlimit="10" d="M51.947 106.779s32.336-20.981 60.123 9.264c0-.001-26.127 24.467-60.123-9.264z"></path><path fill="#FFF" d="M449.854 171.859c-1.654 14.563-6.4 29.181-3.702 43.587 3.075 16.416 15.617 31.101 13.701 47.694-.594 5.135-2.579 10.017-5 14.584-7.403 13.963-19.24 25.634-33.56 32.322-14.321 6.688-31.074 8.249-46.232 3.775-8.834-2.606-16.973-7.138-24.803-11.988-16.37-10.143-31.981-22.047-43.562-37.434-4.953-6.582-9.213-13.998-10.288-22.165-2.328-17.653 10.676-33.872 25.444-43.818 14.769-9.945 31.999-16.12 45.744-27.437 14.086-11.598 23.782-28.021 38.611-38.647 6.568-4.705 12.013-6.238 17.371-5.753 1.275.115.827 4.584 3.207 3.207 13.768-7.971 25.06 24.531 23.069 42.073"></path><path fill="none" stroke="#3F3F3F" stroke-width="1.924" stroke-miterlimit="10" d="M449.854 171.859c-1.654 14.563-6.4 29.181-3.702 43.587 3.075 16.416 15.617 31.101 13.701 47.694-.594 5.135-2.579 10.017-5 14.584-7.403 13.963-19.24 25.634-33.56 32.322-14.321 6.688-31.074 8.249-46.232 3.775-8.834-2.606-16.973-7.138-24.803-11.988-16.37-10.143-31.981-22.047-43.562-37.434-4.953-6.582-9.213-13.998-10.288-22.165-2.328-17.653 10.676-33.872 25.444-43.818 14.769-9.945 31.999-16.12 45.744-27.437 14.086-11.598 23.782-28.021 38.611-38.647 6.568-4.705 12.013-6.238 17.371-5.753 1.275.115.827 4.584 3.207 3.207 13.768-7.971 25.06 24.531 23.069 42.073z"></path><path fill="#3F3F3F" d="M133.231 401.18c-33.254-14.623-61.133-35.539-80.656-60.517-20.18-25.816-30.846-55.375-30.846-85.479 0-4.229.214-8.519.638-12.77h448.359c.424 4.251.637 8.542.637 12.77 0 29.938-10.557 59.356-30.528 85.072-19.377 24.95-47.105 45.895-80.199 60.582H134.998a4.5 4.5 0 0 0-1.767.342"></path><path fill="#FFF" d="M469.561 243.698c.346 3.828.521 7.683.521 11.486 0 29.651-10.464 58.797-30.259 84.286-19.199 24.72-46.668 45.489-79.458 60.084H134.997c-.592 0-1.167.085-1.711.246-32.855-14.528-60.396-35.232-79.699-59.927-20.002-25.59-30.574-54.875-30.574-84.689 0-3.802.175-7.658.521-11.486h446.027m2.323-2.566H21.209a130.393 130.393 0 0 0-.763 14.052c0 62.965 45.371 117.946 112.831 147.415.459-.297 1.031-.479 1.719-.479h225.911c66.857-29.583 111.739-84.312 111.739-146.936 0-4.732-.259-9.418-.762-14.052"></path><path fill="#3F3F3F" d="M139.109 418.747a6.742 6.742 0 0 1-6.735-6.735v-1.283a6.742 6.742 0 0 1 6.735-6.734h214.876a6.742 6.742 0 0 1 6.733 6.734v1.283c0 3.714-3.021 6.735-6.733 6.735H139.109z"></path><path fill="#FFF" d="M353.985 404.955a5.78 5.78 0 0 1 5.772 5.773v1.283a5.779 5.779 0 0 1-5.772 5.772H139.109a5.777 5.777 0 0 1-5.772-5.772v-1.283a5.779 5.779 0 0 1 5.772-5.773h214.876m0-1.923H139.109c-4.234 0-7.698 3.464-7.698 7.696v1.283c0 4.232 3.463 7.697 7.698 7.697h214.876c4.232 0 7.696-3.465 7.696-7.697v-1.283c.001-4.232-3.463-7.696-7.696-7.696M423.156 127.252l.927 3.265s-1.001 4.107 6.652 1.446c0 0 3.186-37.639 18.641-45.082 0 0-6.681-11.136-17.816-4.455 0 0 3.6 27.095-8.404 44.826"></path><path fill="none" stroke="#3F3F3F" stroke-width="1.924" stroke-miterlimit="10" d="M423.156 127.252l.927 3.265s-1.001 4.107 6.652 1.446c0 0 3.186-37.639 18.641-45.082 0 0-6.681-11.136-17.816-4.455 0 0 3.6 27.095-8.404 44.826z"></path></svg> 