<?xml version="1.0" encoding="UTF-8"?> <svg xmlns="http://www.w3.org/2000/svg" width="971.307" height="192" viewBox="0 0 971.307 192" fill="#E6E6E6"><path d="M16 32h224c8.801 0 16-7.2 16-16s-7.199-16-16-16H16C7.2 0 0 7.2 0 16s7.201 16 16 16zm224 48H16C7.2 80 0 87.2 0 96s7.2 16 16 16h224c8.801 0 16-7.2 16-16s-7.199-16-16-16zm0 80H16c-8.8 0-16 7.2-16 16s7.2 16 16 16h224c8.801 0 16-7.2 16-16s-7.199-16-16-16zm234.233-99.107l-.586-.098-38.087 105.273h-19.14L378.53 61.186l-.586.098 2.733 62.401v22.363l15.234 2.93v17.09h-58.887v-17.09l15.137-2.93V43.998l-15.137-2.93V23.881h52.344l36.229 104.785h.587l36.522-104.785h52.539v17.188l-15.234 2.93V146.05l15.234 2.931v17.09H456.36v-17.09l15.137-2.931v-22.362l2.736-62.795zm149.969 42.675h-48.146v40.625h45.898l1.27-16.992h21.681v38.867h-112.5v-17.09l15.137-2.931V43.998l-15.137-2.93V23.881H644.71v38.965h-21.875l-1.27-16.992h-45.509v35.742h48.146v21.972zm188.25-79.687v17.188l-15.234 2.93v122.069H768.8l-57.422-95.702-.586.098v75.586l15.234 2.931v17.09h-58.888v-17.09l15.138-2.931V43.998l-15.138-2.93V23.881H710.792l57.422 95.703.586-.098V43.998l-15.233-2.93V23.881H812.452zm73.406 0v17.188l-15.234 2.93v74.219c0 9.375 2.522 16.392 7.568 21.046 5.045 4.654 11.963 6.981 20.752 6.981 8.919 0 15.918-2.312 20.995-6.935 5.078-4.621 7.617-11.652 7.617-21.094V43.998l-15.137-2.93V23.881h58.887v17.188l-15.233 2.93v74.219c0 15.951-5.259 28.257-15.771 36.914-10.515 8.659-24.301 12.988-41.356 12.988-16.992 0-30.713-4.329-41.162-12.988-10.449-8.657-15.674-20.963-15.674-36.914v-74.22l-15.138-2.93V23.881H885.858z"></path></svg> 