<?xml version="1.0" encoding="UTF-8"?> <svg xmlns="http://www.w3.org/2000/svg" width="134.5" height="134.5" viewBox="0 0 134.5 134.5"><path fill="#3F3F3F" d="M74.738 34.391c-3.9 2.87-10.224 3.14-14.349.493-.225-.18-.673-.269-.718-.583 4.754-1.121 10.359-1.211 15.066 0v.09zm-6.77 3.676c-.045 2.467-.09 5.112 0 7.489 2.511 0 4.978-.313 7.399-.896-1.166-2.467-2.871-4.754-4.619-6.996-.896.135-1.885.27-2.78.403zm.785 58.477c.762.045 1.479.359 2.242.269 1.703-2.196 3.273-4.528 4.528-6.95l-.044-.134c-2.378-.584-4.934-.853-7.49-.897-.134 2.646-.089 4.978 0 7.624l.764.088zm3.632.763l1.928.852c1.077-.538 2.108-1.21 3.14-1.838 1.703-1.211 3.543-2.646 4.978-4.306-1.704-.852-3.543-1.479-5.472-1.928l-.134.09c-1.256 2.376-2.69 4.618-4.306 6.815l-.134.315zm-8.722-59.688c-1.839 2.197-3.363 4.574-4.664 7.041 1.211.403 2.735.538 3.946.717 1.256.09 2.377.314 3.633.135 0-2.466.089-5.157-.045-7.489l-2.87-.404zm-29.782 62.846c-.568.045-1.079.31-1.533.795l-1.146 1.223c-.457.488-.688 1.02-.694 1.595-.005.574.256 1.109.785 1.604.514.481 1.056.699 1.627.654s1.085-.312 1.542-.8l1.146-1.223c.451-.482.679-1.011.685-1.585.005-.575-.251-1.104-.768-1.589-.528-.494-1.076-.72-1.644-.674zm27.918 13.023l-1.718-.205-.33 2.754 1.717.206c.578.069 1.034-.005 1.369-.223a1.23 1.23 0 0 0 .575-.926 1.272 1.272 0 0 0-.333-1.056c-.27-.296-.697-.479-1.28-.55zM41.954 23.171c.18-.317.179-.628-.004-.934-.202-.337-.481-.504-.837-.501-.355.003-.806.168-1.35.495l-.946.567 1.132 1.889.905-.542c.553-.332.92-.656 1.1-.974zm-.083 4.724l1.477-.885c.49-.293.812-.591.964-.892s.133-.611-.059-.931c-.202-.338-.463-.529-.783-.574-.32-.045-.73.075-1.231.361l-.075.045-1.483.889 1.19 1.987zm63.741 6.29c.337.081.643-.001.916-.247.28-.252.408-.564.384-.937s-.215-.757-.572-1.155l-.896-.998-1.785 1.604.906 1.009c.361.402.709.643 1.047.724zM89.866 74.84c1.658.942 4.08 1.166 5.873.359 1.121-.404 1.839-1.525 2.063-2.602.448-2.601.224-5.651.269-8.207-.134-1.211-.09-2.556-.762-3.587-1.076-1.436-2.78-1.704-4.529-1.704-1.659.134-3.498.583-4.17 2.331-.853 2.825-.629 6.099-.494 9.194.18 1.57.36 3.23 1.75 4.216zM64.08 17.009c.539-.031.945-.153 1.219-.366.274-.213.4-.503.379-.871a1.102 1.102 0 0 0-.492-.884c-.306-.213-.726-.305-1.26-.273l-1.338.077.138 2.396 1.354-.079zM34.243 31.568l-2.773-1.307-.034.033 1.23 2.805 1.577-1.531zm41.915-15.012l-.047-.008-1.544 2.645 2.165.375-.574-3.012zm16.697 94.477l-2.337-1.984-.041.023.457 3.028 1.921-1.067zm-26.21-14.624l-.045-7.578c-2.511 0-4.933.358-7.265.807l-.224.18c1.3 2.467 2.825 4.844 4.663 7.041.898-.225 1.929-.225 2.871-.45zm5.539-59.148c1.703 2.287 3.229 4.664 4.617 7.04 1.93-.403 3.723-1.121 5.471-1.883l.09-.135c-2.377-2.422-5.201-4.529-8.115-6.009-.675.359-1.436.627-2.063.987zm21.402-8.538c.581.397 1.149.53 1.707.399s1.025-.473 1.403-1.024l.946-1.383c.373-.544.519-1.102.437-1.67-.082-.568-.415-1.053-1-1.454-.599-.409-1.175-.548-1.729-.417-.555.131-1.02.471-1.395 1.019l-.946 1.383c-.378.552-.525 1.112-.443 1.681s.422 1.057 1.02 1.466zM126.5 67.25c0 32.723-26.527 59.25-59.25 59.25S8 99.973 8 67.25 34.527 8 67.25 8s59.25 26.527 59.25 59.25zm-14.273-31.033l-3.271 6.241-2.922 1.63 1.304 2.335 2.838-1.584 7.143.503-1.415-2.536-4.646-.042-.023-.042 2.408-3.97-1.416-2.535zM66.099 74.93c0 .403-.403.628-.717.808-4.216 1.166-8.789.269-11.839-2.96-.358-.448-.583-.986-.941-1.436l-6.055.046c-.089 3.632-.134 7.802 0 11.39l6.727-.045.09-2.152c.763.358 1.524.807 2.287 1.211 4.664 1.973 10.673 2.421 15.292 0 3.363-1.884 5.156-5.516 4.663-9.417-.493-3.812-4.081-7.266-7.713-8.207l-10.852-3.185-.808-.403c-.358-.314-.583-.718-.493-1.211.853-1.479 2.825-1.031 4.305-.986 3.14.448 6.368 1.524 8.206 4.439 1.973 0 4.26.045 6.412-.045.09-3.677-.044-6.906-.09-10.628-2.018-.045-4.483-.045-6.502.045-.09.538.09 1.301-.134 1.839l-2.062-1.121c-4.933-2.108-11.839-2.332-16.323.941-2.915 2.152-3.812 6.009-3.049 9.417.583 3.229 3.632 5.606 6.547 6.728 3.991 1.435 8.161 2.466 12.197 3.856.403.179.941.583.852 1.076zm9.76-29.015l.225.045 1.211 2.332c.404 0 .941.09 1.256-.09l-1.121-2.601.09-.09c2.062-.538 3.99-1.345 5.963-2.152 1.391 1.479 2.691 3.229 3.857 4.933.492 0 .986.045 1.346-.09a17.444 17.444 0 0 0-1.93-2.825 19.382 19.382 0 0 0-1.973-2.421v-.225l3.139-1.838.449-.18a32.985 32.985 0 0 1 7.084 7.488c.539 0 .988.18 1.436-.045-6.008-9.147-15.918-15.022-26.637-15.874l-.045.09-.09-.09c-1.209-.135-2.689-.18-3.989-.045-.494-.045-1.077 0-1.66.045-10.762.852-20.672 6.457-26.86 16.009.448-.045.986.135 1.435-.045a41.382 41.382 0 0 1 3.633-4.439c1.166-1.121 2.242-2.197 3.497-3.004 1.166.762 2.467 1.39 3.588 2.107-1.391 1.749-2.825 3.497-3.856 5.381.313.135.896.09 1.346 0 1.12-1.659 2.331-3.318 3.767-4.798 1.928.717 3.812 1.479 5.784 2.018l.18.18-1.121 2.601c.493.09.808.045 1.301 0 .403-.763.717-1.614 1.165-2.377 2.602.583 5.337.897 8.117.987.358.313.09.986.224 1.39h1.211c.135-.448-.045-.941.135-1.345 2.597-.135 5.332-.404 7.843-1.032zM40.09 75.243l.045-15.74.09-.135 4.439-.045c.045-2.556.09-5.291-.045-7.623l-16.906-.045-2.78.045a212.702 212.702 0 0 0 0 7.578c1.525.045 2.96 0 4.439.135v15.248l-.045.628-4.439.089a102.55 102.55 0 0 0 0 7.399h19.776v-7.399c-1.48-.089-3.139.045-4.574-.135zm40.403 3.723c5.022 4.484 12.332 5.471 18.834 3.632.309-.062 1.289-.313 1.962-.678l.19-.084c2.018-.853 3.946-2.242 5.381-4.126 3.319-4.933 3.543-12.333 1.525-17.894-.807-2.152-2.467-4.08-4.484-5.471-5.83-3.767-14.709-4.035-20.717-.628-3.273 1.704-5.426 5.067-6.1 8.521-1.21 5.696-.896 12.467 3.409 16.728zM104.88 27.75l-6.876 6.175 1.792 1.996 2.635-2.367.96 1.068c.374.417.572.812.594 1.184.021.372-.132.705-.459.999l-.416.373c-.217.195-.428.427-.631.694s-.283.524-.239.77l1.851 2.06.095-.085c-.051-.253.009-.516.178-.789a3.02 3.02 0 0 1 .524-.652l.435-.39c.415-.374.659-.8.731-1.281.071-.48-.069-1.038-.424-1.673.57.312 1.089.471 1.554.476a1.76 1.76 0 0 0 1.232-.471c.639-.574.881-1.318.727-2.231-.155-.914-.68-1.868-1.573-2.864l-2.69-2.992zm-13.138-5.058l-.939 1.373c-.643.939-.797 1.971-.463 3.094.333 1.124 1.104 2.099 2.314 2.926 1.2.822 2.381 1.183 3.542 1.083s2.063-.62 2.707-1.56l.938-1.372c.641-.936.795-1.967.462-3.092-.332-1.125-1.097-2.097-2.293-2.915-1.205-.825-2.391-1.188-3.558-1.089-1.166.099-2.069.616-2.71 1.552zm-6.363-4.998l-2.79 7.061 2.494.986 2.79-7.061 2.841 1.123.607-1.535-8.125-3.211-.606 1.535 2.789 1.102zM69.93 21.889l2.783.481.963-1.657 3.386.585.358 1.885 2.783.481-2.146-9.751-1.415-.245-.009.005.001-.006-1.415-.245-5.289 8.467zm-10.116-8.69l.534 9.227 2.677-.155-.205-3.536 1.434-.083c.56-.032.992.06 1.295.275.304.216.469.543.494.982l.032.558c.017.292.066.6.149.926.082.326.233.548.452.667l2.764-.16-.008-.126c-.229-.118-.396-.329-.504-.632a2.95 2.95 0 0 1-.184-.816l-.033-.583c-.031-.558-.213-1.015-.544-1.371-.331-.356-.854-.594-1.571-.713.6-.251 1.047-.557 1.342-.917.295-.36.428-.779.4-1.256-.05-.858-.48-1.511-1.29-1.96-.81-.449-1.883-.635-3.219-.558l-4.015.231zM47.66 20.324l.489 1.59c.335 1.088 1.045 1.851 2.132 2.29 1.087.438 2.331.442 3.731.011 1.39-.428 2.408-1.127 3.053-2.098.645-.971.8-2 .465-3.089l-.489-1.589c-.333-1.084-1.044-1.846-2.131-2.287-1.087-.44-2.324-.447-3.709-.021-1.396.429-2.418 1.131-3.067 2.106s-.808 2.004-.474 3.087zm-11.993 2.438l4.751 7.927 3.777-2.264c1.211-.726 2.022-1.481 2.435-2.266.412-.785.386-1.563-.078-2.336a1.888 1.888 0 0 0-1.088-.851c-.475-.149-1.038-.098-1.688.154.374-.426.582-.851.624-1.273a1.907 1.907 0 0 0-.275-1.2c-.433-.722-1.102-1.06-2.008-1.013-.906.047-1.974.439-3.203 1.176l-3.247 1.946zm-7.283 6.416l3.732 9.257 2.027-1.967-.773-1.753 2.465-2.393 1.735.819 2.027-1.968-9.147-4.001-1.03 1-.001.01-.004-.004-1.031 1zm-8.622 11.295l7.728 5.07 4.191-6.389-1.38-.905-2.72 4.146-6.348-4.164-1.471 2.242zm8.263 52.342c-.054.385-.323.725-.808 1.019l1.354 2.232h.045c.901-.521 1.377-1.267 1.428-2.235.051-.968-.303-2.078-1.063-3.331-.71-1.172-1.581-1.932-2.612-2.281-1.031-.349-2.028-.231-2.99.353l-1.65 1.001c-.966.586-1.523 1.43-1.671 2.531-.149 1.102.147 2.263.888 3.483.727 1.199 1.521 1.983 2.382 2.355.861.371 1.737.275 2.627-.29l.024-.033-1.354-2.231c-.492.298-.914.395-1.265.289s-.686-.421-1.004-.945c-.343-.565-.44-1.101-.291-1.605s.5-.926 1.054-1.261l1.661-1.008c.55-.333 1.074-.463 1.573-.388.498.075.904.37 1.217.886.357.587.508 1.075.455 1.459zm10.453 10.35c-.158-1.163-.766-2.239-1.824-3.23-1.065-.997-2.183-1.536-3.351-1.616-1.168-.079-2.14.295-2.915 1.123l-1.137 1.214c-.778.831-1.088 1.826-.928 2.987.159 1.161.773 2.242 1.843 3.244 1.062.994 2.174 1.53 3.337 1.607 1.163.077 2.133-.299 2.912-1.13l1.137-1.214c.775-.828 1.084-1.823.926-2.985zm15.586 7.465l-3.221-1.484-5.078 4.781-.043-.02.358-6.957-3.192-1.472-3.868 8.394 2.436 1.123 2.455-5.327.046.015-.188 6.379 1.636.754 4.808-4.348.041.025-2.492 5.408 2.436 1.122 3.866-8.393zm11.069 2.44c-.732-.65-1.778-1.057-3.138-1.22l-4.38-.525-1.101 9.176 2.663.319.377-3.145 1.718.206c1.36.163 2.473.016 3.337-.44.864-.457 1.351-1.137 1.459-2.04s-.203-1.68-.935-2.331zm31.825-26.929a7.64 7.64 0 0 0-1.435 0c-1.884 2.735-4.261 5.381-6.86 7.444-.09.134-.359.089-.449-.045-1.121-.718-2.332-1.301-3.408-2.019 1.436-1.749 2.825-3.498 3.902-5.426h-1.391c-1.121 1.659-2.287 3.408-3.767 4.888-1.974-.807-3.767-1.524-5.785-2.062l-.224-.18c.313-.896.896-1.749 1.076-2.646h-1.211l-1.211 2.421c-2.646-.582-5.561-.896-8.251-1.075-.135-.404.044-.987-.135-1.346h-1.166c-.09.538.135.941-.135 1.391-2.779.134-5.471.448-8.071.986l-1.211-2.377c-.448 0-.941-.09-1.256.045l1.121 2.646-.134.135a54.825 54.825 0 0 0-5.92 2.107l-.179-.09c-1.256-1.39-2.467-2.915-3.453-4.439-.225-.762-1.121-.313-1.614-.403 1.076 1.973 2.511 3.722 3.946 5.516-1.211.718-2.422 1.524-3.678 2.107-2.69-2.062-5.201-4.753-7.085-7.578-.538-.09-.896-.045-1.435 0 2.897 4.588 7.246 8.638 11.898 11.337.065.053 1.796 1.058 1.86 1.076 3.493 1.705 7.202 2.932 11.129 3.461 13.77 1.839 26.909-4.125 34.532-15.874zm-18.874 34.323l-.207-1.637-4.92.621-.951-7.532-2.661.336 1.158 9.17 7.581-.958zm6.778-1.981l-2.786-8.812-2.55.807 2.786 8.812 2.55-.807zm13.267-6.437l-7.79-6.244-1.255.697-.004.009-.003-.005-1.256.697 1.194 9.909 2.469-1.371-.29-1.895 3.004-1.668 1.462 1.242 2.469-1.371zm10.749-9.836l-6.522-6.547-1.895 1.887 4.09 4.105-.024.043-7.096-1.13-1.899 1.893 6.523 6.548 1.899-1.894-4.095-4.109.024-.043 7.101 1.134 1.894-1.887zm5.752-8.699l-6.544-3.849 1.548-2.633-1.422-.837-4.429 7.53 1.422.837 1.521-2.586 6.544 3.85 1.36-2.312zM50.705 21.128c.196.639.542 1.104 1.039 1.394s1.09.329 1.783.116c.672-.207 1.131-.569 1.375-1.087s.269-1.096.072-1.735l-.493-1.602c-.194-.631-.539-1.091-1.035-1.381s-1.083-.331-1.76-.123c-.693.213-1.161.577-1.403 1.092s-.267 1.09-.071 1.725l.493 1.601zm7.308 13.756c-.381-.212-1.303.068-1.771.272-3.318 1.076-6.031 2.598-8.856 4.706v.09c1.076.763 2.197 1.435 3.408 1.884 2.512-2.512 5.247-4.574 8.027-6.323a3.8 3.8 0 0 0-.808-.629zM83.887 41.7l3.094-1.749.09-.179c-3.229-2.332-6.771-4.036-10.537-5.023-.314.225-.764.449-.854.763 2.826 1.659 5.605 3.767 7.982 6.188h.225zM60.098 99.818c-.135.134-.448.179-.358.403 4.753 1.166 10.045 1.121 14.798.09.089-.09.448 0 .313-.27-4.08-2.959-10.582-2.959-14.753-.223zM47.407 94.57v.136c3.229 2.331 6.727 4.035 10.493 5.021.313-.179.673-.448.897-.717-2.871-1.839-5.517-3.768-8.072-6.323-1.165.494-2.242 1.211-3.318 1.883zm14.888 2.692c-1.614-2.332-3.229-4.664-4.529-7.13l-.179-.045c-1.884.493-3.723 1.121-5.472 1.973v.135a30.236 30.236 0 0 0 8.162 6.009c.628-.359 1.39-.584 2.018-.942zm-.111-60.091c-.673-.313-1.346-.538-2.019-.807-2.87 1.524-5.471 3.497-7.937 5.874l-.09.269c1.704.763 3.497 1.346 5.336 1.839l.18-.045c1.345-2.287 2.69-4.618 4.395-6.771l.135-.359zm13.653 61.705l-.09.135c.314.269.629.538.987.717l2.108-.673c2.959-1.121 5.873-2.466 8.385-4.484-1.076-.762-2.242-1.435-3.453-1.927-2.465 2.465-5.067 4.528-7.937 6.232zM67.25 4c34.932 0 63.25 28.318 63.25 63.25s-28.318 63.25-63.25 63.25S4 102.182 4 67.25 32.318 4 67.25 4m0-4C30.168 0 0 30.168 0 67.25s30.168 67.25 67.25 67.25 67.25-30.168 67.25-67.25S104.332 0 67.25 0z"></path></svg> 