<?xml version="1.0" encoding="UTF-8"?> <svg xmlns="http://www.w3.org/2000/svg" width="1327.439" height="337.066" viewBox="0 0 1327.439 337.066"><path fill="#339EFF" d="M402.238 18.663c3.945 0 7.793 1.005 11.54 3.02 3.747 2.012 6.675 4.894 8.78 8.645s3.158 7.66 3.158 11.73c0 4.047-1.037 7.93-3.11 11.647-2.07 3.717-4.972 6.604-8.694 8.66-3.727 2.058-7.617 3.086-11.674 3.086-4.055 0-7.94-1.027-11.656-3.085-3.715-2.056-6.607-4.943-8.68-8.66-2.072-3.72-3.11-7.6-3.11-11.648 0-4.07 1.056-7.98 3.16-11.73 2.106-3.75 5.03-6.632 8.78-8.645 3.746-2.014 7.582-3.02 11.506-3.02zm0 2.013c-3.594 0-7.1.923-10.516 2.77-3.416 1.848-6.084 4.483-8.002 7.903-1.918 3.42-2.877 6.99-2.877 10.706 0 3.696.943 7.238 2.828 10.625 1.886 3.39 4.526 6.03 7.92 7.92 3.396 1.892 6.944 2.838 10.647 2.838 3.705 0 7.258-.946 10.666-2.838 3.404-1.89 6.05-4.53 7.936-7.92 1.882-3.386 2.825-6.928 2.825-10.624 0-3.717-.957-7.286-2.877-10.707-1.918-3.42-4.586-6.057-8.002-7.903-3.415-1.848-6.933-2.77-10.548-2.77zm-12.963 6.994h12.764c3.196 0 5.632.722 7.31 2.162 1.672 1.44 2.512 3.184 2.512 5.23 0 1.67-.568 3.14-1.703 4.404-1.138 1.265-3.015 2.24-5.638 2.92l6.91 9.833c.836 1.166 1.588 1.968 2.248 2.407.418.266 1.002.43 1.752.496v1.088h-6.082l-9.725-13.362h-2.512v10.195c.133.727.447 1.255.94 1.584.5.33 1.483.496 2.962.496v1.088h-12.137v-1.087c1.06 0 1.807-.127 2.25-.38.44-.253.76-.622.957-1.105.156-.352.232-1.375.232-3.068V33.312c0-1.627-.033-2.584-.1-2.87-.154-.506-.436-.896-.844-1.17-.406-.276-1.107-.413-2.1-.413v-1.19zm7.838 13.76c2.602 0 4.502-.253 5.705-.76 1.2-.505 2.12-1.215 2.76-2.128.64-.912.96-1.95.96-3.117 0-1.78-.624-3.277-1.868-4.487-1.246-1.21-2.84-1.815-4.78-1.815-.837 0-1.763.177-2.776.53V41.43zM616.86 0v39.893h-3.643c-2.74-10.41-7.843-18.39-15.312-23.935-7.47-5.546-15.937-8.32-25.396-8.32-7.907 0-15.158 2.067-21.756 6.197-6.6 4.132-11.423 9.537-14.473 16.21-3.92 8.548-5.88 18.055-5.88 28.522 0 10.3 1.43 19.68 4.295 28.14 2.86 8.46 7.344 14.853 13.444 19.182 6.1 4.327 14.004 6.492 23.715 6.492 7.966 0 15.266-1.583 21.894-4.753 6.63-3.17 13.616-8.63 20.96-16.384v9.933c-7.095 6.732-14.485 11.614-22.174 14.64-7.688 3.026-16.665 4.54-26.937 4.54-13.51 0-25.506-2.46-35.993-7.384-10.49-4.923-18.58-11.996-24.277-21.22-5.696-9.223-8.543-19.04-8.543-29.454 0-10.977 3.158-21.39 9.477-31.235 6.318-9.847 14.846-17.484 25.585-22.916C542.583 2.717 553.99 0 566.067 0c8.9 0 18.3 1.755 28.196 5.262 5.727 2.037 9.367 3.056 10.925 3.056 1.99 0 3.718-.664 5.18-1.994 1.463-1.33 2.413-3.438 2.848-6.323h3.642zm47.707 2.63v98.632c0 5.602.713 9.182 2.146 10.737 1.432 1.556 4.233 2.447 8.404 2.672v3.057h-47.15v-3.058c3.858-.11 6.722-1.13 8.59-3.056 1.244-1.3 1.867-4.753 1.867-10.354V19.098c0-5.546-.716-9.096-2.148-10.652-1.434-1.556-4.202-2.448-8.31-2.674v-3.14h36.6zm92.105 53.898c-3.396-6.562-8.357-11.627-14.894-15.192-6.536-3.564-13.6-5.348-21.194-5.348-12.637 0-22.58 4.23-29.832 12.69-7.25 8.46-10.878 18.376-10.878 29.75 0 11.034 3.55 20.74 10.645 29.114 7.096 8.376 17.21 12.562 30.344 12.562 13.383 0 23.87-4.584 31.465-13.75 6.285-7.583 9.43-17.004 9.43-28.266 0-7.807-1.697-14.993-5.088-21.56zm-24.23 47.534c-.81 3.453-2.427 6.14-4.855 8.064-1.866 1.415-4.2 2.12-7.002 2.12-2.864 0-5.416-1.045-7.657-3.14s-3.703-5.15-4.39-9.167c-.87-5.264-1.305-10.922-1.305-16.977 0-11.43.356-20.357 1.073-26.78.716-6.42 2.21-10.724 4.48-12.9 2.272-2.18 4.996-3.27 8.17-3.27 2.615 0 4.73.594 6.35 1.784 2.302 1.642 4.046 4.258 5.23 7.85 1.18 3.594 1.774 10.2 1.774 19.82 0 16.356-.625 27.22-1.87 32.595zm120.75-65.696v62.132c0 6.056.62 9.832 1.867 11.33 1.243 1.5 3.765 2.45 7.56 2.844v3.057h-35.57v-10.61c-4.172 4.528-8.345 7.823-12.513 9.888-4.172 2.065-8.84 3.1-14.006 3.1-4.916 0-9.288-1.374-13.118-4.118-3.827-2.743-6.395-5.955-7.702-9.634-1.307-3.678-1.96-10.102-1.96-19.27v-31.49c0-5.996-.607-9.73-1.82-11.202-1.216-1.472-3.75-2.433-7.61-2.887v-3.14h35.573v54.237c0 5.66.294 9.31.887 10.95.59 1.642 1.525 2.885 2.802 3.735 1.274.847 2.753 1.27 4.434 1.27 2.24 0 4.264-.536 6.07-1.61 2.488-1.473 5.476-4.444 8.964-8.914v-42.44c0-5.997-.607-9.732-1.82-11.203-1.216-1.472-3.752-2.433-7.61-2.887v-3.14h35.57zm104.77 70.704c-1.4-.904-2.353-2.29-2.85-4.158-.372-1.132-.56-4.782-.56-10.95V2.632h-38.747v3.564c4.107 0 6.908.396 8.402 1.188 1.494.794 2.615 2.01 3.36 3.648.562 1.248.84 4.897.84 10.95V45.92c-3.672-3.68-7.127-6.25-10.36-7.725-3.24-1.47-6.943-2.207-11.113-2.207-6.474 0-12.526 1.728-18.16 5.178-5.633 3.452-10.068 8.56-13.305 15.322-3.238 6.762-4.855 14.416-4.855 22.96 0 10.692 2.614 19.72 7.844 27.076 6.472 9.054 15.277 13.58 26.422 13.58 4.356 0 8.262-.878 11.716-2.63 3.457-1.754 7.392-5.064 11.812-9.932v12.562l36.88-6.537v-2.8c-3.486-.225-5.927-.79-7.33-1.697zM928.41 98.206c-4.854 7.808-10.022 11.713-15.5 11.713-2.49 0-4.45-.537-5.88-1.612-2.802-2.15-5.012-5.63-6.63-10.44-1.62-4.81-2.428-12.224-2.428-22.24 0-9.11.73-15.87 2.193-20.284 1.463-4.415 3.346-7.5 5.65-9.253 1.493-1.13 3.39-1.696 5.694-1.696 6.66 0 12.292 4.018 16.898 12.053v41.76zM616.86 179.44v39.895h-3.643c-2.74-10.41-7.843-18.39-15.312-23.935-7.47-5.545-15.937-8.32-25.396-8.32-7.907 0-15.158 2.067-21.756 6.197-6.6 4.13-11.423 9.536-14.473 16.212-3.92 8.545-5.88 18.05-5.88 28.52 0 10.3 1.43 19.678 4.295 28.137 2.86 8.46 7.344 14.854 13.444 19.184 6.1 4.33 14.004 6.495 23.715 6.495 7.966 0 15.266-1.584 21.894-4.754 6.63-3.167 13.616-8.628 20.96-16.38v9.93c-7.095 6.735-14.485 11.615-22.174 14.643-7.688 3.026-16.665 4.54-26.937 4.54-13.51 0-25.506-2.46-35.993-7.385-10.49-4.923-18.58-11.995-24.277-21.22-5.696-9.224-8.543-19.04-8.543-29.453 0-10.978 3.158-21.39 9.477-31.237s14.846-17.484 25.585-22.916c10.734-5.432 22.14-8.15 34.218-8.15 8.9 0 18.3 1.757 28.196 5.264 5.727 2.036 9.367 3.056 10.925 3.056 1.99 0 3.718-.664 5.18-1.995 1.463-1.33 2.413-3.438 2.848-6.323h3.642zm47.728 2.632v45.922c4.792-4.585 9.18-7.823 13.165-9.72 3.982-1.895 8.123-2.843 12.418-2.843 5.48 0 10.162 1.416 14.054 4.245 3.89 2.83 6.473 6.152 7.748 9.974 1.275 3.818 1.916 10.255 1.916 19.31v30.98c0 6.056.62 9.833 1.866 11.33 1.245 1.5 3.766 2.45 7.562 2.845v3.056H679.06v-3.055c3.11-.396 5.445-1.527 7.002-3.396 1.12-1.472 1.682-5.063 1.682-10.78v-35.396c0-6.562-.28-10.68-.842-12.35-.56-1.67-1.51-2.972-2.848-3.904-1.338-.936-2.848-1.4-4.528-1.4-2.49 0-4.92.777-7.282 2.333-2.365 1.558-4.918 4.286-7.656 8.19v42.525c0 5.66.467 9.196 1.4 10.61 1.182 1.925 3.61 3.113 7.283 3.565v3.056h-44.256v-3.057c3.67-.34 6.286-1.414 7.843-3.227 1.058-1.243 1.588-4.893 1.588-10.95V199.3c0-5.996-.606-9.73-1.82-11.203-1.215-1.47-3.75-2.432-7.61-2.886v-3.14h35.573zm125.97 101.73c-3.05 1.896-6.442 2.843-10.177 2.843-6.038 0-11.204-2.346-15.498-7.044-5.603-6.11-8.685-14.43-9.244-24.955h47.898c-.5-12.956-4-22.732-10.504-29.325-6.506-6.59-14.177-9.888-23.015-9.888-10.584 0-19.81 3.92-27.685 11.755-7.874 7.84-11.81 18.378-11.81 31.618 0 10.81 2.674 19.86 8.027 27.16 6.66 9.057 16.463 13.582 29.41 13.582 7.53 0 14.16-1.824 19.89-5.475 5.724-3.65 10.953-9.86 15.685-18.63l-3.175-1.868c-3.485 4.923-6.753 8.332-9.802 10.228zm-35.387-37.814c0-8.77 1.836-15.674 5.51-20.71 2.054-2.888 4.7-4.33 7.937-4.33 2.178 0 3.92.51 5.23 1.528 2.3 1.754 3.997 4.327 5.087 7.723 1.09 3.395 1.635 9.648 1.635 18.76H755.17v-2.972zm91.06-28.18v10.44c4.794-4.753 9.23-8.077 13.306-9.973 4.076-1.896 8.544-2.844 13.4-2.844 5.602 0 10.3 1.19 14.1 3.565 3.794 2.377 6.72 5.998 8.775 10.863 4.98-5.092 9.758-8.77 14.332-11.032 4.575-2.263 9.35-3.396 14.332-3.396 6.037 0 10.846 1.26 14.426 3.776 3.578 2.52 6.068 5.715 7.47 9.592 1.4 3.876 2.1 10.06 2.1 18.546v32.51c0 6.11.607 9.902 1.82 11.374 1.216 1.472 3.75 2.434 7.61 2.886v3.056H912.8v-3.056c3.55-.282 6.163-1.527 7.845-3.734 1.12-1.528 1.68-5.036 1.68-10.525v-34.122c0-7.073-.312-11.57-.934-13.497-.622-1.922-1.604-3.352-2.94-4.285-1.34-.934-2.91-1.4-4.716-1.4-2.677 0-5.386.893-8.123 2.674-2.74 1.782-5.51 4.457-8.31 8.022v42.61c0 5.714.527 9.31 1.587 10.777 1.433 2.095 4.17 3.255 8.218 3.48v3.057h-45.19v-3.056c2.428-.113 4.342-.665 5.742-1.656 1.4-.988 2.334-2.178 2.802-3.563.467-1.387.7-4.4.7-9.04v-34.122c0-7.186-.312-11.685-.936-13.497-.622-1.81-1.664-3.224-3.127-4.242-1.464-1.018-3.035-1.53-4.715-1.53-2.492 0-4.763.596-6.816 1.784-2.93 1.754-6.04 4.753-9.34 8.998v42.61c0 5.602.607 9.292 1.822 11.076 1.214 1.78 3.75 2.843 7.61 3.183v3.056h-45.004v-3.055c3.672-.34 6.286-1.414 7.842-3.227 1.06-1.243 1.588-4.923 1.588-11.033v-44.817c0-5.997-.605-9.732-1.82-11.204-1.213-1.47-3.752-2.433-7.61-2.885v-3.143h35.573zm156.72 0v62.896c0 5.603.715 9.182 2.148 10.737 1.43 1.56 4.23 2.45 8.403 2.676v3.056h-47.15v-3.056c3.858-.113 6.722-1.132 8.59-3.055 1.244-1.302 1.867-4.754 1.867-10.356V234.36c0-5.603-.717-9.18-2.146-10.737-1.432-1.556-4.2-2.447-8.31-2.673v-3.142h36.6zm-13.07-38.45c4.043 0 7.47 1.287 10.27 3.86 2.8 2.576 4.2 5.674 4.2 9.294 0 3.624-1.416 6.706-4.247 9.253-2.833 2.546-6.242 3.82-10.224 3.82-3.986 0-7.378-1.274-10.18-3.82-2.8-2.547-4.2-5.63-4.2-9.253 0-3.62 1.4-6.718 4.2-9.295 2.802-2.57 6.194-3.86 10.18-3.86zm85.213 36.242l1.4 27.078h-3.174c-3.8-8.035-7.735-13.523-11.813-16.468-4.077-2.94-8.138-4.413-12.185-4.413-2.553 0-4.73.78-6.536 2.334-1.807 1.56-2.707 3.354-2.707 5.39 0 1.53.62 3.002 1.866 4.415 1.99 2.322 7.562 6.297 16.713 11.926 9.15 5.632 15.17 10.413 18.066 14.346 2.895 3.934 4.34 8.334 4.34 13.2 0 4.413-1.212 8.74-3.64 12.986-2.428 4.242-5.853 7.497-10.27 9.76-4.422 2.263-9.307 3.396-14.66 3.396-4.172 0-9.742-1.188-16.713-3.564-1.867-.622-3.144-.934-3.828-.934-2.055 0-3.768 1.416-5.135 4.244h-3.08l-1.495-28.52h3.174c2.802 7.47 6.643 13.07 11.53 16.806 4.886 3.733 9.507 5.604 13.866 5.604 2.987 0 5.43-.836 7.328-2.505 1.898-1.67 2.848-3.693 2.848-6.07 0-2.717-.933-5.063-2.8-7.044-1.868-1.98-6.04-4.98-12.513-8.998-9.524-5.998-15.687-10.58-18.487-13.75-4.108-4.64-6.163-9.763-6.163-15.365 0-6.11 2.32-11.642 6.956-16.593 4.638-4.952 11.345-7.427 20.122-7.427 4.73 0 9.303 1.047 13.725 3.14 1.68.85 3.05 1.274 4.108 1.274 1.122 0 2.024-.213 2.71-.638.683-.426 1.77-1.626 3.266-3.61h3.177zm49.648-26.822v29.03h20.73v8.4h-20.73v48.98c0 4.58.235 7.54.702 8.868.468 1.33 1.29 2.406 2.474 3.226 1.182.82 2.27 1.23 3.27 1.23 4.045 0 7.872-2.8 11.484-8.402l2.8 1.867c-5.04 10.864-13.228 16.297-24.555 16.297-5.542 0-10.225-1.4-14.053-4.202-3.83-2.8-6.272-5.926-7.33-9.38-.622-1.922-.934-7.128-.934-15.616V226.21h-11.39v-2.97c7.842-5.035 14.518-10.326 20.026-15.872s10.317-11.74 14.426-18.59h3.08zm64.845 29.03v17.994c5.79-8.203 10.86-13.65 15.22-16.34 4.353-2.687 8.557-4.03 12.603-4.03 3.485 0 6.27.976 8.357 2.927 2.084 1.952 3.128 4.71 3.128 8.276 0 3.792-1.014 6.733-3.036 8.827-2.023 2.095-4.467 3.14-7.328 3.14-3.3 0-6.164-.96-8.59-2.885-2.43-1.925-3.862-3-4.297-3.226-.623-.34-1.34-.51-2.147-.51-1.807 0-3.518.624-5.135 1.868-2.552 1.924-4.48 4.67-5.788 8.232-1.993 5.49-2.987 11.544-2.987 18.165v18.25l.093 4.752c0 3.225.217 5.292.653 6.196.748 1.526 1.854 2.646 3.316 3.352 1.46.708 3.935 1.146 7.422 1.316v3.056h-47.15v-3.056c3.796-.282 6.363-1.23 7.703-2.844 1.338-1.612 2.01-5.87 2.01-12.774v-43.883c0-4.526-.25-7.412-.748-8.657-.624-1.585-1.527-2.745-2.708-3.48-1.184-.735-3.27-1.244-6.256-1.527v-3.143h35.667zm90.516 82.588l-28.195-58.82c-4.234-8.885-7.36-14.348-9.384-16.384-2.022-2.038-4.465-3.45-7.33-4.243v-3.143h46.404v3.142c-3.05.112-5.197.65-6.44 1.61-1.247.964-1.87 2.122-1.87 3.48 0 2.15 1.557 6.395 4.67 12.732l14.94 31.066 10.177-24.022c3.673-8.543 5.51-14.484 5.51-17.823 0-2.094-.763-3.764-2.288-5.01-1.525-1.243-4.218-1.922-8.076-2.035v-3.142h29.224v3.142c-2.863.283-5.198 1.288-7.003 3.012-1.806 1.73-4.825 7.598-9.057 17.614l-24.928 58.82c-6.288 14.714-10.957 23.767-14.007 27.162-4.295 4.753-9.68 7.13-16.15 7.13-5.168 0-9.355-1.345-12.56-4.03-3.207-2.69-4.81-5.93-4.81-9.72 0-3.283 1.105-6 3.316-8.15 2.208-2.15 4.933-3.225 8.17-3.225 3.11 0 5.615.906 7.516 2.72 1.898 1.81 2.88 4.61 2.94 8.4.062 2.15.343 3.536.842 4.16.496.623 1.212.935 2.146.935 1.495 0 3.08-.822 4.763-2.463 2.488-2.376 5.415-7.81 8.775-16.297l2.71-6.62zM179.678 194.773c9.442 8.1 21.042 12.797 34.543 14.035-.143 1.525-.23 3.07-.23 4.64 0 13.91 5.678 25.833 16.87 35.433 11.126 9.54 25.23 14.38 41.922 14.38 9.412 0 18.336-2.553 26.527-7.584 7.167-4.445 13.153-10.29 17.782-17.39l.955-1.462-5.48-2.764-.79 1.05c-4.388 5.823-9.358 10.495-14.772 13.89-6.078 3.8-12.322 5.723-18.566 5.723-12.032 0-22-3.633-29.64-10.81-7.933-7.415-11.953-17.48-11.953-29.91 0-2.528.146-4.995.43-7.392 3.732-1.235 7.358-2.9 10.847-5.04 7.17-4.447 13.15-10.295 17.782-17.39l.953-1.462-5.48-2.766-.788 1.045c-4.387 5.828-9.358 10.502-14.774 13.896-2.294 1.434-4.61 2.6-6.943 3.496.225-.812.462-1.614.726-2.403 1.805-5.455 4.45-10.195 7.85-14.082 7.413-8.39 17.024-12.643 28.567-12.643 7.666 0 14.672 2.584 20.82 7.678 6.127 5.082 9.75 11.236 10.764 18.293l.196 1.342h6.945l-3.015-35.154h-5.42l-.29 1.19c-.37 1.504-1.038 2.746-2.04 3.803-.783.822-1.516 1.283-2.186 1.37-3.917-1.413-7.888-2.868-11.812-4.325l-.107-.035c-4.542-1.326-10.13-2.002-16.604-2.002-15.94 0-29.937 5.122-41.6 15.22-7.703 6.67-12.895 14.307-15.562 22.803-7.16-1.596-13.355-4.81-18.492-9.635-7.93-7.418-11.95-17.48-11.95-29.91 0-6.46.925-12.52 2.748-18.018 1.808-5.452 4.45-10.193 7.853-14.082 7.412-8.39 17.02-12.64 28.565-12.64 7.668 0 14.673 2.583 20.82 7.68 6.128 5.08 9.748 11.233 10.766 18.29l.19 1.34h6.948l-3.018-35.153h-5.416l-.293 1.19c-.37 1.502-1.035 2.747-2.04 3.803-.78.823-1.515 1.28-2.187 1.37-3.91-1.413-7.88-2.867-11.81-4.325l-.105-.032c-4.543-1.33-10.132-2.005-16.604-2.005-15.942 0-29.94 5.12-41.602 15.216-11.73 10.155-17.676 22.542-17.676 36.812.002 13.908 5.68 25.834 16.875 35.43zm280.118 31.15c0-26.442-9.382-52.063-26.416-72.14-15.434-18.19-36.276-30.88-59.23-36.188-.31-42.887-25.702-81.48-64.87-98.484l-5.973 13.76c33.925 14.728 55.846 48.296 55.846 85.52 0 1.635-.043 3.295-.13 4.936-.196 3.804 2.488 7.152 6.244 7.785 21.98 3.707 42.105 15.205 56.674 32.377 14.74 17.37 22.855 39.544 22.855 62.436 0 53.015-42.795 96.145-95.396 96.145H110.395c-52.602 0-95.396-43.13-95.396-96.145 0-46.58 32.958-86.372 78.365-94.614 3.52-.64 6.1-3.677 6.16-7.254.254-15.08 6.27-29.212 16.942-39.795 10.67-10.58 24.788-16.408 39.756-16.408 1.635 0 3.29.07 4.92.213l1.296-14.943c-2.06-.18-4.15-.27-6.217-.27-18.952 0-36.822 7.372-50.32 20.76-12.028 11.93-19.37 27.43-21.027 44.154C35.35 129.523 0 174.09 0 225.922c0 61.285 49.523 111.145 110.396 111.145h239.002c60.874 0 110.397-49.86 110.397-111.145zm-229.81 73.15c-31.905 0-63.67-3.624-89.445-10.202-31.843-8.127-53.535-20.226-64.474-35.96l-.094-.138c-7.692-11.61-7.8-28.32-.27-41.585l.42-.656 97.843-136.98.428-.432c.993-1 2.392-4.78 2.392-10.052V36.478c-5.326-3.34-8.855-9.73-8.855-17.01C167.93 8.733 175.695 0 185.24 0h89.315c9.545 0 17.31 8.733 17.31 19.468 0 7.146-3.46 13.494-8.68 16.88v26.72c0 5.142 1.28 8.93 3.914 11.582l97.103 136.376.263.53c7.673 15.453 6.808 31.934-2.234 43.11-22.652 32.768-96.1 44.406-152.246 44.406zm-141.552-54.65c19.146 27.387 84.868 39.65 141.553 39.65 54.967 0 122.234-11.93 140.035-38.124l.427-.568c5.252-6.343 5.562-16.754.83-26.648l-84.565-118.92-4.564-6.42-6.152-8.65c-5.183-5.476-7.81-12.764-7.81-21.677V24.83l6.46-.906c.774-.108 2.22-1.734 2.22-4.456 0-2.728-1.517-4.468-2.31-4.468H185.24c-.793 0-2.31 1.74-2.31 4.468 0 2.717 1.477 4.373 2.236 4.463l6.62.784v38.353c0 4.045-.624 13.935-6.27 20.115l-96.95 135.73c-4.467 8.142-4.535 18.796-.133 25.51z"></path></svg> 