<?xml version="1.0" encoding="UTF-8"?> <!-- Generator: Adobe Illustrator 16.0.4, SVG Export Plug-In . SVG Version: 6.00 Build 0) --> <svg xmlns="http://www.w3.org/2000/svg" xmlns:xlink="http://www.w3.org/1999/xlink" id="Layer_1" x="0px" y="0px" width="437px" height="223px" viewBox="0 0 437 223" xml:space="preserve"> <path fill="#3F3F3F" d="M321.564,119.105c0-6.635,2.964-11.3,6.924-11.3v0.005c3.104,0,4.655,2.264,4.655,6.639 c0,6.635-2.819,11.439-6.918,11.439C323.117,125.889,321.564,123.632,321.564,119.105z M246.568,137.723h-6.887 c-4.315,13.219-11.896,24.894-21.747,34.318c-9.798-9.4-17.309-21.12-21.604-34.277h-6.889c4.443,14.786,12.61,27.967,23.413,38.485 c-14.236,11.49-32.229,18.61-51.975,18.61c-45.764,0-82.87-37.096-82.87-82.854c0-45.758,37.102-82.865,82.87-82.865 c19.752,0,37.738,7.131,51.975,18.659c-10.808,10.477-18.975,23.656-23.413,38.446h6.889c4.296-13.164,11.807-24.877,21.604-34.215 c9.854,9.363,17.44,21.025,21.747,34.253h6.887c-4.455-14.874-12.771-28.033-23.655-38.548 c14.274-11.646,32.351-18.601,52.205-18.601v0.006c45.769,0,82.87,37.106,82.87,82.87s-37.104,82.855-82.87,82.855 c-19.854,0-37.931-6.959-52.205-18.611C233.799,165.734,242.113,152.602,246.568,137.723z M312.368,120.253 c0,8.478,4.238,13.983,10.737,13.983c3.246,0,5.79-1.127,8.19-3.672l-0.411,3.248h8.33l6.777-41.657h-8.76l-1.979,11.864 c-2.402-3.108-4.945-4.66-8.477-4.66C319.007,99.359,312.368,108.96,312.368,120.253z M300.662,99.926l-5.37,33.891h8.754 l0.011-0.004c3.246-20.756,4.098-24.29,8.324-24.29h0.565c0.851-4.092,1.978-7.058,3.389-9.741l-0.282-0.139h-0.851 c-2.963,0-4.663,1.413-7.343,5.51l0.85-5.227H300.662z M272.134,108.535l0.851-0.144l1.135-0.42c1.979-0.564,4.943-0.85,7.482-0.85 c4.099,0,5.654,0.85,5.654,3.107c0,0.564-0.142,0.989-0.425,2.114c-1.274-0.137-2.544-0.271-3.53-0.271 c-9.893,0-15.535,4.794-15.535,13.129c0,5.512,3.246,9.184,8.051,9.184c4.098,0,7.062-1.273,9.32-4.097l-0.146,3.53h7.343v-0.852 l0.143-1.273l0.277-1.688l0.287-2.123l1.836-12.001c0.703-3.808,0.703-5.085,0.703-6.779c0-6.494-3.95-9.885-11.582-9.885 c-3.246,0-6.21,0.425-10.59,1.691L272.134,108.535z M124.146,133.809l6.918-41.659h-13.839l-8.477,25.844l-0.425-25.844H95.614 l-6.919,41.659h8.193l5.371-31.771l0.703,31.771h6.076l11.439-32.053l-5.091,32.053H124.146z M153.227,127.88l1.979-12.001 c0.564-3.809,0.703-5.085,0.703-6.779c0-6.494-4.096-9.885-11.72-9.885c-3.247,0-6.213,0.425-10.591,1.691l-1.274,7.629l0.845-0.144 l1.274-0.42c1.978-0.564,4.808-0.85,7.344-0.85c4.092,0,5.651,0.85,5.651,3.107c0,0.564,0,0.989-0.285,2.114 c-1.414-0.137-2.684-0.271-3.672-0.271c-9.888,0-15.531,4.794-15.531,13.129c0,5.512,3.246,9.184,8.046,9.184 c4.097,0,7.065-1.273,9.323-4.097l-0.139,3.53h7.343l0.14-0.852l0.139-1.273l0.147-1.697L153.227,127.88z M166.926,109.944 c0-1.839,1.553-2.688,4.377-2.688c1.696,0,4.097,0.146,6.354,0.425l1.272-7.769c-2.259-0.424-5.788-0.707-7.769-0.707 c-9.885,0-13.412,5.224-13.273,11.435c0,4.233,1.98,7.201,6.641,9.461c3.672,1.698,4.235,2.262,4.235,3.672 c0,2.125-1.553,3.109-5.085,3.109c-2.683,0-5.085-0.425-7.907-1.271l-1.274,7.77l0.425,0.143l1.553,0.278 c0.563,0.144,1.274,0.288,2.404,0.288c1.978,0.271,3.672,0.271,4.805,0.271c9.321,0,13.698-3.529,13.698-11.287 c0-4.662-1.833-7.344-6.216-9.469v0.013C167.355,111.922,166.926,111.499,166.926,109.944z M187.68,123.785 c0-0.426,0-0.852,0.142-1.415l2.397-14.118h4.521l1.127-8.332h-4.521l0.991-5.085h-8.76l-3.815,23.16l-0.425,2.681l-0.563,3.389 c-0.14,0.985-0.286,2.121-0.286,2.97c0,4.937,2.544,7.485,7.065,7.485c1.977,0,3.954-0.289,6.354-1.136l1.128-7.483 c-0.564,0.285-1.414,0.285-2.402,0.285l0.016,0.002C188.53,126.188,187.68,125.482,187.68,123.785z M203.503,120.825 c0-0.288,0-0.562,0.139-0.986h17.518c0.844-3.534,1.127-5.933,1.127-8.477c0-7.487-4.66-12.289-12.004-12.289 c-8.896,0-15.397,8.612-15.397,20.194c0,10.021,5.086,15.248,14.968,15.248c3.252,0,6.074-0.427,9.182-1.412l1.414-8.472 c-3.108,1.554-5.931,2.113-9.183,2.113l0.004,0.012C206.186,126.757,203.503,124.779,203.503,120.825z M239.939,109.524 c0.849-4.092,1.972-7.058,3.388-9.741l-0.283-0.139h-0.851c-2.969,0-4.661,1.413-7.342,5.51l0.849-5.228h-8.052l-5.506,33.89h8.896 c3.246-20.754,4.097-24.288,8.334-24.288v-0.005H239.939z M257.323,134.661c2.393,0,4.511-0.424,7.757-1.271l1.552-9.454 c-2.821,1.41-5.36,2.114-7.485,2.114c-5.225,0-8.328-3.813-8.328-10.166c0-9.182,4.656-15.675,11.299-15.675 c2.544,0,4.81,0.702,7.915,2.258l1.553-9.037c-0.846-0.281-1.128-0.426-2.261-0.845l-3.53-0.85 c-1.127-0.278-2.538-0.426-4.097-0.426c-11.719,0-19.91,10.451-19.91,25.272C241.787,127.742,247.721,134.661,257.323,134.661z M276.23,123.769c0.002,2.123,1.274,3.395,3.248,3.395c3.535,0,6.219-3.39,6.355-8.478c-0.986,0-1.412-0.142-1.979-0.142 C278.781,118.544,276.233,120.376,276.23,123.769z M214.099,111.203l-0.001-0.006c0-2.824-1.552-4.377-4.236-4.377 c-2.827,0-4.798,2.124-5.649,6.075h9.886V111.203z M136.564,123.794l0.006-0.007c0,2.125,1.127,3.398,3.107,3.398 c3.675,0,6.217-3.39,6.356-8.478c-0.847,0-1.272-0.144-1.978-0.144C139.11,118.564,136.564,120.4,136.564,123.794z M407,0H218.5h0 H30C13.458,0,0,13.458,0,30v163c0,16.542,13.458,30,30,30h188.5h0H407c16.542,0,30-13.458,30-30V30C437,13.458,423.542,0,407,0z M427,193c0,11.027-8.972,20-20,20H218.5h0H30c-11.028,0-20-8.973-20-20V30c0-11.028,8.972-20,20-20h188.5h0H407 c11.028,0,20,8.972,20,20V193z"></path> </svg> 