<?xml version="1.0" encoding="UTF-8"?> <svg xmlns="http://www.w3.org/2000/svg" width="436" height="223" viewBox="0 0 436 223"><path fill="#3F3F3F" d="M42.254 36.094l36.81 100.205 99.751-31.304h-16.221V61.892h16.518v43.01l26.27-8.245L174.864 28.7l-132.61 7.394zm65.912 47.192c-1.102 1.888-2.675 3.619-4.719 4.877-2.045 1.259-4.562 2.203-7.394 2.832s-5.978.944-9.596.944H83.94v12.899H67.58V61.892h19.192c7.236 0 12.899 1.259 16.989 3.618 4.09 2.359 6.136 6.135 6.136 11.012-.001 2.517-.63 4.719-1.731 6.764zm47.664 20.293c-2.517.63-2.832.787-5.349 1.259a46.398 46.398 0 0 1-8.651.786c-4.562 0-8.652-.472-12.113-1.573-3.618-1.101-6.606-2.517-9.124-4.404-2.517-1.888-4.404-4.248-5.663-6.922-1.259-2.832-1.888-5.82-1.888-9.124s.629-6.292 2.045-9.124a22.64 22.64 0 0 1 5.82-7.08c2.518-1.887 5.506-3.46 8.967-4.561 3.46-1.102 7.236-1.573 11.325-1.573 3.146 0 6.136.157 8.81.629 2.674.63 2.674.63 4.719 1.417v11.482a19.25 19.25 0 0 0-5.505-2.202c-2.045-.629-4.247-.944-6.45-.944-3.775 0-6.764 1.101-9.124 2.989-2.36 2.045-3.461 4.876-3.461 8.809 0 1.888.314 3.619 1.101 5.191.787 1.416 1.73 2.674 2.989 3.618 1.258.943 2.674 1.73 4.405 2.202 1.73.472 3.46.788 5.349.788 1.888 0 3.932-.158 5.82-.63 1.888-.471 3.933-.944 5.978-1.888v10.855zm25.012-55.215c0 2.831-.944 5.191-2.832 6.764-1.888 1.573-4.247 2.517-7.079 2.517s-5.191-.786-7.079-2.517c-1.887-1.573-2.831-3.933-2.831-6.764 0-2.989.944-5.191 2.831-6.922 1.888-1.73 4.248-2.517 7.079-2.517s5.191.787 7.079 2.517c1.888 1.573 2.832 3.933 2.832 6.922zM340.45 93.711h-5.266v-22.75h5.266v22.75zm-107.413 89.553l2.922 9.711h-5.951l2.9-9.711h.129zm-68.959-2.987c.823.889 1.235 2.027 1.235 3.416 0 1.361-.416 2.475-1.246 3.341-.831.867-2.034 1.3-3.609 1.3h-4.684v-9.389h4.684c1.59 0 2.796.445 3.62 1.332zm-71.517.366c1.053 1.433 1.579 3.266 1.579 5.5v5.672c0 2.264-.523 4.111-1.568 5.543-1.046 1.433-2.521 2.148-4.426 2.148-1.962 0-3.47-.716-4.522-2.148-1.053-1.432-1.579-3.279-1.579-5.543v-5.672c0-2.248.519-4.085 1.558-5.511 1.038-1.425 2.539-2.138 4.501-2.138 1.918 0 3.404.717 4.457 2.149zm277.771-5.444c1.834 1.639 2.797 4.689 2.719 8.484H357.27c-.072-3.725.912-6.832 2.744-8.475 1.223-1.102 2.908-1.635 5.148-1.635 2.254.001 3.945.532 5.17 1.626zM94.165 76.679c0 2.045-.786 3.619-2.202 4.405-1.416.944-3.618 1.416-6.292 1.416h-1.888V71.017h2.045c5.506 0 8.337 1.887 8.337 5.662zm208.974 32.682h5.266v22.75h-5.266l-8.328-14.312-.094.031v14.281h-5.281v-22.75h5.281l8.328 14.297.094-.031v-14.266zm27.686-17.588c-.178-.76-.266-1.438-.266-2.031v-1.438c0-1.375-.305-2.523-.914-3.445s-1.612-1.581-3.008-1.977c1.208-.531 2.122-1.219 2.742-2.062.619-.844.93-1.854.93-3.031 0-2.114-.771-3.781-2.312-5-1.542-1.219-3.631-1.828-6.266-1.828h-7.922v22.75h5.281v-8.719h2.828c1.104 0 1.942.287 2.516.859.572.573.859 1.401.859 2.484v1.375c0 .719.062 1.484.188 2.297s.396 1.38.812 1.703h5.453v-.312c-.436-.322-.744-.864-.921-1.625zm-6.625-11.57c-.562.484-1.375.727-2.438.727h-2.672v-5.906h2.641c1.052 0 1.867.284 2.445.852.578.568.867 1.315.867 2.242.001.905-.28 1.601-.843 2.085zm18.219 29.158l-.016.016v-.016h-2.828l-7.422 22.75h5.562l1.312-4.422h6.766l1.328 4.422h5.562l-7.438-22.75h-2.826zm-2.172 14.266l2.109-7.062h.094l2.125 7.062h-4.328zm20.171-48.604h-6.016v18.688h-5.281V75.023h-5.906v-4.062h17.203v4.062zm-56.045-4.062h5.297v14.75c0 2.604-.865 4.644-2.594 6.117-1.729 1.474-3.984 2.211-6.766 2.211-2.803 0-5.073-.737-6.812-2.211-1.74-1.474-2.609-3.513-2.609-6.117v-14.75h5.297v14.75c0 1.406.364 2.469 1.094 3.188.729.719 1.739 1.078 3.031 1.078 1.281 0 2.278-.356 2.992-1.07.713-.713 1.07-1.778 1.07-3.195V70.961zm16.624 38.4h-8.328v22.75h8.328c2.677 0 4.916-.869 6.719-2.609 1.802-1.74 2.703-3.979 2.703-6.719v-4.094c0-2.73-.901-4.967-2.703-6.711-1.803-1.745-4.042-2.617-6.719-2.617zm4.125 13.422c0 1.553-.389 2.818-1.164 3.797-.776.979-1.764 1.469-2.961 1.469h-3.047v-14.625h3.047c1.197 0 2.185.488 2.961 1.469.775.979 1.164 2.234 1.164 3.766v4.124zm-32.561-67.472l1.312-4.422h6.766l1.328 4.422h5.562l-7.438-22.75h-2.828l-.016.016v-.016h-2.828l-7.422 22.75h5.564zm4.64-15.547h.094l2.125 7.062h-4.328l2.109-7.062zm-9.686 38.744l-.047.094h-5.141c0-1.396-.297-2.396-.891-3-.594-.604-1.568-.906-2.922-.906-1.188 0-2.1.477-2.734 1.43-.636.953-.953 2.222-.953 3.805v4.781c0 1.594.349 2.87 1.047 3.828.697.958 1.697 1.438 3 1.438 1.208 0 2.08-.302 2.617-.906.536-.604.805-1.614.805-3.031h5.141l.031.094c.041 2.594-.69 4.56-2.195 5.898-1.506 1.339-3.639 2.008-6.398 2.008-2.812 0-5.07-.859-6.773-2.578s-2.555-3.969-2.555-6.75v-4.75c0-2.771.82-5.018 2.461-6.742 1.641-1.724 3.81-2.586 6.508-2.586 2.885 0 5.117.672 6.695 2.016s2.345 3.294 2.304 5.857zM406 0H30C13.458 0 0 13.458 0 30v163c0 16.542 13.458 30 30 30h376c16.542 0 30-13.458 30-30V30c0-16.542-13.458-30-30-30zM69.167 183.865h-7.068c0-1.919-.408-3.294-1.225-4.125-.816-.83-2.156-1.246-4.018-1.246-1.633 0-2.886.655-3.76 1.966-.874 1.311-1.311 3.055-1.311 5.231v6.574c0 2.191.479 3.946 1.439 5.264.959 1.318 2.334 1.977 4.125 1.977 1.661 0 2.861-.415 3.599-1.246.737-.83 1.106-2.22 1.106-4.168h7.068l.043.129c.057 3.566-.949 6.271-3.019 8.11-2.07 1.841-5.002 2.761-8.798 2.761-3.867 0-6.972-1.182-9.313-3.545s-3.513-5.457-3.513-9.281v-6.531c0-3.81 1.128-6.899 3.384-9.271 2.256-2.37 5.238-3.556 8.948-3.556 3.967 0 7.036.924 9.206 2.771s3.226 4.533 3.169 8.057l-.062.129zm32.213 7.949c0 3.854-1.221 7.029-3.663 9.528-2.442 2.5-5.633 3.749-9.571 3.749-3.968 0-7.183-1.249-9.646-3.749-2.464-2.499-3.695-5.675-3.695-9.528v-5.629c0-3.838 1.228-7.011 3.685-9.518 2.456-2.506 5.661-3.76 9.614-3.76 3.924 0 7.118 1.254 9.582 3.76 2.463 2.507 3.695 5.68 3.695 9.518v5.629zm39.948 12.827h-7.262v-20.152l-.129-.021-6.896 20.174h-4.877l-6.768-19.873-.129.021v19.852h-7.262v-31.281h9.518l7.004 21.893h.129l7.068-21.893h9.604v31.28zm27.96-13.546c-2.177 1.884-5.121 2.825-8.83 2.825h-4.684v10.721h-7.262V173.36h11.945c3.709 0 6.653.945 8.83 2.836 2.177 1.891 3.266 4.376 3.266 7.455.001 3.079-1.088 5.561-3.265 7.444zm30.172 13.546h-20.689V173.36h7.262v25.695h13.428v5.586zm13.781 0H206V173.36h7.24v31.281zm26.22 0l-1.826-6.08h-9.303l-1.805 6.08h-7.648l10.205-31.281h3.889v.021l.021-.021h3.889l10.227 31.281h-7.649zm38.164 0h-7.24l-11.451-19.68-.129.043v19.637h-7.262V173.36h7.262l11.451 19.658.129-.043V173.36h7.24v31.281zm28.324-25.696h-8.271v25.695h-7.262v-25.695h-8.121v-5.586h23.654v5.586zm77.528 26.344c0 2.604-2.535 4.715-5.664 4.715h-25.254c-3.127 0-5.664-2.111-5.664-4.715v-16.893c0-2.02 1.535-3.729 3.682-4.4-.102-3.713.562-9.025 4.521-12.58 2.527-2.27 5.914-3.42 10.062-3.42 4.162 0 7.549 1.145 10.074 3.402 3.086 2.754 4.645 7.191 4.496 12.582 2.182.658 3.746 2.379 3.746 4.416v16.893zM426 155H10V30c0-11.028 8.972-20 20-20h376c11.028 0 20 8.972 20 20v125zm-54.035-24.826c-.178-.76-.266-1.438-.266-2.031v-1.438c0-1.375-.305-2.523-.914-3.445s-1.612-1.582-3.008-1.977c1.208-.531 2.122-1.219 2.742-2.062.619-.844.93-1.855.93-3.031 0-2.115-.771-3.781-2.312-5-1.542-1.219-3.631-1.828-6.266-1.828h-7.922v22.75h5.281v-8.719h2.828c1.104 0 1.942.285 2.516.859.572.572.859 1.4.859 2.484v1.375c0 .719.062 1.484.188 2.297s.396 1.381.812 1.703h5.453v-.312c-.437-.322-.744-.865-.921-1.625zm-6.625-11.57c-.562.484-1.375.727-2.438.727h-2.672v-5.906h2.641c1.052 0 1.867.283 2.445.852.578.566.867 1.314.867 2.242.001.905-.281 1.6-.843 2.085zm16.797-47.643l-7.719 14.75v8h-5.266v-8.234l-7.594-14.516h5.719l4.516 9.938h.094l4.531-9.938h5.719zm2.187 38.4h-8.328v22.75h8.328c2.677 0 4.916-.869 6.719-2.609 1.802-1.74 2.703-3.979 2.703-6.719v-4.094c0-2.73-.901-4.967-2.703-6.711-1.803-1.745-4.042-2.617-6.719-2.617zm4.125 13.422c0 1.553-.389 2.818-1.164 3.797-.776.979-1.764 1.469-2.961 1.469h-3.047v-14.625h3.047c1.197 0 2.185.488 2.961 1.469.775.979 1.164 2.234 1.164 3.766v4.124zm-111.544-13.422l-.016.016v-.016h-2.828l-7.422 22.75h5.562l1.312-4.422h6.766l1.328 4.422h5.562l-7.438-22.75h-2.826zm-2.172 14.266l2.109-7.062h.094l2.125 7.062h-4.328zm-26.78 2.422c0 2-.781 3.564-2.344 4.695s-3.636 1.695-6.219 1.695c-2.573 0-4.753-.607-6.539-1.82-1.787-1.213-2.654-3.123-2.602-5.727l.031-.094h5.141c0 1.322.325 2.264.977 2.82.65.557 1.648.836 2.992.836 1.104 0 1.927-.219 2.469-.656.541-.438.812-1.01.812-1.719 0-.812-.266-1.436-.797-1.867-.531-.434-1.495-.895-2.891-1.383-2.823-.918-4.92-1.895-6.289-2.93-1.37-1.037-2.055-2.529-2.055-4.477 0-1.906.797-3.448 2.391-4.625 1.594-1.177 3.619-1.766 6.078-1.766 2.594 0 4.682.607 6.266 1.82 1.583 1.213 2.349 2.924 2.297 5.133l-.031.094h-5.125c0-1.074-.292-1.852-.875-2.336-.584-.484-1.464-.727-2.641-.727-.959 0-1.714.234-2.266.703-.553.469-.828 1.047-.828 1.734 0 .666.283 1.199.852 1.602.567.4 1.627.902 3.18 1.508 2.635.781 4.63 1.734 5.984 2.859 1.354 1.128 2.032 2.669 2.032 4.628zm8.796-51.026v4.891h8.016v4.062h-8.016v5.672h9.609v4.062h-14.891V70.96h14.906v4.062h-9.624zm19.609-38.399h-5.906v-4.062h17.203v4.062h-6.016v18.688h-5.281V36.624zm-19.062 14.265h6.766l1.328 4.422h5.562l-7.438-22.75h-2.828l-.016.016v-.016h-2.828l-7.422 22.75h5.562l1.314-4.422zm3.328-11.125h.094l2.125 7.062h-4.328l2.109-7.062zm6.672 73.66h-6.016v18.688h-5.281v-18.688h-5.906v-4.063h17.203v4.063zm-28.03-80.863h-8.328v22.75h8.328c2.677 0 4.916-.87 6.719-2.609 1.802-1.739 2.703-3.979 2.703-6.719v-4.094c0-2.729-.901-4.966-2.703-6.711-1.803-1.744-4.043-2.617-6.719-2.617zm4.125 13.422c0 1.552-.389 2.818-1.164 3.797-.776.979-1.764 1.469-2.961 1.469h-3.047V36.624h3.047c1.197 0 2.185.49 2.961 1.469.775.979 1.164 2.234 1.164 3.766v4.124zm4.562 41.665c0 2-.781 3.565-2.344 4.695-1.562 1.13-3.636 1.695-6.219 1.695-2.573 0-4.753-.606-6.539-1.82-1.787-1.213-2.654-3.122-2.602-5.727l.031-.094h5.141c0 1.323.325 2.263.977 2.82.65.558 1.648.836 2.992.836 1.104 0 1.927-.219 2.469-.656.541-.438.812-1.01.812-1.719 0-.812-.266-1.435-.797-1.867-.531-.432-1.495-.893-2.891-1.383-2.823-.917-4.92-1.893-6.289-2.93-1.37-1.036-2.055-2.528-2.055-4.477 0-1.906.797-3.448 2.391-4.625 1.594-1.177 3.619-1.766 6.078-1.766 2.594 0 4.682.607 6.266 1.82 1.583 1.214 2.349 2.925 2.297 5.133l-.031.094h-5.125c0-1.073-.292-1.852-.875-2.336-.584-.484-1.464-.727-2.641-.727-.959 0-1.714.234-2.266.703-.553.469-.828 1.047-.828 1.734 0 .667.283 1.201.852 1.602.567.401 1.627.904 3.18 1.508 2.635.781 4.63 1.734 5.984 2.859 1.354 1.128 2.032 2.67 2.032 4.628z"></path></svg> 