<?xml version="1.0" encoding="UTF-8"?> <svg xmlns="http://www.w3.org/2000/svg" width="582" height="232" viewBox="0 0 582 232"><path fill="#FFF" d="M582 207c0 13.807-11.193 25-25 25H25c-13.807 0-25-11.193-25-25V25C0 11.193 11.193 0 25 0h532c13.807 0 25 11.193 25 25v182z"></path><path d="M164.604 131.344a62.455 62.455 0 0 1-2.544 8.053c.995-1.178 2.178-2.352 3.34-2.966 4.005-2.118 9.748-.491 9.748-.491s-2.089 4.937-6.238 6.334c-3.704 1.247-6.881.993-8.395.748a68.073 68.073 0 0 1-4.14 7.613c1.242-1.051 2.711-2.092 4.042-2.522 4.4-1.419 9.88 1.234 9.88 1.234s-2.976 4.586-7.39 5.257c-4.031.611-7.232-.257-8.665-.772a73.613 73.613 0 0 1-5.532 6.899c1.473-.873 3.198-1.707 4.663-1.91 4.671-.645 9.712 2.99 9.712 2.99s-3.804 4.086-8.362 3.977c-4.192-.104-7.27-1.568-8.601-2.332a76.376 76.376 0 0 1-6.538 5.838c1.625-.607 3.493-1.139 4.994-1.082 4.808.182 9.228 4.725 9.228 4.725s-4.546 3.434-9.106 2.514c-4.148-.834-6.966-2.816-8.19-3.834a72.865 72.865 0 0 1-6.914 4.393c1.6-.268 3.324-.396 4.668-.109 4.798 1.031 8.436 6.381 8.436 6.381s-5.176 2.648-9.596.916c-3.874-1.52-6.319-3.885-7.431-5.164a59.359 59.359 0 0 1-7.476 2.973c1.621.023 3.325.203 4.591.719 4.641 1.887 7.348 7.908 7.348 7.908s-5.667 1.742-9.804-.779c-3.759-2.297-5.81-5.236-6.647-6.668-5.876 1.057-10.771 2.697-14.755 4.496 7.223 3.797 10.172 7.309 10.172 7.309l-2.563 2.289s-3.361-4.092-10.772-8.043c-7.412 3.951-10.774 8.043-10.774 8.043l-2.566-2.289s2.95-3.512 10.175-7.309c-3.985-1.799-8.881-3.439-14.759-4.496-.838 1.432-2.89 4.371-6.646 6.668-4.137 2.521-9.806.779-9.806.779s2.705-6.021 7.346-7.908c1.268-.516 2.975-.695 4.596-.719a59.603 59.603 0 0 1-7.476-2.973c-1.114 1.277-3.558 3.645-7.431 5.164-4.422 1.732-9.599-.916-9.599-.916s3.638-5.35 8.436-6.381c1.346-.287 3.07-.156 4.672.109a73.274 73.274 0 0 1-6.916-4.393c-1.224 1.016-4.044 3-8.192 3.834-4.563.92-9.106-2.514-9.106-2.514s4.422-4.543 9.226-4.725c1.503-.057 3.375.475 5.004 1.086a77.018 77.018 0 0 1-6.543-5.842c-1.331.764-4.408 2.229-8.604 2.332-4.559.109-8.361-3.977-8.361-3.977s5.039-3.635 9.711-2.99c1.469.203 3.196 1.043 4.669 1.912a73.872 73.872 0 0 1-5.536-6.901c-1.431.514-4.632 1.387-8.667.772-4.417-.671-7.391-5.257-7.391-5.257s5.482-2.653 9.88-1.234c1.336.431 2.804 1.477 4.05 2.531a67.975 67.975 0 0 1-4.144-7.626c-1.514.249-4.692.503-8.397-.744-4.149-1.397-6.237-6.334-6.237-6.334s5.742-1.627 9.748.491c1.162.617 2.349 1.794 3.346 2.975a62.246 62.246 0 0 1-2.548-8.062c-1.461-.007-4.641-.27-8.086-2.148-3.765-2.056-4.941-7.176-4.941-7.176s5.817-.591 9.321 2.132c1.079.839 2.075 2.293 2.856 3.672a64.141 64.141 0 0 1-1.293-8.718c-1.432-.267-4.414-1.073-7.372-3.438-3.286-2.625-3.55-7.768-3.55-7.768s5.716.421 8.633 3.646c.882.976 1.585 2.506 2.101 3.947-.074-3.04.054-6.058.369-9.03-1.295-.473-4.114-1.751-6.635-4.613-2.725-3.091-2.103-8.098-2.103-8.098s5.447 1.379 7.71 4.987c.754 1.198 1.185 3.011 1.429 4.602a74.257 74.257 0 0 1 2.035-9.364c-1.103-.618-3.725-2.34-5.744-5.654-2.106-3.444-.656-8.172-.656-8.172s5.023 2.256 6.598 6.125c.576 1.415.646 3.479.58 5.153a76.012 76.012 0 0 1 3.721-9.337c-.962-.789-3.195-2.895-4.583-6.43-1.439-3.684.765-8 .765-8s4.463 3.031 5.322 7.034c.308 1.438.042 3.396-.297 4.985a69.485 69.485 0 0 1 5.266-8.532c-.828-.985-2.54-3.357-3.251-6.894-.768-3.804 2.095-7.593 2.095-7.593s3.794 3.687 3.942 7.694c.05 1.341-.459 3.034-1.015 4.455 2.083-2.614 4.298-4.949 6.587-6.957-.6-.998-1.956-3.653-2.045-7.346-.094-3.801 3.317-6.975 3.317-6.975s3.031 4.207 2.489 8.101c-.212 1.544-1.271 3.438-2.166 4.809a75.75 75.75 0 0 1 8.165-6.202c-.38-.937-1.352-3.83-.782-7.584.559-3.681 4.386-6.165 4.386-6.165s2.211 4.575 1.025 8.241c-.514 1.6-2.086 3.429-3.226 4.605a69.38 69.38 0 0 1 9.299-4.896c-.195-.887-.693-3.903.525-7.519C68.878 37.46 73 35.72 73 35.72s1.352 4.788-.413 8.127c-.82 1.554-2.847 3.151-4.15 4.074a59.981 59.981 0 0 1 4.922-1.76c.596-.729 2.648-3.022 5.117-3.445 2.1-.355 5.626.992 5.626.992s-1.691 2.304-5.107 3.478c-2.455.843-5.193-.478-5.722-.752a68.221 68.221 0 0 0-6.707 2.757c1.27-.235 4.664-.764 6.709-.094 3.584 1.176 5.938 5.562 5.938 5.562s-4.174 1.603-7.413-.079c-3.609-1.872-5.339-4.604-5.673-5.18a72.783 72.783 0 0 0-9.566 5.573c1.49-.523 4.275-1.36 6.183-1.087 3.81.546 6.952 4.537 6.952 4.537s-3.91 2.351-7.463 1.232c-3.725-1.165-5.915-3.394-6.528-4.084a76.76 76.76 0 0 0-8.026 6.558c-.21.185-.417.375-.626.567 1.412-.794 4.034-2.107 5.984-2.172 3.927-.128 7.791 3.331 7.791 3.331s-3.514 3.053-7.284 2.561c-3.995-.521-6.598-2.405-7.298-2.965-2.571 2.466-5.018 5.355-7.265 8.586 1.289-1.051 3.667-2.808 5.598-3.215 3.926-.825 8.418 1.965 8.418 1.965s-2.988 3.69-6.864 3.866c-4.007.181-6.92-1.185-7.806-1.658a70.492 70.492 0 0 0-5.163 9.145c1.167-1.272 2.892-2.929 4.468-3.562 3.796-1.526 8.806.482 8.806.482s-2.344 4.239-6.21 5.099c-3.706.828-6.699.152-7.89-.206a75.16 75.16 0 0 0-3.423 9.478c.941-1.431 2.268-3.166 3.625-4.007 3.541-2.204 8.934-1.073 8.934-1.073s-1.607 4.675-5.338 6.223c-3.476 1.445-6.525 1.349-7.854 1.204a72.666 72.666 0 0 0-1.786 9.999c.691-1.617 1.729-3.644 2.966-4.747 3.17-2.846 8.787-2.664 8.787-2.664s-.786 4.982-4.263 7.202c-3.257 2.081-6.362 2.516-7.707 2.604a67.38 67.38 0 0 0 .023 10.045c.406-1.755 1.097-4.006 2.15-5.348 2.684-3.42 8.358-4.233 8.358-4.233s.092 5.147-3.006 7.992c-2.897 2.663-5.931 3.65-7.273 3.98a62.34 62.34 0 0 0 1.729 9.041c.123-1.745.435-3.835 1.181-5.224 2.09-3.914 7.649-5.736 7.649-5.736s1.004 5.158-1.604 8.563c-2.371 3.099-5.147 4.631-6.489 5.236a62.621 62.621 0 0 0 3.177 8.677c-.191-1.795-.262-4.005.247-5.562 1.411-4.303 6.674-7.117 6.674-7.117s1.924 5.001-.096 8.888c-1.822 3.52-4.328 5.55-5.574 6.4a67.466 67.466 0 0 0 4.465 7.531c-.451-1.676-.813-3.636-.596-5.143.65-4.57 5.442-8.335 5.442-8.335s2.82 4.687 1.48 8.949c-1.165 3.708-3.205 6.149-4.337 7.287a72.427 72.427 0 0 0 5.505 6.442c-.693-1.535-1.317-3.291-1.366-4.739-.149-4.71 3.997-9.34 3.997-9.34s3.663 4.21 3.072 8.73c-.502 3.854-2.065 6.636-3.011 8.011a75.145 75.145 0 0 0 6.357 5.344c-.939-1.393-1.834-3-2.131-4.41-.988-4.705 2.359-10.091 2.359-10.091s4.427 3.583 4.636 8.228c.178 3.953-.901 7.021-1.604 8.576a69.59 69.59 0 0 0 7.4 4.312c-1.273-1.283-2.59-2.846-3.173-4.309-1.826-4.553.581-10.559.581-10.559s5.083 2.812 6.117 7.447c.898 4.023.316 7.352-.121 9.006a55.275 55.275 0 0 0 7.722 2.67c-1.43-1.033-2.907-2.301-3.705-3.588-2.642-4.254-1.286-10.719-1.286-10.719s5.606 1.93 7.465 6.4c1.508 3.631 1.615 6.875 1.501 8.707a66.234 66.234 0 0 1 9.983 2.695 69.47 69.47 0 0 1 5.59 2.252 69.652 69.652 0 0 1 5.586-2.252 67.035 67.035 0 0 1 9.978-2.695c-.113-1.828-.006-5.072 1.502-8.707 1.858-4.471 7.468-6.4 7.468-6.4s1.355 6.465-1.287 10.719c-.802 1.287-2.276 2.555-3.708 3.588a54.033 54.033 0 0 0 7.727-2.67c-.438-1.654-1.021-4.98-.121-9.006 1.03-4.635 6.118-7.447 6.118-7.447s2.404 6.006.58 10.559c-.586 1.463-1.904 3.031-3.177 4.311a69.098 69.098 0 0 0 7.403-4.314c-.704-1.553-1.783-4.617-1.604-8.576.207-4.645 4.635-8.228 4.635-8.228s3.348 5.386 2.358 10.091c-.294 1.412-1.193 3.025-2.137 4.418a74.757 74.757 0 0 0 6.365-5.35c-.941-1.377-2.51-4.154-3.011-8.013-.591-4.521 3.072-8.73 3.072-8.73s4.146 4.63 3.995 9.34c-.047 1.45-.673 3.212-1.369 4.745a72.884 72.884 0 0 0 5.513-6.445c-1.133-1.137-3.176-3.579-4.342-7.29-1.336-4.263 1.483-8.949 1.483-8.949s4.79 3.765 5.441 8.335c.217 1.509-.147 3.476-.6 5.153a67.08 67.08 0 0 0 4.47-7.54c-1.243-.851-3.753-2.882-5.578-6.402-2.016-3.887-.093-8.888-.093-8.888s5.26 2.814 6.674 7.117c.51 1.561.437 3.775.244 5.573a62.557 62.557 0 0 0 3.181-8.688c-1.339-.605-4.118-2.139-6.49-5.237-2.607-3.405-1.605-8.563-1.605-8.563s5.56 1.822 7.652 5.736c.746 1.392 1.056 3.485 1.182 5.233a62.286 62.286 0 0 0 1.729-9.051c-1.34-.329-4.377-1.317-7.272-3.98-3.098-2.845-3.009-7.992-3.009-7.992s5.673.813 8.359 4.233c1.058 1.343 1.746 3.602 2.154 5.357.265-3.377.262-6.74.02-10.055-1.341-.086-4.447-.521-7.709-2.604-3.477-2.22-4.263-7.202-4.263-7.202s5.617-.182 8.789 2.664c1.236 1.107 2.282 3.144 2.972 4.762a73.06 73.06 0 0 0-1.787-10.014c-1.328.145-4.38.244-7.857-1.204-3.731-1.548-5.338-6.223-5.338-6.223s5.388-1.131 8.935 1.073c1.357.844 2.688 2.587 3.631 4.021a75.182 75.182 0 0 0-3.428-9.492c-1.188.356-4.183 1.036-7.896.207-3.862-.859-6.208-5.099-6.208-5.099s5.007-2.009 8.804-.482c1.581.634 3.313 2.299 4.479 3.575a70.136 70.136 0 0 0-5.171-9.161c-.879.472-3.794 1.842-7.809 1.661-3.876-.176-6.863-3.866-6.863-3.866s4.493-2.79 8.417-1.965c1.937.407 4.324 2.174 5.611 3.223-2.251-3.232-4.701-6.128-7.274-8.598-.695.559-3.301 2.448-7.301 2.969-3.77.492-7.283-2.561-7.283-2.561s3.862-3.459 7.79-3.331c1.957.064 4.586 1.386 5.999 2.176a46.8 46.8 0 0 0-.637-.571 77.113 77.113 0 0 0-8.03-6.561c-.61.689-2.8 2.919-6.528 4.087-3.552 1.118-7.461-1.232-7.461-1.232s3.139-3.991 6.95-4.537c1.913-.273 4.706.566 6.193 1.089a72.66 72.66 0 0 0-9.575-5.577c-.331.571-2.059 3.307-5.674 5.182-3.24 1.682-7.413.079-7.413.079s2.352-4.386 5.936-5.562c2.055-.671 5.459-.14 6.722.097-2.7-1.281-5-2.16-6.718-2.762-.523.272-3.265 1.599-5.724.754-3.416-1.174-5.106-3.478-5.106-3.478s3.529-1.348 5.626-.992c2.466.423 4.517 2.71 5.116 3.443 1.313.403 2.98.973 4.92 1.758-1.305-.922-3.327-2.52-4.147-4.07-1.764-3.339-.413-8.127-.413-8.127s4.123 1.74 5.286 5.203c1.214 3.613.717 6.628.521 7.517a69.742 69.742 0 0 1 9.293 4.892c-1.138-1.176-2.705-3.001-3.224-4.6-1.183-3.666 1.029-8.241 1.029-8.241s3.828 2.484 4.389 6.165c.568 3.753-.404 6.642-.781 7.583a76.588 76.588 0 0 1 8.153 6.193c-.892-1.369-1.948-3.257-2.157-4.799-.542-3.894 2.49-8.101 2.49-8.101s3.408 3.174 3.315 6.975c-.089 3.689-1.444 6.343-2.043 7.342 2.287 2.008 4.498 4.339 6.581 6.951-.554-1.418-1.062-3.107-1.011-4.445.148-4.008 3.942-7.694 3.942-7.694s2.861 3.789 2.094 7.593c-.713 3.533-2.417 5.905-3.246 6.892a70.405 70.405 0 0 1 5.262 8.526c-.339-1.59-.604-3.542-.297-4.978.858-4.003 5.321-7.034 5.321-7.034s2.209 4.316.764 8c-1.382 3.532-3.612 5.639-4.58 6.429a75.33 75.33 0 0 1 3.721 9.327c-.066-1.673.006-3.73.579-5.143 1.573-3.869 6.599-6.125 6.599-6.125s1.449 4.728-.656 8.172c-2.02 3.31-4.638 5.032-5.742 5.652a74.139 74.139 0 0 1 2.034 9.355c.246-1.589.676-3.396 1.427-4.591 2.265-3.608 7.712-4.987 7.712-4.987s.621 5.007-2.104 8.098c-2.521 2.859-5.339 4.141-6.632 4.612.314 2.969.442 5.983.369 9.021.515-1.438 1.215-2.962 2.094-3.937 2.92-3.225 8.635-3.646 8.635-3.646s-.261 5.143-3.548 7.768c-2.958 2.361-5.938 3.171-7.369 3.435a64.186 64.186 0 0 1-1.292 8.712c.781-1.379 1.775-2.826 2.852-3.663 3.503-2.723 9.325-2.132 9.325-2.132s-1.178 5.12-4.946 7.176c-3.443 1.883-6.622 2.147-8.085 2.154zm40.719 6.821V96.501c2.479-.165 4.649-.248 6.51-.248 3.554 0 6.386.775 8.494 2.325 2.107 1.55 3.162 4.051 3.162 7.502 0 3.452-1.51 6.252-4.526 8.401-3.018 2.15-6.572 3.224-10.664 3.224h-.434v2.046h.682c4.96 0 9.228-1.312 12.803-3.937 3.575-2.625 5.363-5.972 5.363-10.044 0-4.071-1.312-7.119-3.938-9.145-2.625-2.024-6.106-3.038-10.446-3.038-3.225 0-6.552.166-9.982.496v44.082h2.976zm35.154 0v-16.492c3.224.208 6.51.31 9.857.31 4.836 6.697 7.968 10.81 9.394 12.337 1.426 1.53 2.861 2.615 4.309 3.256 1.446.641 3.327.981 5.643 1.023l.062-1.922c-2.77-.331-5.332-1.715-7.688-4.154-1.158-1.281-4.196-5.187-9.114-11.718 1.776-1.281 3.368-2.955 4.773-5.022 1.405-2.066 2.108-4.319 2.108-6.758 0-3.637-1.24-6.437-3.72-8.401-2.48-1.963-5.622-2.945-9.424-2.945-2.48 0-5.498.145-9.053.434v40.052h2.853zm0-18.848v-18.91c2.231-.165 4.174-.248 5.828-.248 3.1 0 5.62.744 7.563 2.232 1.942 1.488 2.914 3.658 2.914 6.51s-.93 5.354-2.79 7.502c-1.859 2.15-3.596 3.224-5.208 3.224-2.563 0-5.332-.103-8.307-.31zm65.595 13.454c3.885-4.01 5.828-8.918 5.828-14.726 0-5.807-1.943-10.715-5.828-14.725-3.887-4.008-8.701-6.014-14.446-6.014s-10.561 2.005-14.445 6.014c-3.886 4.01-5.828 8.918-5.828 14.725 0 5.808 1.942 10.716 5.828 14.726 3.885 4.01 8.7 6.014 14.445 6.014s10.56-2.004 14.446-6.014zm-2.047-27.652c3.266 3.514 4.898 7.823 4.898 12.927 0 5.105-1.633 9.404-4.898 12.896-3.266 3.494-7.389 5.24-12.368 5.24-4.981 0-9.114-1.746-12.399-5.24-3.286-3.492-4.93-7.79-4.93-12.896 0-5.104 1.644-9.413 4.93-12.927 3.285-3.513 7.418-5.27 12.399-5.27 4.98 0 9.103 1.757 12.368 5.27zm49.383 33.046c2.543-.496 4.598-1.198 6.17-2.108l-.93-2.107c-3.557 1.488-7.771 2.232-12.648 2.232-5.58 0-10.365-1.975-14.354-5.922-3.988-3.946-5.982-8.731-5.982-14.353 0-5.621 1.715-10.375 5.146-14.26 3.43-3.885 7.852-5.828 13.268-5.828 4.547 0 9.299.744 14.26 2.232l.807-2.48c-5.084-1.652-10.107-2.48-15.066-2.48-6.324 0-11.512 2.201-15.562 6.603-4.051 4.402-6.076 9.838-6.076 16.306 0 6.469 2.314 11.904 6.943 16.307 4.629 4.401 10.17 6.603 16.617 6.603 2.395-.001 4.866-.249 7.407-.745zm48.576-5.394c3.885-4.01 5.828-8.918 5.828-14.726 0-5.807-1.943-10.715-5.828-14.725-3.885-4.008-8.701-6.014-14.445-6.014-5.746 0-10.561 2.005-14.445 6.014-3.887 4.01-5.828 8.918-5.828 14.725 0 5.808 1.941 10.716 5.828 14.726 3.885 4.01 8.699 6.014 14.445 6.014 5.744 0 10.561-2.004 14.445-6.014zm-2.045-27.652c3.264 3.514 4.898 7.823 4.898 12.927 0 5.105-1.635 9.404-4.898 12.896-3.266 3.494-7.389 5.24-12.369 5.24-4.982 0-9.113-1.746-12.4-5.24-3.285-3.492-4.93-7.79-4.93-12.896 0-5.104 1.645-9.413 4.93-12.927 3.287-3.513 7.418-5.27 12.4-5.27 4.981 0 9.104 1.757 12.369 5.27zm23.125 33.046v-28.954c0-3.058-.041-5-.123-5.828l3.41 4.154 26.908 30.876h1.363V97.927h-2.852v29.14c0 2.894.041 4.835.123 5.828-.041-.04-.465-.588-1.271-1.643a57.932 57.932 0 0 0-2.635-3.193l-26.412-30.38h-1.363v40.486h2.852zm63.426-36.642l1.055-2.294c-2.77-1.364-5.891-2.046-9.361-2.046-3.473 0-6.191.786-8.154 2.356-1.963 1.571-2.943 3.741-2.943 6.51 0 2.77 1.053 5.208 3.16 7.316 1.117 1.075 2.088 1.933 2.914 2.573.828.642 2.283 1.685 4.371 3.131 2.088 1.447 3.752 2.79 4.992 4.03 1.775 1.736 2.666 3.638 2.666 5.704 0 2.398-.879 4.258-2.635 5.58-1.758 1.324-4.207 1.984-7.348 1.984-3.143 0-6.117-.951-8.928-2.852l-1.488 2.17c2.77 2.148 6.209 3.224 10.322 3.224s7.316-.878 9.611-2.636c2.293-1.756 3.439-4.35 3.439-7.78 0-2.645-1.012-4.98-3.037-7.006-1.115-1.074-2.066-1.922-2.852-2.542-.785-.62-2.223-1.643-4.309-3.069-2.088-1.426-3.793-2.779-5.115-4.061-1.861-1.776-2.791-3.782-2.791-6.014 0-1.942.703-3.451 2.109-4.526 1.404-1.074 3.223-1.612 5.455-1.612 3.35 0 6.305.62 8.867 1.86zm45.819 19.282V97.927h-2.852v22.878c0 10.292-4.568 15.438-13.703 15.438s-13.701-5.146-13.701-15.438V97.927h-2.852v22.878c0 5.622 1.363 10.023 4.092 13.207 2.727 3.183 6.881 4.773 12.461 4.773s9.734-1.591 12.463-4.773c2.726-3.184 4.092-7.585 4.092-13.207zm35.834 17.36v-2.604h-18.475V97.927h-2.852v40.238h21.327z"></path><path fill="#3F3F3F" d="M488.552 21.632c.865.99 1.297 2.219 1.297 3.688v.469h-9.906l-.031-.078c.156-1.594.706-2.919 1.648-3.977.943-1.057 2.102-1.586 3.477-1.586 1.479-.001 2.651.495 3.515 1.484zm-77.438-1.485c-1.75 0-3.119.672-4.109 2.016-.989 1.344-1.484 2.979-1.484 4.906v.516c0 1.958.495 3.604 1.484 4.938.99 1.333 2.37 2 4.141 2 1.74 0 3.104-.667 4.094-2 .99-1.333 1.484-2.979 1.484-4.938v-.516c0-1.927-.497-3.562-1.492-4.906-.995-1.344-2.368-2.016-4.118-2.016zm44.141 0c-1.375 0-2.533.529-3.477 1.586-.942 1.058-1.492 2.383-1.648 3.977l.031.078h9.906v-.469c0-1.469-.432-2.698-1.297-3.688-.864-.988-2.036-1.484-3.515-1.484zm49.695.938c-.786-.604-1.805-.906-3.055-.906-1.646 0-2.883.675-3.711 2.023-.828 1.349-1.242 3.102-1.242 5.258v.328c0 2.042.409 3.667 1.227 4.875.818 1.208 2.05 1.812 3.695 1.812 1.198 0 2.201-.271 3.008-.812.808-.542 1.436-1.286 1.883-2.234v-8c-.416-.958-1.018-1.74-1.805-2.344zm24.586-.906c-1.312 0-2.367.323-3.164.969-.797.646-1.389 1.474-1.773 2.484v7.641c.416.979 1.039 1.758 1.867 2.336s1.861.867 3.102.867c1.625 0 2.85-.604 3.672-1.812.822-1.208 1.234-2.833 1.234-4.875v-.329c0-2.156-.416-3.909-1.25-5.258-.834-1.348-2.063-2.023-3.688-2.023zm-136.437-5.563h-5.188v10.109h5.188c1.875 0 3.284-.477 4.227-1.43.943-.953 1.414-2.153 1.414-3.602 0-1.458-.469-2.669-1.406-3.633-.938-.962-2.35-1.444-4.235-1.444zM582 25v28.998H357.088V0H557c13.807 0 25 11.193 25 25zm-181.401-5.337c0-2-.653-3.606-1.961-4.82-1.307-1.213-3.153-1.82-5.539-1.82h-9.594v1.391l2.547.203v19.578l-2.547.203v1.375h6.953v-1.375l-2.547-.203V26.32h5.188c2.386 0 4.232-.604 5.539-1.812 1.307-1.209 1.961-2.824 1.961-4.845zm18 7.406c0-2.489-.682-4.531-2.047-6.125-1.364-1.594-3.177-2.391-5.438-2.391-2.25 0-4.057.797-5.422 2.391-1.364 1.594-2.047 3.636-2.047 6.125v.516c0 2.5.683 4.544 2.047 6.133 1.365 1.589 3.183 2.383 5.453 2.383 2.25 0 4.055-.794 5.414-2.383 1.359-1.588 2.039-3.633 2.039-6.133v-.516zm26.859-8.203h-5.688v1.391l2.125.172-2.656 9.859-.703 3.094h-.094l-.812-3.094-3.609-11.422h-1.594l-3.609 11.422-.797 3.016h-.094l-.641-3.016-2.734-9.859 2.125-.172v-1.391h-5.672v1.391l1.641.125 4.469 15.391h1.594l3.703-11.562.734-2.922h.094l.734 2.922 3.766 11.562h1.594l4.484-15.391 1.641-.125v-1.391zm16.469 6.906c0-2.188-.594-3.938-1.781-5.25s-2.817-1.969-4.891-1.969c-1.969 0-3.648.797-5.039 2.391s-2.086 3.599-2.086 6.016v.859c0 2.406.698 4.388 2.094 5.945 1.396 1.558 3.156 2.336 5.281 2.336 1.344 0 2.5-.195 3.469-.586s1.771-.919 2.406-1.586l-.797-1.281a5.87 5.87 0 0 1-2.109 1.391c-.822.323-1.812.484-2.969.484-1.646 0-2.977-.643-3.992-1.93-1.016-1.286-1.523-2.877-1.523-4.773v-.453h11.938v-1.594zm13.781-7.046a4.793 4.793 0 0 0-.555-.117 4.367 4.367 0 0 0-.695-.055c-1.135 0-2.117.294-2.945.883-.828.589-1.481 1.404-1.961 2.445v-.203l-.234-2.812H465.146v1.391l2.547.203v13.734l-2.547.203v1.375h6.953v-1.375l-2.547-.203V24.101c.323-1.156.862-2.065 1.617-2.727.756-.661 1.722-.992 2.898-.992l1.391.094.25-1.75zm16 7.046c0-2.188-.594-3.938-1.781-5.25s-2.817-1.969-4.891-1.969c-1.969 0-3.648.797-5.039 2.391s-2.086 3.599-2.086 6.016v.859c0 2.406.698 4.388 2.094 5.945 1.396 1.558 3.156 2.336 5.281 2.336 1.344 0 2.5-.195 3.469-.586s1.771-.919 2.406-1.586l-.797-1.281a5.87 5.87 0 0 1-2.109 1.391c-.822.323-1.812.484-2.969.484-1.646 0-2.977-.643-3.992-1.93-1.016-1.286-1.523-2.877-1.523-4.773v-.453h11.938v-1.594zm19.469 8.625l-2.547-.203V11.397H504.208v1.391l2.547.203v8.422c-.572-.917-1.291-1.622-2.156-2.117-.864-.495-1.885-.742-3.062-.742-2.041 0-3.633.81-4.773 2.43-1.141 1.62-1.711 3.779-1.711 6.477v.328c0 2.521.57 4.537 1.711 6.047 1.141 1.511 2.722 2.266 4.742 2.266 1.198 0 2.24-.24 3.125-.719a5.832 5.832 0 0 0 2.172-2.047l.156 2.438h4.219v-1.377zm25.187-6.937c0-2.698-.572-4.856-1.719-6.477-1.146-1.62-2.734-2.43-4.766-2.43-1.209 0-2.25.258-3.125.773s-1.594 1.248-2.156 2.195V11.397h-4.406v1.391l2.547.203v22.781h1.594l.203-2.547c.553.927 1.275 1.638 2.172 2.133s1.963.742 3.203.742c2.01 0 3.588-.752 4.734-2.258 1.146-1.505 1.719-3.523 1.719-6.055v-.327zm19.219-8.594h-5.844v1.391l2.062.156-4.625 12.812h-.094l-.594-2.031-4.125-10.781 2.016-.156v-1.391h-5.812v1.391l1.719.141 6 15.172-.875 2.266c-.365.917-.787 1.661-1.266 2.234s-1.131.859-1.953.859a7.19 7.19 0 0 1-.586-.039c-.276-.026-.477-.05-.602-.07l-.219 1.562c.146.052.375.102.688.148s.578.07.797.07c1.344 0 2.364-.401 3.062-1.203.697-.802 1.266-1.776 1.703-2.922l6.828-18.078 1.719-.141v-1.39z"></path></svg> 