<?xml version="1.0" encoding="UTF-8"?> <svg xmlns="http://www.w3.org/2000/svg" width="500" height="500" viewBox="0 0 500 500"><path fill="#3F3F3F" d="M66.062 456.693l14.985-32.313s-96.125-149.976 2.247-267.292c0 0 35.974-68.123 99.594-85.147 0 0 101.312-35.384 104.749-52.982 0 0 41 131.392 11.994 211.539 0 0-8.509 144.856-199.586 202.872l-14.75 33.463a8.128 8.128 0 0 1-2.623 3.299c-3.244 2.374-10.111 5.629-15.917-3.431a10.438 10.438 0 0 1-.693-10.008"></path><path fill="none" stroke="#FFF" stroke-width="1.65" stroke-miterlimit="10" d="M66.062 456.693l14.985-32.313s-96.125-149.976 2.247-267.292c0 0 35.974-68.123 99.594-85.147 0 0 101.312-35.384 104.749-52.982 0 0 41 131.392 11.994 211.539 0 0-8.509 144.856-199.586 202.872l-14.75 33.463a8.128 8.128 0 0 1-2.623 3.299c-3.244 2.374-10.111 5.629-15.917-3.431a10.438 10.438 0 0 1-.693-10.008z"></path><path fill="#FFF" d="M80.433 464.888l31.751-67.305s38.972 3.577 60.319-8.848c0 0-44.545 15.69-55.854-3.759l11.348-23.048s36.95 5.003 74.909-12.312c0 0-67.519 16.669-73.78.231l15.186-31.645s34.843 10.934 87.87-8.772c0 0-65.38 16.306-84.02-5.228l13.642-27.559s41.991 5.26 88.169-11.664c0 0-73.218 16.523-84.529-3.161l14.221-25.945s49.43.743 91.464-19.009c0 0-67.387 17.869-85.702 1.712l13.063-29.174s39.102 2.643 67.38-13.817c0 0-52.312 13.012-63.664 3.374-1.188-1.01 14.776-27.762 14.776-27.762s22.977 3.28 53.935-6.637c0 0-49.957 9.426-52.247 1.023l6.912-13.713c17.902-5.218 36.899-21.451 36.899-21.451-18.191 9.515-31.582 12.168-31.582 12.168-2.17-8.607 17.138-39.513 17.138-39.513-14.608 12.837-27.29 44.204-27.29 44.204-6.665-4.658-14.01-33.792-14.01-33.792.157 19.679 8.893 40.716 8.893 40.716l-13.518 28.055c-18.491-8.014-33.403-53.55-33.403-53.55 6.433 36.406 26.373 63.773 26.373 63.773l-13.662 30.205c-11.737 7.889-39.59-59.033-39.59-59.033 11.351 45.025 35.308 69.267 35.308 69.267l-13.161 32.191c-23.131-1.914-56.481-68.859-56.481-68.859 16.414 51.496 49.45 79.082 49.45 79.082l-11.414 28.23c-12.361 10.863-57.182-55.302-57.182-55.302 22.846 47.057 52.587 67.024 52.587 67.024l-16.197 36.477c-23.343-8.199-56.937-65.222-56.937-65.222.345.788.69 1.571 1.036 2.348 24.146 54.104 52.286 75.758 52.286 75.758s-4.383 18.007-13.974 31.691c-9.59 13.687-38.923-56.384-38.923-56.384 13.144 46.686 33.851 68.931 33.851 68.931l-33.631 72.38c-.001.002 2.51 10.933 11.985 3.624"></path><g><path fill="#3F3F3F" d="M78.587 461.611l26.981-23.254s-25.69-176.273 112.319-242.558c0 0 60.875-47.214 125.85-36.475 0 0 106.887 9.564 117.279-5.049 0 0-16.859 136.604-76.346 197.644 0 0-67.513 128.445-265.505 102.464L91.923 478.78a8.123 8.123 0 0 1-3.75 1.923c-3.934.825-11.532.957-13.084-9.692a10.438 10.438 0 0 1 3.498-9.4"></path><path fill="none" stroke="#FFF" stroke-width="1.65" stroke-miterlimit="10" d="M78.587 461.611l26.981-23.254s-25.69-176.273 112.319-242.558c0 0 60.875-47.214 125.85-36.475 0 0 106.887 9.564 117.279-5.049 0 0-16.859 136.604-76.346 197.644 0 0-67.513 128.445-265.505 102.464L91.923 478.78a8.123 8.123 0 0 1-3.75 1.923c-3.934.825-11.532.957-13.084-9.692a10.438 10.438 0 0 1 3.498-9.4z"></path><path fill="#FFF" d="M88.297 475.004l56.69-48.21s34.025 19.336 58.596 16.826c0 0-47.051-4.085-49.328-26.469l19.845-16.313s31.595 19.803 73.316 19.688c0 0-68.382-12.67-67.304-30.227L207 367.737s27.229 24.334 83.662 28.26c0 0-66.283-12.119-74.379-39.424l23.796-19.477s36.079 22.114 85.129 25.749c0 0-73.515-15.155-75.697-37.752l23.657-17.768s44.724 21.069 91.161 20.418c0 0-68.758-11.523-78.776-33.797l23.936-21.186s34.528 18.537 67.081 15.21c0 0-53.021-9.729-59.387-23.191-.668-1.411 24.914-19.194 24.914-19.194s19.577 12.468 51.869 16.205c0 0-49.396-12.023-48.015-20.622l11.952-9.641c18.46 2.632 42.463-4.317 42.463-4.317-20.496 1.164-33.789-1.944-33.789-1.944 1.574-8.736 31.913-28.923 31.913-28.923-18.603 5.667-43.096 29.009-43.096 29.009-4.15-6.993 1.18-36.562 1.18-36.562-7.977 17.99-8.698 40.758-8.698 40.758l-23.888 19.98c-13.539-14.93-8.337-62.562-8.337-62.562-9.159 35.818-2.286 68.974-2.286 68.974l-24.905 21.878c-13.946 2.345-11.709-70.108-11.709-70.108-8.235 45.698 3.586 77.666 3.586 77.666l-25.27 23.894c-20.281-11.288-23.042-86.027-23.042-86.027-6.292 53.68 12.419 92.438 12.419 92.438l-22.043 21.008c-15.742 4.795-29.272-73.968-29.272-73.968 1.396 52.291 20.251 82.748 20.251 82.748l-29.804 26.548c-17.882-17.1-24.958-82.903-24.958-82.903-.011.86-.02 1.716-.024 2.565-.327 59.249 16.374 90.582 16.374 90.582s-11.422 14.594-25.803 23.104c-14.382 8.51-12.195-67.42-12.195-67.42-7.288 47.95 2.397 76.756 2.397 76.756L78.873 466.76s-2.223 10.994 9.424 8.244"></path></g><g><path fill="#3F3F3F" stroke="#FFF" stroke-width="3.366" stroke-miterlimit="10" d="M68.837 462.016l23.057-28.445s-58.129-173.652 69.414-265.876c0 0 52.979-58.866 120.674-59.848 0 0 109.884-9.811 117.732-26.489 0 0 7.849 141.278-41.207 213.879 0 0-44.885 142.259-249.934 152.07L85.46 476.956a8.342 8.342 0 0 1-3.443 2.63c-3.83 1.551-11.493 3.069-15.004-7.422a10.724 10.724 0 0 1 1.824-10.148"></path><path fill="none" stroke="#FFF" stroke-width="1.65" stroke-miterlimit="10" d="M68.837 462.016l23.057-28.445s-58.129-173.652 69.414-265.876c0 0 52.979-58.866 120.674-59.848 0 0 109.884-9.811 117.732-26.489 0 0 7.849 141.278-41.207 213.879 0 0-44.885 142.259-249.934 152.07L85.46 476.956a8.342 8.342 0 0 1-3.443 2.63c-3.83 1.551-11.493 3.069-15.004-7.422a10.724 10.724 0 0 1 1.824-10.148z"></path><path fill="#FFF" d="M81.103 473.797l48.564-59.112s37.95 13.359 62.351 6.341c0 0-48.348 4.444-54.732-17.784l17.104-20.123s35.575 14.272 77.765 6.551c0 0-71.494-.351-73.603-18.31l23.09-27.729s31.984 19.656 89.794 13.338c0 0-69.27-.176-82.44-26.324l20.525-24.042s40.536 15.794 90.819 10.529c0 0-77.137-1.932-83.464-24.395l20.695-22.288s49.087 13.161 95.951 4.037c0 0-71.664.876-85.86-19.832l20.354-25.798s38.312 12.46 70.637 3.16c0 0-55.415-.175-64.31-12.636-.932-1.306 21.707-23.961 21.707-23.961s22.079 9.044 55.431 6.938c0 0-52.165-3.159-52.338-12.109l10.336-11.934c19.155-.702 42.173-12.11 42.173-12.11-20.523 4.915-34.539 4.193-34.539 4.193 0-9.125 27.014-35.08 27.014-35.08-17.788 9.125-38.312 37.205-38.312 37.205-5.475-6.318-5.475-37.205-5.475-37.205-4.788 19.655-1.368 42.821-1.368 42.821l-20.523 24.569c-16.419-12.636-19.841-61.774-19.841-61.774-2.737 37.907 10.263 70.199 10.263 70.199l-21.208 26.675c-13.683 4.914-24.629-68.794-24.629-68.794 0 47.735 17.789 77.92 17.789 77.92l-21.21 28.781c-22.576-7.721-38.996-82.833-38.996-82.833 3.42 55.457 29.418 91.258 29.418 91.258l-18.472 25.271c-15.051 7.724-43.101-69.495-43.101-69.495 10.946 52.648 35.576 80.025 35.576 80.025l-25.313 32.292c-21.209-14.04-40.365-79.325-40.365-79.325.146.875.293 1.741.444 2.602 10.472 60.001 33.08 88.656 33.08 88.656s-8.894 16.849-21.893 28.08c-12.999 11.231-24.628-65.986-24.628-65.986 1.368 49.841 16.419 77.218 16.419 77.218l-51.713 63.699c-.004-.002-.249 11.526 11.034 6.621"></path></g></svg> 