<?xml version="1.0" encoding="UTF-8"?> <svg xmlns="http://www.w3.org/2000/svg" width="119.752" height="119.752" viewBox="0 0 119.752 119.752"><path fill="#3F3F3F" d="M26.268 21.989c-.076.338-.312.69-.708 1.057l-.997.921-1.628-1.762.985-.91c.393-.362.775-.559 1.147-.588s.686.093.941.37c.25.269.337.574.26.912zm46.968 55.51l19.959.001c-6.326 11.936-18.87 20.069-33.319 20.069-14.45 0-26.994-8.134-33.32-20.069h41.162V55.607h2.62c.436 0 .687.187.777.468l.671 1.733c.694-1.062 2.704-2.514 5.193-2.514h.692l-17.81-21.363h-.002l-17.8 21.372v8.394c0 1.779.653 2.873 2.243 2.873.556 0 1.028-.172 1.412-.447.02-.015.044-.023.063-.039.021-.016.037-.037.057-.054.616-.506.963-1.303.963-2.116v-8.306H52.347V71.19h-.001v.003h-2.525c-.294 0-.498-.092-.631-.234a.628.628 0 0 1-.149-.236l-.333-.794-.426-1.014a5.746 5.746 0 0 1-1.443 1.564c-.954.707-2.147 1.118-3.503 1.118-2.885 0-4.831-1.281-5.885-3.324-.632-1.227-.943-2.728-.943-4.391v-1.916L25.455 75.234a37.542 37.542 0 0 1-3.272-15.358c0-20.818 16.876-37.694 37.694-37.694 20.817 0 37.693 16.876 37.693 37.694a37.554 37.554 0 0 1-3.272 15.358l-9.836-11.796v.008c0 5.185-3.271 8.151-7.42 8.151-1.217 0-2.891-.438-3.805-1.229v7.131zm2.776-10.711c1.81 0 2.932-1.468 2.932-3.249 0-1.842-1.249-3.218-3.024-3.218-1.716 0-2.808 1.346-2.808 3.218-.001 1.813.996 3.249 2.9 3.249zM49.631 9.435l-.046.009-.477 3.025 2.153-.439-1.63-2.595zm-2.573 95.21l-1.292-.361-.647 2.311 1.307.366c.52.146.943.162 1.271.05.328-.113.542-.347.641-.701a1.1 1.1 0 0 0-.178-.995c-.22-.303-.588-.526-1.102-.67zm12.304 3.058l-1.118 2.852 2.198.035-1.032-2.886-.048-.001zm14.734-1.217c-.157-.602-.477-1.045-.958-1.33-.482-.285-1.018-.351-1.606-.197l-1.496.392 1.502 5.748 1.497-.392c.589-.153 1.023-.473 1.304-.957.281-.484.342-1.032.182-1.643l-.425-1.621zM59.614 67.288c-.231 0-.498-.03-.769-.065-.058-.008-.105-.005-.164-.015-.101-.016-.214-.048-.319-.068-.941-.182-2-.523-2.925-1.009l-1.622 3.779c.289.234.661.457 1.095.659s.932.384 1.47.536c1.075.305 2.314.492 3.546.492 3.327 0 5.533-1.579 6.033-4.024.071-.35.107-.716.107-1.099 0-.702-.127-1.308-.367-1.837-.72-1.587-2.462-2.488-4.869-3.286-1.31-.436-1.684-.716-1.684-1.155a.49.49 0 0 1 .079-.272c.157-.241.537-.381 1.074-.381 1.271 0 2.708.496 3.661.914.192.084.371.167.518.24l1.621-3.965a15.061 15.061 0 0 0-2.942-1.07c-.075-.019-.154-.025-.23-.042-.423-.095-.849-.18-1.287-.232h-.009a13.339 13.339 0 0 0-1.58-.092h-.001c-.889 0-1.696.132-2.417.361-.031.01-.067.014-.098.023-.025.009-.046.022-.071.031-2.186.759-3.494 2.488-3.494 4.549 0 1.551.538 2.716 1.812 3.611.625.439 1.414.819 2.43 1.138.935.296 1.574.522 1.98.749.057.032.099.064.147.097.037.024.082.049.114.074.053.042.09.085.129.128.015.017.037.032.05.05.045.059.078.12.101.185l.002.005a.66.66 0 0 1 .033.21c0 .469-.436.781-1.154.781zM9.03 52.498a1.274 1.274 0 0 0-1.052.348c-.292.275-.47.704-.532 1.288l-.182 1.72 2.759.291.182-1.72c.061-.579-.02-1.034-.242-1.366a1.225 1.225 0 0 0-.933-.561zm110.722 7.378c0 33.067-26.809 59.876-59.876 59.876C26.808 119.752 0 92.943 0 59.876 0 26.808 26.808 0 59.876 0c33.067 0 59.876 26.808 59.876 59.876zm-19.49-36.455l-7.008 6.025 1.743 2.028 7.008-6.025-1.743-2.028zm-9.73-6.681l2.293 1.933-4.894 5.804 2.051 1.729 4.893-5.804 2.336 1.969 1.063-1.262-6.679-5.631-1.063 1.262zm-12.822.676c.513.936 1.402 1.728 2.669 2.376 1.257.644 2.413.899 3.468.767s1.822-.67 2.305-1.611l2.732-5.333-2.395-1.226-2.731 5.333c-.263.512-.621.814-1.076.907-.454.093-.971-.009-1.55-.306-.584-.299-.975-.663-1.171-1.091s-.164-.897.096-1.406l2.732-5.333-2.395-1.226-2.731 5.333c-.482.941-.467 1.879.047 2.816zm-10.362-2.218l7.337 1.833.399-1.601-4.734-1.183.559-2.236 3.949.987.4-1.602-3.949-.986.481-1.928 4.742 1.185.399-1.601-7.344-1.834-2.239 8.966zm-10.613-4.227c-.03 1.129.377 2.055 1.223 2.776s1.982 1.101 3.41 1.14c1.402.038 2.492-.205 3.271-.728.777-.523 1.17-1.312 1.178-2.366l-.016-.038-2.609-.07c-.016.575-.162.982-.441 1.22s-.725.349-1.338.333c-.661-.018-1.164-.226-1.507-.625-.344-.398-.507-.921-.489-1.569l.052-1.941c.017-.643.192-1.154.525-1.532.333-.378.801-.56 1.403-.543.688.019 1.178.155 1.473.408s.436.664.42 1.23l2.609.07.025-.038c.049-1.04-.32-1.844-1.105-2.411-.787-.567-1.912-.871-3.377-.91-1.37-.037-2.48.284-3.332.961-.852.678-1.293 1.58-1.323 2.705l-.052 1.928zm-10.966 5.696l2.768-.564.294-1.893 3.366-.686 1.02 1.625 2.768-.564-5.546-8.301-1.408.286-.007.008-.001-.006-1.407.287-1.847 9.808zM29.53 14.316l4.232 8.216 2.384-1.228-2.686-5.214.04-.027 4.911 4.075 1.601-.825-.465-6.465.045-.016 2.726 5.293 2.384-1.228-4.232-8.216-3.153 1.624.641 6.946-.042.021-5.262-4.566-3.124 1.61zm-9.685 8.496l6.272 6.788 1.97-1.82-2.404-2.602 1.055-.975c.412-.38.804-.584 1.175-.61s.707.122 1.005.445l.379.41c.198.214.433.421.703.621.271.199.528.275.773.228l2.034-1.879-.086-.093c-.252.054-.517-.001-.792-.167a2.977 2.977 0 0 1-.659-.514l-.396-.429c-.379-.41-.809-.648-1.291-.713s-1.037.084-1.667.447c.304-.575.456-1.095.454-1.561s-.164-.874-.489-1.225c-.583-.631-1.33-.863-2.241-.695-.911.168-1.858.706-2.841 1.614l-2.954 2.73zm-5.813 7.755l5.542 8.301 1.583-2.339-1.114-1.559 1.925-2.845 1.866.448 1.583-2.34-9.771-2.051-.805 1.189v.01l-.005-.004-.804 1.19zm.782 26.084l-3.15-.333.182-1.72c.144-1.362-.019-2.473-.488-3.331-.469-.858-1.156-1.335-2.061-1.43-.905-.096-1.677.227-2.317.968-.64.741-1.032 1.792-1.176 3.155l-.463 4.387 9.191.97.282-2.666zm4.265-16.727l-8.686-3.158-.914 2.513 3.639 1.323-1.461 4.02-3.639-1.323-.916 2.521 8.686 3.157.916-2.521-3.496-1.271 1.461-4.02 3.496 1.271.914-2.512zm20.15 60.715c-.373-.841-1.192-1.642-2.455-2.404-1.173-.708-2.315-.984-3.425-.828-1.11.155-1.953.709-2.528 1.662l-.997 1.652c-.58.96-.668 1.972-.265 3.035.402 1.063 1.217 1.965 2.444 2.706.983.593 1.858.96 2.625 1.102s1.423.15 1.969.024l1.892-3.136-4.049-2.443-.734 1.217 1.752 1.058-.853 1.413a2.083 2.083 0 0 1-.705-.129c-.275-.092-.624-.265-1.044-.519-.584-.353-.938-.794-1.059-1.325-.122-.53-.016-1.07.316-1.621l1.003-1.663c.326-.54.753-.88 1.283-1.021.53-.141 1.062-.049 1.596.273.521.314.854.644.998.987.145.345.1.711-.134 1.099l2.154 1.299.033-.024c.496-.769.557-1.574.183-2.414zm11.138 3.991c-.62-.688-1.575-1.213-2.863-1.574l-3.874-1.086-2.494 8.899 2.583.724.956-3.41 1.383.388c.54.151.918.378 1.136.681.217.303.267.666.148 1.09l-.151.538c-.079.28-.132.589-.16.924s.042.594.21.777l2.667.747.034-.122c-.178-.187-.27-.44-.272-.762a3.002 3.002 0 0 1 .093-.831l.158-.562c.15-.538.127-1.028-.069-1.473s-.615-.84-1.254-1.186c.649-.042 1.171-.186 1.567-.431.396-.245.658-.599.787-1.059.229-.827.035-1.585-.585-2.272zm14.136 9.474l-3.625-9.303-1.437-.022-.008.006v-.007l-1.436-.022-3.918 9.18 2.824.046.696-1.786 3.435.057.645 1.807 2.824.044zm12.619-6.676l-.421-1.609c-.28-1.072-.952-1.836-2.018-2.29-1.064-.454-2.254-.51-3.569-.166l-4.092 1.069 2.338 8.942 4.092-1.07c1.314-.344 2.326-.973 3.032-1.889.707-.915.92-1.911.638-2.987zm12.537-2.155l-.804-1.441-4.262 2.377-1.122-2.013 3.555-1.982-.804-1.441-3.555 1.982-.967-1.735 4.27-2.381-.804-1.441-6.611 3.687 4.5 8.072 6.604-3.684zm6.499-27.805a40.142 40.142 0 0 0 4.034-17.592c0-22.266-18.052-40.316-40.316-40.316-22.266 0-40.316 18.05-40.316 40.316a40.153 40.153 0 0 0 4.034 17.593l-.027.031h.042c6.541 13.433 20.321 22.692 36.266 22.692 15.944 0 29.725-9.26 36.266-22.692h.044l-.027-.032zm4.936-37.956c.858.379 1.734.291 2.63-.266l.024-.033-1.334-2.244c-.494.294-.917.387-1.268.278-.35-.109-.682-.427-.995-.954-.338-.569-.43-1.104-.276-1.608.153-.503.509-.92 1.065-1.251l1.67-.992c.553-.329 1.078-.453 1.576-.374.497.08.9.378 1.208.897.352.591.499 1.079.441 1.463-.057.385-.329.722-.816 1.012l1.334 2.244.045.001c.905-.514 1.389-1.254 1.448-2.222s-.284-2.082-1.033-3.341c-.7-1.178-1.563-1.946-2.592-2.304-1.027-.358-2.025-.25-2.992.325l-1.659.986c-.972.577-1.536 1.416-1.694 2.516s.127 2.264.856 3.492c.717 1.204 1.503 1.996 2.362 2.375zm3.448 11.878l7.688-6.37-.43-1.37-.009-.006.006-.002-.43-1.37-9.946-.831.846 2.695 1.913.099 1.028 3.278-1.513 1.181.847 2.696zm2.302 8.448l-.423-4.941 7.563-.647-.229-2.672-9.209.789.652 7.613 1.646-.142zm-89.57-28.84l-.026.039 1.776 2.495 1.231-1.82-2.981-.714zm88.666 13.334l.658 2.097 2.415-1.888-.015-.045-3.058-.164z"></path></svg> 