<?xml version="1.0" encoding="UTF-8"?> <svg xmlns="http://www.w3.org/2000/svg" width="427.132" height="445.188" viewBox="0 0 427.132 445.188"><path fill-rule="evenodd" clip-rule="evenodd" fill="#3F3F3F" d="M295.407 342.55h-12.14l-17.966 50.386h11.088l3.4-10.386h18.705l3.229 10.386h11.438l-17.754-50.386zm-12.701 31.298l-.119.154 6.574-20.084h.141l6.246 19.93h-12.842zM51.822 289.27h323.441v41.104H51.822V289.27zm0 114.816v41.102h323.441v-41.102H51.822zm42.28-28.762v-32.771H83.365v33.193c0 6.105-2.948 9.613-10.175 9.613-4.913 0-8.983-3.087-8.983-10.105v-32.701H53.47v33.403c.14 5.054 1.192 9.122 3.93 12.211 4.491 4.983 11.368 6.105 16 6.105 12.702 0 20.702-5.684 20.702-18.948zm20.172 17.713v-10.246h-10.527v10.246h10.527zm17.488-15.609h-10.105c0 6.244 3.158 16.841 21.544 16.841 4.421 0 19.86-1.333 19.86-16.491 0-9.053-6.316-11.859-13.193-13.543l-12.281-3.018c-2.105-.492-5.333-1.334-5.333-5.264 0-4.561 4.772-6.035 8.771-6.035 9.193 0 10.036 5.334 10.316 7.578h10.105c-.07-6.174-4.211-16.279-19.649-16.279-16.351 0-19.369 9.895-19.369 15.508 0 11.088 7.86 12.912 16 14.807l5.404 1.264c5.333 1.264 9.123 2.316 9.123 6.246 0 5.333-5.544 6.525-10.526 6.525-9.193-.001-10.596-5.333-10.667-8.139zm49.15 15.609v-10.246h-10.526v10.246h10.526zm77.956-.101V342.55h-15.229l-8.982 39.72h-.141l-9.123-39.72h-15.368v50.386h9.825V350.83h.141l9.191 42.105h10.316l9.404-42.105h.141v42.105h9.825v.001zm70.886 0V342.55h-10.526v50.386h10.526zm20.505-9.124V342.55h-10.526v50.386h35.578v-9.123h-25.052v-.001zM0 143.816C37.983 103.169 167.161 14.861 261.883 1.546c61.642-8.662 74.133 21.657 76.633 26.987 3.045 6.499 6.219 29.886-16.659 53.645-21.491 22.323-8.496 35.317 2.001 35.317h65.636c8.497 0 8.331 1.501 10.997 4.834 2.667 3.333 2.164 5.663 8.16 5.663h11.496c7.996 0 7.83 8.33 5.83 17.326-.275 1.24-2.332 2.164-2.664 0-.418-2.716 0-10.328-4.498-10.661 0 0-14.496.333-21.657.333-5.329 0-5.05-.565-8.663-1.168-1.997-.333-1.314-3.088.666-2.667 2.334.502 6.666 1.334 11.16-.496 2.783-1.133 1.668-4.665-2.663-4.665h-69.802c-4.664.163-4.664 2.83-3 6.163 1.668 3.33 14.492 30.819 14.492 30.819 1.668 2.334 3.372 3.421 6.998 1.668 10.328-4.997 36.648-20.828 66.14-20.828 5.497 0 8.16 3.963 4.664 3.999-15.161.169-67.138 16.992-91.128 45.314-18.06 21.317-33.482 57.976-36.814 76.966h28.318c4.667 0 7.03.946 1.831 11.344-1.163 2.333-2.331.166-2.331.166s-.333-2.168-1.83-2.001c-1.988.222-47.646 0-49.646 0-1.998 0-3.166-.999-2.168-2.667 1.002-1.665 2.834-4.674 2.834-4.674 1.002-1.666 1.334-2.168 4.33-2.168 6.163 0 5.498-.166 6-2.83.311-1.67.832-3-1.168-3h-19.157c-2.999 0-3.999-.332-3.999-5.166v-23.654c0-2.83.167-6.496-4.996-2.334-6.849 5.521-34.651 24.989-34.651 24.989-5.663 3.665-11.995 6.832-24.657 6.832H84.298c-2.001 0-2.667-2.168-1.335-3.167 1.335-.998 117.617-83.964 124.947-86.627 7.328-2.667 2.054-3.408.666-3.666-14.326-2.667-26.986-10.33-27.989-26.321-.999-15.994.333-30.32-30.652-29.321-30.987.999-145.27 26.654-149.935 27.986z"></path></svg> 