<?xml version="1.0" encoding="UTF-8"?> <!-- Generator: Adobe Illustrator 16.0.4, SVG Export Plug-In . SVG Version: 6.00 Build 0) --> <svg xmlns="http://www.w3.org/2000/svg" xmlns:xlink="http://www.w3.org/1999/xlink" id="Layer_1" x="0px" y="0px" width="437px" height="223px" viewBox="0 0 437 223" xml:space="preserve"> <path fill="#3F3F3F" d="M251.34,128.814c0.035-3.51-2.672-6.023-10.742-9.948c-7.85-3.829-18.254-10.258-18.129-21.779 c0.127-15.579,14.531-26.461,34.986-26.461c8.021,0,14.457,1.753,18.547,3.367l-2.797,17.377l-1.859-0.919 c-3.83-1.624-8.729-3.192-15.49-3.079c-8.105,0-11.859,3.563-11.859,6.895c-0.057,3.766,4.387,6.227,11.615,9.947h0.007v-0.002 c11.944,5.72,17.454,12.636,17.384,21.779c-0.162,16.638-14.299,27.386-36.047,27.386c-9.287-0.101-18.236-2.041-23.062-4.272 l2.896-17.939l2.664,1.271c6.809,2.996,11.209,4.213,19.496,4.213C244.9,136.648,251.285,134.184,251.34,128.814z M133.189,78.792 c-1.25-5.079-4.887-6.589-9.387-6.766H90.429l-0.275,1.665c22.958,5.783,41.765,18.288,50.288,41.941L133.189,78.792z M293.257,152.215h-21.748l30.742-73.466c2.168-5.228,5.885-6.645,10.844-6.645h16.002l0,0l16.749,80.111h-19.205 c0,0-1.906-9.218-2.523-12.012c-3.021,0-24.145-0.041-26.506-0.041C296.801,142.336,293.257,152.215,293.257,152.215z M303.568,123.759h17.178c-0.822-4.006-4.791-23.138-4.791-23.138l-1.396-6.915c-1.049,3.005-2.865,7.862-2.744,7.65 C311.812,101.356,305.287,119.15,303.568,123.759z M213.867,72.021h-20.693l-12.945,80.174h20.692L213.867,72.021z M152.203,152.107 l32.593-80.019h-21.928l-20.264,54.66l-2.172-11.104c-4.347-11.653-15.006-22.361-26.994-27.284l16.857,63.763L152.203,152.107z M407,0H218.5h0H30C13.458,0,0,13.458,0,30v163c0,16.542,13.458,30,30,30h188.5h0H407c16.542,0,30-13.458,30-30V30 C437,13.458,423.542,0,407,0z M427,193c0,11.027-8.972,20-20,20H218.5h0H30c-11.028,0-20-8.973-20-20V30c0-11.028,8.972-20,20-20 h188.5h0H407c11.028,0,20,8.972,20,20V193z"></path> </svg> 