<?xml version="1.0" encoding="UTF-8"?> <svg xmlns="http://www.w3.org/2000/svg" width="2494.196" height="1213.988" viewBox="0 0 2494.196 1213.988"><path fill="none" stroke="#BDBCBC" stroke-width=".145" stroke-linecap="round" stroke-linejoin="round" d="M2453.116 679.039c-15.969-12.069-18.596-13.916-114.572-45.525 83.127-20.442 86.699-22.618 101.436-32.306 33.375-22.619 51.191-60.139 48.604-100.778l-.328-4.434c-6.773-65.229-90.803-188.298-147.369-215.925-37.316-17.815-78.818-15.312-111.494 6.649-15.393 10.18-17.445 11.577-80.622 97.822-6.157-100.777-18.021-278.484-20.936-295.11l-.616-3.816-.945-3.694c-10.796-39.039-41.42-68.35-81.978-78.529-67.691-16.872-246.713 33.579-294.741 83.085-28.202 29.434-39.038 69.047-29.31 106.197l1.971 7.389 3.325 6.855c4.598 9.482 16.708 29.557 120.605 192.567l38.3 60.344c-93.02-38.054-96.714-38.176-115.967-38.341-36.658-1.601-73.398 18.021-95.524 52.668l-.411.656c-11.412 18.391-18.473 43.391-22.865 69.58-29.967-40.394-75.081-72.782-143.471-86.206-48.48-9.729-93.964-3.858-136.82 13.465-39.244-25.04-93.185-27.955-138.299-2.216a113.664 113.664 0 0 0-32.511 27.422v-55.336l-4.312-32.881-1.313-5.912c-9.072-35.672-36.002-65.762-72.044-80.541l-.328-.164c-39.572-15.969-83.948-12.15-121.591 10.386-40.106 23.686-60.673 63.012-60.673 116.788v112.847a222.208 222.208 0 0 0-52.831-57.389c-56.321-42.692-131.854-57.101-218.305-41.584-50.123 8.703-92.035 30.582-125.245 62.685l-1.601-3.325c-16.872-30.213-44.253-50.984-79.31-60.18-58.537-16.051-132.839 3.858-163.504 108.537l-11.78 40.024c-13.424-24.63-48.233-91.912-49.671-93.923-31.362-47.535-94.17-68.144-150.325-45.812C31.477 491.521.072 539.264.072 595.38c0 17.692 3.079 36.124 9.523 54.843l1.602 4.557 143.759 292.812c-51.847 13.67-88.792 52.339-94.785 105.376a121.223 121.223 0 0 0 38.752 104.76c38.998 36.002 99.588 47.906 170.728 33.334 77.298-15.188 121.756-61.781 152.913-160.589l47.413-148.971c15.435 62.725 43.513 103.692 70.155 129.964 38.301 37.89 108.455 79.802 224.587 64.121 86.287-12.068 146.016-50.696 178.28-96.099l2.094 10.96c9.195 32.39 34.195 61.165 67.774 76.478a131.61 131.61 0 0 0 111.37-.739c18.596-8.087 34.359-20.854 46.632-36.822v46.962c0 77.626 44.909 110.631 71.675 123.438a134.192 134.192 0 0 0 113.175 3.16c34.4-14.901 59.933-43.267 69.95-77.708l1.56-5.296 4.681-32.02v-13.751c46.674 4.762 95.4-2.833 138.298-25.081 18.965-9.853 35.549-21.716 50.368-35.345h31.526c17.159 9.031 36.658 14.655 57.635 14.655 21.059 0 40.517-5.624 57.635-14.655h91.418c60.55 34.071 149.055 59.894 196.426 51.764 40.804-7.225 72.947-33.497 86.534-70.319l.698-1.848c5.747-16.748 6.69-19.869 7.102-114.489 51.888 83.824 54.597 86.042 69.169 97.536 31.322 24.425 72.496 29.803 110.508 14.49 61.041-24.507 154.309-143.06 163.668-208.125.779-5.665 1.23-11.413 1.23-17.037-.001-34.071-14.696-65.639-41.009-86.657z"></path><path fill="#E9E9E9" d="M1727.008 547.602c-14.816 23.725-21.017 98.274-15.892 147.815 1.767 16.334 4.684 29.967 9.083 38.059 5.908 11.283 15.833 18.017 27.167 18.392 7.183.366 11.75-.825 148.357-44.875 0 0 60.716-19.292 61.041-19.417 15.024-3.899 25.291-17.774 26.274-35.549.983-18.267-8.5-34.316-23.933-40.142l-42.858-17.492c-146.874-60.583-153.407-62.883-160.874-62.966-11.292-.533-21.35 5.25-28.366 16.167m328.365 451.229c2.417-6.899 2.667-11.616 3.033-155.132 0 0 .367-63.416.5-64.116.9-15.434-9.116-29.642-25.625-36-16.949-6.575-35.216-2.55-45.524 10.259 0 0-29.883 35.466-30 35.508-102.832 120.891-107.149 126.399-109.607 133.624a28.53 28.53 0 0 0-1.683 13.133c.658 6.358 3.482 12.809 8.374 18.551 23.809 28.449 138.216 70.524 174.666 64.291 12.682-2.3 21.966-9.526 25.866-20.118m231.932-49.966c34.566-13.75 109.85-109.475 115.1-146.249 1.809-12.858-2.167-23.858-11.042-30.958-5.699-4.351-10.258-6.033-146.665-50.858 0 0-59.975-19.791-60.633-20.116-14.575-5.667-31.084-.45-42.2 13.3-11.583 14.083-13.384 32.592-4.066 46.666l24.1 39.208c81.074 131.691 87.191 140.966 93.016 145.566 9.034 7.017 20.566 8.291 32.392 3.45m-70.402-338.915c155.166-37.517 161.116-39.491 167.274-43.508 9.399-6.408 14.041-16.917 13.258-29.925 0-.459.042-.825 0-1.275-4.017-38.058-70.725-137.19-103.607-153.282-11.7-5.542-23.358-5.167-32.967 1.233-5.991 4.017-10.467 9.767-93.466 123.475 0 0-37.566 51.149-38.017 51.6-9.892 11.991-10.017 29.274-.416 44.083 9.982 15.316 26.975 22.791 42.499 18.483 0 0-.7 1.066-.833 1.308 7.6-2.916 21.392-6.275 46.275-12.192m-155.832-128.116c-2.708-61.499-21.142-335.256-23.316-347.897-3.167-11.583-12.15-19.75-25.083-22.991-39.525-9.85-190.966 32.633-218.999 61.583-8.95 9.35-12.316 20.966-9.649 31.233 4.391 9.033 191.948 304.14 191.948 304.14 27.75 44.991 50.375 37.975 57.758 35.666 7.391-2.293 29.891-9.309 27.341-61.734"></path><path fill="#BF2519" d="M1739.407 516.561c-14.783 23.691-21.024 98.274-15.891 147.782 1.808 16.333 4.767 29.966 9.074 38.1 5.917 11.25 15.842 17.934 27.167 18.35 7.274.367 11.791-.866 148.407-44.791 0 0 60.708-19.375 60.958-19.5 15.149-3.858 25.333-17.775 26.308-35.55.992-18.225-8.416-34.316-23.925-40.142 0 0-42.816-17.449-42.899-17.449-146.799-60.55-153.407-62.925-160.799-63.009-11.332-.458-21.382 5.25-28.4 16.209m328.399 451.146c2.383-6.899 2.666-11.616 3.083-155.132 0 0 .325-63.417.366-64.033.984-15.559-9.074-29.725-25.532-36.041-16.958-6.533-35.226-2.5-45.483 10.258 0 0-29.967 35.55-30.05 35.55-102.833 120.808-107.141 126.391-109.649 133.541a29.337 29.337 0 0 0-1.642 13.166c.616 6.417 3.533 12.733 8.333 18.642 23.85 28.334 138.216 70.399 174.749 64.167 12.691-2.301 21.925-9.442 25.833-20.117m232.006-49.959c34.483-13.75 109.69-109.44 114.982-146.266 1.851-12.809-2.167-23.85-11-30.908-5.791-4.35-10.183-6.033-146.716-50.857 0 0-59.891-19.792-60.666-20.167-14.5-5.616-31.041-.399-42.166 13.309-11.575 14.083-13.3 32.675-4.059 46.716l24.092 39.25c81.033 131.6 87.232 140.916 93.066 145.474 9.026 7.099 20.526 8.249 32.467 3.449m-70.565-338.831c155.165-37.6 161.165-39.574 167.281-43.591 9.4-6.325 14.125-16.917 13.301-29.809 0-.408.083-.858 0-1.309-3.983-38.1-70.733-137.19-103.608-153.282-11.666-5.583-23.316-5.216-32.999 1.267-6 3.9-10.393 9.816-93.482 123.441 0 0-37.518 51.107-37.967 51.6-9.892 12.033-10.059 29.274-.367 44.05 10.017 15.308 26.925 22.783 42.441 18.475 0 0-.616 1.108-.774 1.309 7.632-2.876 21.299-6.234 46.174-12.151m-155.741-128.115c-2.667-61.5-21.183-335.298-23.358-347.981-3.116-11.5-12.107-19.708-25-22.95-39.616-9.809-191.007 32.591-219.048 61.533-9.025 9.4-12.35 20.975-9.642 31.242 4.434 9.075 191.99 304.181 191.99 304.181 27.708 44.949 50.333 37.975 57.758 35.633 7.35-2.258 29.842-9.241 27.3-61.666"></path><path fill="#231F20" d="M152.276 1099.807c19.542 18.1 56.566 23.232 101.558 14.083 42.166-8.333 68.308-27.175 93.474-107.183l125.324-393.765c6.483-20.899 6-39.041-1.434-52.499-6.041-10.842-16.091-18.191-30.3-21.967-22.333-6.116-50.199-5.5-67.774 54.517l-65.758 223.365s-133.949-253.04-134.032-253.082c-8.458-16.916-33.25-29.017-58.5-19-32.916 12.517-43.883 42.117-30.75 80.25 0 0 162.932 331.564 163.307 332.464 0 0 4.433 11.825 4.433 13.75 0 0 1.475 9 1.475 9.325-.333 12.767-4.6 23.517-12.233 30.7-7.508 7.066-17.942 10.758-30.133 10.267 0 0-25.408-.584-27.333-.584-26.108 3.209-42.533 18.191-45.167 41.342-1.831 14.908 2.969 28 13.843 38.017M794.264 726.45H619.799c-4.726-3.441-7.017-9.233-3.492-26.642 2.217-9.149 4.601-17.357 11.583-28.857 2.25-3.442 4.592-6.976 6.851-10.5 12.767-16.142 30.05-26.483 49.716-31.083 61.333-14.983 104.1 16.175 111.041 69.332 3.324 23.2 1.141 27.75-1.234 27.75zm107.224-30.375c-5.625-56.891-27.583-101.307-63.583-128.523-38.35-29.108-92.616-38.383-156.857-26.892-80.541 13.958-128.898 71.508-139.982 166.665-13.633 113.75 5.084 199.466 54.309 247.94 37.107 36.666 91.999 51.233 158.748 42.2 95.191-13.384 138-65.634 138-98.684 0-24.3-14.692-43.433-36.283-46.341-12.358-2.467-22.783 0-45.858 20.642-33.25 28.983-71.791 40.642-105.949 31.982-26.024-6.607-46.342-24.549-55.541-49.141 0 0-4.101-16.25-3.858-14.45-2.792-14.649-4.059-29.183 4.967-35.1l2.416-1.642H861.13c19.3 0 29.066-2.5 34.691-8.583 11.5-12.756 10.584-49.206 5.667-100.073m189.566-300.897c-16.542-6.733-35.217-4.925-51.6 4.842-15.759 9.325-22.333 23.524-22.333 49.183V947.8s2.75 17.816 3.041 18.592c3.533 12.441 12.726 23.033 25.491 28.816 14.167 6.575 30.5 6.45 45.117-.408 18.183-7.884 28.899-26.066 28.899-48.6V446.652s-3.167-24.133-3.167-24.583c-2.915-11.583-12.474-21.591-25.448-26.891m394.58 506.438c-69.049 0-80.049-61.292-82.224-107.55-.125-.125-.908-27.1-.908-27.1s.783-20.024.783-20.809c4.475-80.049 21.017-111.615 63.258-120.398 28.366-6.567 50.041-3.367 66.3 9.725 24.416 19.667 35.174 61.291 34.191 130.749-.7 81.317-14.858 135.383-81.4 135.383zm5.125-366.081c-46.258-9.45-85.832-1.525-123.891 24.25 0 0-4.267 3.45-5.908 4.441l-3.408 1.725-10.416 4.675-2.967-11.699-2.5-4.226-.867-2.625-.283-.783s-2.541-3.408-2.917-3.941c-10.916-17-40.6-24.792-67.357-9.524-13.1 7.433-20.608 17.899-20.608 49.141v489.355c0 26.808 8.417 43.475 26.8 52.258 15.517 7.8 32.967 8.416 47.95 1.975 12.725-5.583 22.083-15.441 25.574-27.425l3.084-20.975v-84.691l-.909-13.624.367-4.025.533-1.925 5.05-16.134 15.316 10.175s3.858 2.551 5.5 4.275l4.601 3.033c.033.042 5.333 3.125 5.333 3.125.083 0 4.925 2.375 4.925 2.375 41.05 19.375 95.975 17.116 140.19-5.667 55.667-29.058 83.167-80.615 89.525-167.19 13.299-173.032-26.518-255.706-132.717-276.356m214.532 404.388h5.708c4.634 0 8.992-.25 8.992-5.459 0-4.683-3.983-5.166-7.559-5.166h-7.142v10.625zm-4.683-14.817h12.232c8.009 0 11.75 2.917 11.75 9.559 0 6-3.824 8.5-8.833 9.033l9.65 14.742h-5.051l-9.116-14.334h-5.95v14.334h-4.683v-33.334h.001zm10.8 41.049c13.499 0 24.383-10.633 24.383-24.716 0-13.834-10.875-24.5-24.383-24.5-13.55 0-24.425 10.666-24.425 24.791-.121 13.365 10.616 24.297 23.98 24.417h.444v.008zm0-53.366c15.767 0 29.024 12.4 29.024 28.65 0 16.541-13.258 28.899-29.024 28.899-15.809 0-29.025-12.358-29.025-28.608 0-16.54 13.217-28.941 29.025-28.941"></path></svg> 