<?xml version="1.0" standalone="no"?>
<!DOCTYPE svg PUBLIC "-//W3C//DTD SVG 20010904//EN"
 "http://www.w3.org/TR/2001/REC-SVG-20010904/DTD/svg10.dtd">
<svg version="1.0" xmlns="http://www.w3.org/2000/svg"
 width="500.000000pt" height="500.000000pt" viewBox="0 0 500.000000 500.000000"
 preserveAspectRatio="xMidYMid meet">
<metadata>
Created by potrace 1.11, written by Peter Selinger 2001-2013
</metadata>
<g transform="translate(0.000000,500.000000) scale(0.100000,-0.100000)"
fill="#000000" stroke="none">
<path d="M0 2500 l0 -2500 2500 0 2500 0 0 2500 0 2500 -2500 0 -2500 0 0
-2500z m2205 2230 c147 -17 225 -37 411 -105 98 -36 184 -65 192 -65 27 0 91
78 105 128 l14 47 82 3 c44 2 81 -1 81 -5 0 -4 18 -213 39 -463 22 -250 41
-475 43 -500 l3 -45 -100 0 -100 0 -9 40 c-42 196 -112 331 -237 456 -290 290
-690 366 -1100 208 -166 -64 -367 -228 -470 -384 -249 -375 -301 -965 -119
-1352 52 -112 102 -184 190 -277 151 -159 358 -281 546 -320 29 -7 31 -5 43
36 43 143 166 339 307 487 302 317 661 498 1096 551 129 16 464 8 582 -14 48
-9 176 -48 282 -87 185 -68 196 -70 219 -55 35 23 71 75 86 124 l12 42 78 0
c89 0 83 9 94 -135 3 -44 8 -105 11 -135 24 -266 63 -735 61 -736 -1 -2 -47
-4 -101 -5 l-99 -2 -18 88 c-67 329 -383 621 -743 684 -137 25 -357 8 -501
-38 -267 -85 -496 -284 -627 -546 -34 -66 -88 -206 -88 -225 0 -12 79 24 169
77 147 86 296 222 435 395 l38 47 80 -40 80 -40 -18 -27 c-126 -198 -325 -395
-525 -521 -69 -43 -207 -109 -270 -130 -46 -15 -49 -28 -49 -221 0 -356 102
-625 320 -841 221 -219 505 -329 852 -329 173 0 288 26 443 100 164 78 361
241 492 406 36 46 68 84 71 84 9 0 152 -81 152 -87 0 -3 -24 -39 -54 -81 -238
-337 -570 -562 -956 -647 -101 -22 -405 -31 -541 -16 -424 49 -767 208 -1045
486 -274 273 -396 556 -398 923 -1 161 8 145 -91 157 -578 72 -1091 439 -1291
923 -108 259 -122 587 -39 877 138 483 628 920 1186 1059 206 51 484 70 694
46z"/>
</g>
</svg>
